<svg width="153" height="41" viewBox="0 0 153 41" fill="none" xmlns="http://www.w3.org/2000/svg">
<g clip-path="url(#clip0_36_1192)">
<path d="M74.9549 9.10425C75.2639 9.10257 75.2639 9.10257 75.5791 9.10086C76.0137 9.10007 76.4482 9.10221 76.8828 9.1071C77.5408 9.11332 78.1982 9.10717 78.8563 9.09969C81.9147 9.0939 84.2719 9.40498 86.5374 12.0684C86.6492 12.2013 86.761 12.3342 86.8762 12.471C87.0202 12.3371 87.1642 12.2031 87.3126 12.065C90.0126 9.67789 92.6449 8.82168 96.0209 9.25936C97.785 9.79462 99.321 11.0455 100.348 12.8246C102.4 16.9945 101.319 21.8336 100.593 26.3032C100.51 26.833 100.426 27.363 100.343 27.893C100.142 29.1766 99.935 30.4587 99.7283 31.7411C98.1786 31.7411 96.6289 31.7411 95.0323 31.7411C95.1541 29.1158 95.5031 26.5942 95.929 24.0152C96.2784 21.8009 96.6089 19.476 95.9746 17.3068C95.3786 16.3114 94.719 15.6436 93.7966 15.0988C92.2043 15.0184 91.0733 15.4025 89.8141 16.5415C88.4831 18.257 87.9107 19.9646 87.6216 22.2407C87.5855 22.4952 87.5494 22.7497 87.5123 23.012C87.3991 23.8163 87.2919 24.6216 87.1852 25.4272C87.0736 26.2388 86.9609 27.0501 86.8475 27.8613C86.7777 28.364 86.7091 28.867 86.642 29.3703C86.4086 31.0941 86.4086 31.0941 86.1348 31.7411C84.5851 31.7411 83.0355 31.7411 81.4388 31.7411C81.6336 28.9405 82.0682 26.2103 82.5163 23.4524C83.044 20.0277 83.044 20.0277 82.2575 16.7411C81.5066 15.7341 80.7989 15.1724 79.6427 15.0295C79.0143 15.0128 78.3907 15.0222 77.7624 15.044C77.5451 15.048 77.3278 15.0519 77.104 15.056C76.5716 15.0663 76.0394 15.082 75.5071 15.0988C75.1448 16.0932 74.9107 17.0204 74.7564 18.0866C74.6909 18.5322 74.6909 18.5322 74.624 18.9868C74.5787 19.3041 74.5334 19.6214 74.4866 19.9482C74.4386 20.276 74.3905 20.6037 74.3409 20.9414C74.1877 21.9863 74.0363 23.0316 73.8852 24.0769C73.733 25.1263 73.5805 26.1757 73.4268 27.2248C73.3312 27.8774 73.2365 28.5302 73.1429 29.1832C73.1 29.4766 73.0571 29.77 73.0128 30.0723C72.9754 30.3317 72.9379 30.5912 72.8993 30.8586C72.7884 31.4491 72.7884 31.4491 72.5413 31.7411C72.1914 31.7664 71.8404 31.7724 71.4899 31.7696C71.2788 31.7687 71.0678 31.7677 70.8503 31.7668C70.6284 31.7643 70.4065 31.7619 70.1779 31.7594C69.955 31.758 69.7321 31.7567 69.5025 31.7554C68.9501 31.7519 68.3977 31.7471 67.8453 31.7411C68.2394 28.181 68.7617 24.6474 69.2866 21.1115C69.4369 20.0953 69.5846 19.0786 69.7323 18.0618C69.8288 17.4094 69.9255 16.757 70.0224 16.1047C70.0657 15.8039 70.109 15.503 70.1536 15.1931C70.7847 11.0022 70.7847 11.0022 71.9579 9.70701C73.002 9.14423 73.8211 9.09053 74.9549 9.10425Z" fill="#CECDCD"/>
<path d="M49.803 9.25928C51.4342 9.25928 53.0655 9.25928 54.7461 9.25928C54.5514 12.0599 54.1167 14.7901 53.6687 17.5479C53.3598 19.5559 53.1575 21.2645 53.5103 23.2739C54.0954 24.2218 54.4884 24.6299 55.4258 25.0075C57.5825 25.0564 59.2372 24.2094 60.8487 22.5519C62.3342 20.6212 62.5162 17.864 62.9022 15.3907C62.9951 14.8222 63.0884 14.2539 63.1822 13.6856C63.4251 12.2115 63.6575 10.7357 63.8908 9.25928C65.5221 9.25928 67.1533 9.25928 68.8339 9.25928C68.4504 13.0388 67.8863 16.7704 67.3007 20.5129C67.1347 21.5771 66.972 22.6418 66.8094 23.7067C66.7024 24.3939 66.5953 25.0811 66.4879 25.7682C66.4405 26.0812 66.3931 26.3943 66.3442 26.7168C65.6468 31.1113 64.4753 35.5502 61.3575 38.3765C58.473 40.5936 55.1611 40.9805 51.8266 40.2082C51.4809 40.1147 51.1355 40.0189 50.7916 39.9162C50.4397 38.7691 50.6059 37.6811 50.7453 36.5038C50.7761 36.2021 50.7761 36.2021 50.8076 35.8942C50.866 35.3823 50.9505 34.8747 51.0388 34.3688C51.7099 33.9724 52.0345 34.1922 52.7689 34.3688C56.0108 34.6321 56.0108 34.6321 58.9477 33.2009C59.9816 32.0759 60.299 30.6693 60.6778 29.1133C60.5316 29.233 60.3854 29.3527 60.2347 29.476C60.0394 29.6333 59.8441 29.7906 59.6429 29.9527C59.4508 30.1085 59.2586 30.2643 59.0607 30.4249C57.2939 31.7057 55.5206 31.6455 53.5103 31.4491C51.8424 30.9729 50.4238 29.7602 49.3087 28.2374C47.1837 24.0076 48.2089 19.2696 48.938 14.7337C49.0216 14.2012 49.1049 13.6685 49.188 13.1359C49.3898 11.8429 49.5965 10.5512 49.803 9.25928Z" fill="#CECDCD"/>
<path d="M38.2727 9.16103C38.4643 9.15908 38.6558 9.15714 38.8531 9.15514C39.2554 9.1522 39.6578 9.15081 40.0601 9.15091C40.673 9.14962 41.2856 9.13899 41.8985 9.12795C42.2912 9.12624 42.684 9.12508 43.0768 9.12453C43.2583 9.12034 43.4399 9.11614 43.6269 9.11182C44.8962 9.12504 45.6257 9.45809 46.5901 10.427C47.784 12.7178 46.9309 15.9539 46.5524 18.4197C46.4981 18.7836 46.4439 19.1475 46.3879 19.5224C46.2736 20.2862 46.1585 21.0498 46.042 21.8131C45.8926 22.7919 45.7458 23.7711 45.5999 24.7506C45.4601 25.6879 45.3188 26.625 45.1776 27.562C45.0984 28.0898 45.0984 28.0898 45.0176 28.6283C44.9682 28.952 44.9187 29.2757 44.8678 29.6092C44.8027 30.0376 44.8027 30.0376 44.7364 30.4745C44.6128 31.1569 44.6128 31.1569 44.3657 31.7409C42.816 31.7409 41.2663 31.7409 39.6697 31.7409C39.6697 30.9701 39.6697 30.1993 39.6697 29.4051C39.5292 29.5248 39.3887 29.6445 39.244 29.7678C37.2701 31.395 35.7639 31.9256 33.348 31.6428C31.3946 31.195 29.5559 30.12 28.3441 28.2155C27.6098 26.7949 26.9592 25.2374 26.8177 23.5657C26.7943 23.2992 26.7943 23.2992 26.7704 23.0274C26.6116 19.6864 27.8043 16.5049 29.5364 13.9306C31.926 10.8848 34.7384 9.17371 38.2727 9.16103ZM32.5409 17.7719C31.6585 19.434 31.5629 21.0641 31.7608 22.9817C32.1648 24.0028 32.1648 24.0028 32.7494 24.7336C32.8768 24.9082 33.0043 25.0828 33.1356 25.2628C34.2126 26.3138 35.8943 26.0367 37.1982 25.9014C38.8267 25.393 40.0199 24.0545 40.9055 22.3978C41.2694 21.3442 41.4774 20.3043 41.647 19.1861C41.6906 18.9212 41.7343 18.6562 41.7792 18.3832C41.9809 16.8773 41.9809 16.8773 41.5417 15.4635C40.6161 14.5077 39.8432 14.585 38.6502 14.6241C38.334 14.6305 38.334 14.6305 38.0114 14.6371C35.6568 14.7456 34.0379 15.5921 32.5409 17.7719Z" fill="#CECDCD"/>
<path d="M119.253 10.7188C121.151 12.2883 122.373 14.116 122.868 16.816C123.229 20.2169 122.426 23.154 120.736 25.9013C120.134 26.7042 120.134 26.7042 119.501 27.3612C119.383 27.4978 119.265 27.6344 119.143 27.7752C117.269 29.8561 114.884 31.1284 112.333 31.4488C112.157 31.4728 111.98 31.4969 111.798 31.5218C109.486 31.6807 107.274 30.8083 105.521 29.04C103.853 27.102 103.131 25.0273 103.096 22.2699C103.081 18.5299 104.422 15.8591 106.528 13.1595C109.636 9.6452 115.434 7.84641 119.253 10.7188ZM109.12 17.4342C108.322 18.869 107.702 20.4333 107.993 22.173C108.348 23.6406 108.714 24.5106 109.862 25.3174C111.128 26.1483 112.509 26.1441 113.89 25.7314C115.498 25.0133 116.549 23.7533 117.523 22.1057C118.112 20.5482 118.151 19.0692 117.77 17.4342C117.015 15.9276 116.217 15.3943 114.836 14.9433C112.666 14.378 110.55 15.4823 109.12 17.4342Z" fill="#CECDCD"/>
<path d="M131.41 0.481575C131.877 0.490608 131.877 0.490608 132.353 0.499823C132.045 3.64337 131.649 6.75211 131.17 9.8657C131.105 10.2948 131.039 10.7239 130.974 11.153C130.839 12.0413 130.704 12.9294 130.567 13.8174C130.393 14.954 130.22 16.0909 130.047 17.2278C129.881 18.3201 129.715 19.4122 129.548 20.5044C129.517 20.7108 129.485 20.9172 129.453 21.1299C129.364 21.7131 129.274 22.2962 129.185 22.8792C129.134 23.2101 129.084 23.5409 129.031 23.8817C128.921 24.5594 128.787 25.2318 128.645 25.9013C132.479 25.9013 136.312 25.9013 140.262 25.9013C139.964 28.0069 139.468 29.2858 138.099 30.6823C136.215 31.7951 134.276 31.8224 132.205 31.7977C131.806 31.7965 131.806 31.7965 131.4 31.7952C130.559 31.792 129.718 31.7847 128.877 31.7772C128.304 31.7743 127.73 31.7716 127.157 31.7692C125.758 31.7628 124.36 31.7531 122.961 31.7407C123.481 27.2438 124.134 22.7744 124.785 18.302C124.983 16.944 125.179 15.5857 125.371 14.2266C125.558 12.8997 125.75 11.5737 125.945 10.2483C126.018 9.74689 126.089 9.2452 126.159 8.74321C126.952 3.06472 126.952 3.06472 128.923 1.248C129.797 0.686921 130.43 0.462583 131.41 0.481575Z" fill="#CECDCD"/>
<path d="M8.31199 9.24092C8.63117 9.24575 8.63117 9.24575 8.95679 9.25068C9.14162 9.25348 9.32644 9.25628 9.51687 9.25916C9.36884 11.3003 9.12876 13.3019 8.82175 15.3176C8.75732 15.7467 8.75732 15.7467 8.69159 16.1846C8.60147 16.7833 8.5109 17.382 8.41988 17.9805C8.28029 18.8995 8.14254 19.8189 8.00498 20.7384C7.91691 21.322 7.82874 21.9056 7.74045 22.4891C7.69925 22.7643 7.65805 23.0395 7.6156 23.3231C7.57683 23.5767 7.53806 23.8302 7.49812 24.0915C7.46429 24.3148 7.43046 24.5381 7.3956 24.7682C7.29248 25.3176 7.29248 25.3176 7.04532 25.9015C10.8787 25.9015 14.7121 25.9015 18.6616 25.9015C18.4033 28.3422 18.1732 29.0585 16.6843 30.573C15.2028 31.6484 13.6209 31.7777 11.9218 31.7694C11.7535 31.769 11.5852 31.7686 11.4118 31.7682C10.8779 31.7666 10.3442 31.7629 9.81037 31.7592C9.44687 31.7577 9.08338 31.7564 8.71989 31.7552C7.83216 31.752 6.94443 31.7469 6.05671 31.7409C6.04317 31.9419 6.02963 32.1428 6.01568 32.3498C5.88882 34.1241 5.70911 35.8654 5.43882 37.6168C5.40664 37.8366 5.37446 38.0564 5.34131 38.2829C5.09995 39.8785 5.09995 39.8785 4.82093 40.2081C4.47104 40.2333 4.1201 40.2393 3.76956 40.2366C3.55849 40.2356 3.34742 40.2347 3.12995 40.2337C2.90805 40.2313 2.68615 40.2288 2.45752 40.2263C2.23466 40.225 2.0118 40.2237 1.78219 40.2223C1.22978 40.2189 0.677397 40.2141 0.125 40.2081C0.609767 36.7025 1.10656 33.1994 1.60793 29.6971C1.65628 29.3589 1.70463 29.0208 1.75445 28.6723C2.07493 26.4335 2.39863 24.1954 2.72557 21.958C2.83508 21.2059 2.94376 20.4538 3.05162 19.7014C3.20501 18.6327 3.36143 17.5648 3.51855 16.4968C3.58685 16.0143 3.58685 16.0143 3.65653 15.5221C3.9617 13.477 4.26763 11.693 5.70142 10.3358C5.84957 10.1924 5.99772 10.049 6.15036 9.90127C6.90116 9.24515 7.39035 9.22696 8.31199 9.24092Z" fill="#CECDCD"/>
<path d="M135.589 9.21202C135.902 9.20782 135.902 9.20782 136.222 9.20352C136.448 9.20228 136.674 9.20104 136.907 9.19976C137.255 9.19727 137.255 9.19727 137.611 9.19472C138.103 9.19196 138.595 9.19005 139.087 9.18893C139.839 9.1861 140.591 9.17704 141.342 9.16783C141.82 9.16592 142.299 9.16439 142.777 9.16327C143.001 9.15966 143.226 9.15606 143.457 9.15234C144.658 9.15733 145.467 9.20986 146.44 10.135C147.066 10.9795 147.425 11.6854 147.434 12.838C147.293 15.1461 147.025 17.4276 146.734 19.7153C146.696 20.0286 146.658 20.342 146.619 20.6649C146.248 23.4571 145.64 25.4082 143.761 27.221C142.944 27.8827 142.208 28.2223 141.25 28.5291C141.006 28.4328 140.761 28.3364 140.509 28.2372C140.564 27.8807 140.619 27.5241 140.675 27.1568C140.879 25.8342 141.077 24.5107 141.275 23.1868C141.361 22.614 141.449 22.0413 141.537 21.469C141.664 20.6462 141.787 19.8228 141.909 18.999C141.949 18.7432 141.989 18.4874 142.031 18.2238C142.066 17.9842 142.1 17.7447 142.136 17.4978C142.168 17.2878 142.2 17.0777 142.233 16.8613C142.279 16.1375 142.279 16.1375 141.745 15.0985C136.362 14.954 136.362 14.954 130.87 14.8065C131.604 11.3385 131.604 11.3385 132.784 10.3619C133.752 9.69907 134.479 9.22405 135.589 9.21202Z" fill="#CECDCD"/>
<path d="M15.5635 9.17142C15.9012 9.16954 15.9012 9.16954 16.2457 9.16762C16.7208 9.16595 17.1959 9.1658 17.671 9.16707C18.3957 9.16799 19.1201 9.16114 19.8447 9.15374C20.3074 9.15307 20.77 9.15287 21.2326 9.15317C21.5559 9.14913 21.5559 9.14913 21.8857 9.14502C23.1292 9.15612 24.0321 9.27274 25.0876 10.1351C26.3957 12.0878 25.8845 14.7404 25.6563 17.0626C25.5771 17.7344 25.4957 18.4058 25.412 19.0768C25.3752 19.4125 25.3384 19.7482 25.3005 20.0941C24.9877 22.6387 24.4563 24.8498 22.925 26.741C21.7726 27.6311 20.5601 28.5293 19.1559 28.5293C19.3729 25.8238 19.7994 23.1676 20.2116 20.4955C20.2663 20.132 20.3209 19.7684 20.3772 19.3938C20.4274 19.0665 20.4776 18.7392 20.5293 18.402C20.6442 17.3871 20.6574 16.4133 20.6388 15.3906C20.0745 15.0573 19.7405 15.0539 19.1128 15.0387C18.9001 15.0329 18.6873 15.0271 18.4682 15.0211C18.2382 15.0162 18.0083 15.0113 17.7714 15.0063C17.5363 15.0002 17.3011 14.9941 17.0587 14.9879C16.3058 14.9688 15.5528 14.9516 14.7998 14.9344C14.29 14.9218 13.7803 14.9091 13.2705 14.8962C12.0193 14.8649 10.7681 14.8353 9.51688 14.8067C9.71418 12.8372 10.1053 11.717 11.3551 10.3541C12.747 9.23116 13.9244 9.1694 15.5635 9.17142Z" fill="#CECDCD"/>
<path d="M149.653 28.5293C149.817 28.5293 149.98 28.5293 150.148 28.5293C150.229 29.2037 150.311 29.8782 150.395 30.5731C150.558 30.5731 150.721 30.5731 150.889 30.5731C150.726 30.9585 150.563 31.3439 150.395 31.741C150.313 31.0665 150.232 30.3921 150.148 29.6972C149.985 29.6972 149.821 29.6972 149.653 29.6972C149.653 30.2753 149.653 30.8534 149.653 31.449C149.409 31.5935 149.409 31.5935 149.159 31.741C149.194 31.315 149.23 30.8893 149.267 30.4636C149.287 30.2265 149.307 29.9894 149.328 29.7451C149.406 29.1132 149.406 29.1132 149.653 28.5293Z" fill="#CECDCD"/>
<path d="M147.182 28.5293C147.753 28.5293 148.324 28.5293 148.912 28.5293C148.667 28.6256 148.423 28.722 148.171 28.8213C148.158 29.0076 148.146 29.1939 148.134 29.3858C148.115 29.6271 148.097 29.8683 148.078 30.1169C148.052 30.4776 148.052 30.4776 148.026 30.8457C147.992 31.0448 147.958 31.2439 147.923 31.449C147.679 31.5935 147.679 31.5935 147.429 31.741C147.453 31.5581 147.476 31.3751 147.5 31.1867C147.528 30.9481 147.555 30.7095 147.584 30.4636C147.612 30.2265 147.641 29.9894 147.67 29.7451C147.672 29.5366 147.674 29.3281 147.676 29.1132C147.513 28.9205 147.35 28.7278 147.182 28.5293Z" fill="#CECDCD"/>
<path d="M151.631 28.5293C151.794 28.5293 151.957 28.5293 152.125 28.5293C152.043 29.5892 151.962 30.649 151.878 31.741C151.796 31.741 151.715 31.741 151.631 31.741C151.631 30.6704 151.631 29.5999 151.631 28.5293Z" fill="#CECDCD"/>
</g>
<defs>
<clipPath id="clip0_36_1192">
<rect width="152" height="40" fill="white" transform="translate(0.125 0.5)"/>
</clipPath>
</defs>
</svg>
