<svg width="181" height="33" viewBox="0 0 181 33" fill="none" xmlns="http://www.w3.org/2000/svg">
<g clip-path="url(#clip0_36_1179)">
<path d="M43.2175 6.41676C45.7286 8.76043 47.3105 12.1774 47.8792 16.0991C48.2696 19.9397 47.6173 23.8045 45.8867 26.9836C43.9599 30.1868 41.4086 32.4319 38.2569 33.0001C35.0791 33.3236 32.0348 32.4971 29.4976 29.8795C26.9569 27.0673 25.5972 23.4917 25.267 19.2C25.1574 15.3817 26.2214 11.4566 28.2027 8.62249C32.2348 3.14639 38.3442 2.24495 43.2175 6.41676Z" fill="#CECDCD"/>
<path d="M110.738 8.65008C111.883 9.63517 112.683 10.6864 113.198 12.3749C113.198 12.6774 113.198 12.9799 113.198 13.2916C113.315 13.2916 113.432 13.2916 113.552 13.2916C113.601 13.0151 113.601 13.0151 113.652 12.733C114.297 10.6642 115.402 9.35623 116.961 8.48716C118.715 7.68105 120.624 7.71261 122.339 8.65098C123.766 9.61143 124.488 11.022 124.989 12.9886C125.101 13.7398 125.091 14.4828 125.088 15.2447C125.088 15.4169 125.088 15.5892 125.088 15.7666C125.088 16.3345 125.087 16.9024 125.085 17.4703C125.085 17.8646 125.085 18.2589 125.084 18.6533C125.084 19.6901 125.082 20.7269 125.08 21.7637C125.078 22.822 125.077 23.8804 125.077 24.9388C125.075 27.0148 125.072 29.0907 125.068 31.1666C123.431 31.1666 121.794 31.1666 120.107 31.1666C120.1 29.7136 120.1 29.7136 120.093 28.2313C120.088 27.4542 120.082 26.6771 120.075 25.8999C120.068 25.0822 120.062 24.2646 120.059 23.4468C120.056 22.5064 120.047 21.5662 120.038 20.6258C120.038 20.1907 120.038 20.1907 120.037 19.7467C120.017 18.1492 119.949 16.7001 119.221 15.3541C118.379 14.476 117.51 14.3066 116.446 14.3596C115.884 14.4654 115.453 14.7494 114.969 15.1249C114.853 15.1249 114.736 15.1249 114.615 15.1249C114.11 16.3379 113.864 17.4558 113.85 18.8349C113.846 19.1101 113.843 19.3853 113.839 19.6688C113.837 19.9625 113.835 20.2561 113.833 20.5587C113.83 20.865 113.826 21.1713 113.823 21.4776C113.814 22.2801 113.807 23.0825 113.8 23.885C113.793 24.7054 113.784 25.5257 113.775 26.346C113.758 27.9529 113.743 29.5597 113.729 31.1666C113.001 31.1723 112.272 31.1764 111.544 31.1792C111.296 31.1803 111.048 31.1819 110.8 31.1839C110.444 31.1867 110.088 31.1878 109.733 31.189C109.518 31.1902 109.304 31.1914 109.083 31.1926C108.592 31.1666 108.592 31.1666 108.414 30.9374C108.395 30.5088 108.388 30.0793 108.386 29.65C108.385 29.3746 108.383 29.0992 108.381 28.8154C108.38 28.5151 108.378 28.2148 108.377 27.9055C108.375 27.5957 108.372 27.2859 108.37 26.9761C108.359 25.6581 108.349 24.34 108.343 23.022C108.34 22.2163 108.333 21.4107 108.325 20.6051C108.322 20.1499 108.321 19.6947 108.32 19.2395C108.317 18.9605 108.314 18.6815 108.311 18.394C108.31 18.1494 108.308 17.9048 108.307 17.6528C108.196 16.5494 107.891 15.8052 107.263 15.0533C106.351 14.2575 105.403 14.329 104.34 14.4374C103.501 14.8122 103.029 15.2899 102.568 16.2708C102.144 17.9205 102.153 19.6218 102.14 21.342C102.137 21.6239 102.133 21.9058 102.13 22.1963C102.119 23.0905 102.111 23.9846 102.103 24.8788C102.096 25.4877 102.089 26.0966 102.082 26.7055C102.065 28.1925 102.051 29.6795 102.036 31.1666C100.341 31.1666 98.6455 31.1666 96.8986 31.1666C96.8986 23.6797 96.8986 16.1929 96.8986 8.4791C98.6526 8.4791 100.406 8.4791 102.214 8.4791C102.301 10.4075 102.301 10.4075 102.391 12.3749C102.588 11.9874 102.785 11.5998 102.989 11.2005C104.664 8.21544 108.118 6.7976 110.738 8.65008Z" fill="#CECDCD"/>
<path d="M18.3736 6.70719C19.6737 8.02927 20.6355 9.57738 21.4262 11.4583C21.5512 11.741 21.5512 11.741 21.6788 12.0294C22.9908 15.1632 23.309 19.0004 22.5667 22.4439C21.6759 25.6046 19.7482 29.3473 17.3514 30.9374C16.7874 30.8344 16.4736 30.5857 16.0545 30.0986C15.946 29.9744 15.8375 29.8501 15.7257 29.7221C15.6117 29.5891 15.4978 29.456 15.3804 29.3189C15.1407 29.0444 14.9008 28.7702 14.6607 28.4963C14.5444 28.3634 14.4282 28.2305 14.3084 28.0935C13.7738 27.4906 13.217 26.9261 12.66 26.3586C12.0212 25.6963 11.3995 25.009 10.7761 24.3228C10.168 23.6544 9.55502 22.9952 8.93602 22.3437C8.21615 21.586 7.50577 20.8156 6.79897 20.0377C5.99442 19.1526 5.17858 18.2907 4.35049 17.4426C3.68174 16.7441 3.02785 16.0235 2.37468 15.3008C1.88616 14.7618 1.39446 14.2385 0.875 13.7499C1.57523 10.2967 3.68085 7.43702 6.0121 5.62257C10.0468 2.95539 14.6744 3.27912 18.3736 6.70719Z" fill="#CECDCD"/>
<path d="M91.9414 9.13077C93.2844 10.974 93.7397 12.9879 93.7297 15.4788C93.7298 15.6488 93.7298 15.8189 93.7298 15.9941C93.7297 16.5533 93.7283 17.1125 93.7269 17.6717C93.7266 18.0606 93.7264 18.4494 93.7262 18.8383C93.7255 19.8596 93.7238 20.8809 93.7218 21.9023C93.72 22.9453 93.7192 23.9884 93.7183 25.0314C93.7164 27.0765 93.7133 29.1215 93.7096 31.1666C92.0142 31.1666 90.3187 31.1666 88.5718 31.1666C88.5134 29.7297 88.4549 28.2928 88.3947 26.8124C88.022 27.2047 87.6492 27.597 87.2652 28.0012C85.107 30.2116 82.7099 31.5579 79.8907 31.1666C78.3178 30.7983 76.9637 29.8626 75.9267 28.2734C74.9671 26.4513 74.8211 24.3698 75.0055 22.2255C75.2862 20.3389 76.0415 19.2122 77.2111 18.0611C79.6114 16.2603 82.6336 16.8977 85.2057 17.6457C85.6689 17.819 86.1251 18.009 86.5829 18.2043C87.252 18.423 87.8855 18.3762 88.5718 18.3332C88.5312 17.7119 88.4863 17.0918 88.439 16.4713C88.4225 16.2098 88.4225 16.2098 88.4057 15.9431C88.3115 14.7641 88.122 13.9897 87.5088 13.0624C86.5266 12.2543 85.4632 11.9549 84.3199 12.1457C83.1684 12.6733 82.1652 13.5763 81.4852 14.8957C80.5528 14.5435 79.9428 13.7556 79.2374 12.9335C79.0008 12.6607 78.7639 12.3882 78.5267 12.1162C78.4229 11.9955 78.319 11.8748 78.212 11.7505C77.9438 11.4374 77.9438 11.4374 77.5876 11.2291C77.7351 9.78141 78.3559 8.96479 79.1821 8.02075C80.2905 7.11477 81.4369 6.48797 82.7254 6.18741C82.84 6.15965 82.9547 6.13188 83.0728 6.10327C86.0612 5.51409 89.6664 6.44416 91.9414 9.13077ZM79.3592 21.0832C79.2381 23.403 79.2381 23.403 80.0679 24.9791C81.3527 26.2602 82.5563 26.2928 84.1427 26.1249C86.116 25.508 87.1372 24.0072 88.167 21.8379C88.4091 21.3795 88.4091 21.3795 88.3947 21.0832C85.413 21.0832 82.4313 21.0832 79.3592 21.0832Z" fill="#CECDCD"/>
<path d="M178.918 8.84369C180.148 10.3177 180.81 12.2124 180.918 14.3838C180.919 14.6969 180.918 15.0099 180.915 15.323C180.915 15.4953 180.915 15.6677 180.915 15.8452C180.915 16.4094 180.912 16.9735 180.91 17.5377C180.909 17.931 180.908 18.3244 180.908 18.7177C180.907 19.7488 180.903 20.78 180.899 21.8111C180.896 22.8649 180.894 23.9188 180.892 24.9726C180.888 27.0374 180.882 29.1021 180.875 31.1669C179.18 31.1669 177.484 31.1669 175.737 31.1669C175.679 29.73 175.62 28.2931 175.56 26.8127C175.253 27.1625 174.946 27.5122 174.63 27.8726C172.602 30.0925 170.21 31.3446 167.523 31.2331C165.794 30.9876 164.458 30.0468 163.267 28.4204C162.141 26.6003 162.105 24.4411 162.234 22.2071C162.365 20.7331 162.841 19.8123 163.668 18.8205C165.301 17.145 167.303 16.7217 169.359 16.9585C170.86 17.2151 172.31 17.5908 173.748 18.2046C174.417 18.4233 175.051 18.3765 175.737 18.3335C175.697 17.7121 175.652 17.0921 175.604 16.4715C175.588 16.2101 175.588 16.2101 175.571 15.9434C175.477 14.7644 175.287 13.9899 174.674 13.0627C173.692 12.2546 172.629 11.9552 171.485 12.146C170.525 12.5784 169.862 13.2278 169.182 14.2085C169.005 14.4377 168.828 14.6669 168.651 14.896C167.918 14.5791 167.462 14.1451 166.901 13.4637C166.749 13.2809 166.596 13.098 166.439 12.9096C166.292 12.7332 166.145 12.5569 165.993 12.3752C165.583 11.9115 165.168 11.4558 164.753 11.0002C165.07 9.54219 165.849 8.46448 166.796 7.62177C170.435 5.02236 175.654 5.40735 178.918 8.84369ZM166.525 21.0835C166.46 23.3115 166.46 23.3115 167.233 24.9794C168.5 26.2765 169.735 26.2895 171.308 26.1252C172.791 25.6797 173.957 24.6131 174.821 22.9992C175.316 22.0993 175.316 22.0993 175.56 21.0835C172.578 21.0835 169.597 21.0835 166.525 21.0835Z" fill="#CECDCD"/>
<path d="M144.423 8.75146C145.732 10.4829 146.387 12.4668 146.368 14.8807C146.368 15.0574 146.368 15.2342 146.368 15.4164C146.368 15.9967 146.365 16.5769 146.362 17.1572C146.362 17.5612 146.361 17.9651 146.361 18.369C146.359 19.4292 146.356 20.4893 146.352 21.5495C146.348 22.6325 146.347 23.7155 146.345 24.7985C146.341 26.9213 146.335 29.0441 146.328 31.1668C145.625 31.1725 144.921 31.1766 144.218 31.1794C143.979 31.1806 143.739 31.1821 143.5 31.1841C143.156 31.1869 142.813 31.1881 142.47 31.1892C142.159 31.191 142.159 31.191 141.843 31.1928C141.367 31.1668 141.367 31.1668 141.19 30.9377C141.162 30.6305 141.146 30.3218 141.134 30.0129C141.126 29.8276 141.119 29.6422 141.111 29.4512C141.104 29.2564 141.097 29.0616 141.09 28.8608C141.083 28.6651 141.075 28.4694 141.067 28.2678C141.048 27.7828 141.03 27.2977 141.013 26.8127C140.888 26.9595 140.763 27.1063 140.635 27.2576C138.831 29.3012 136.915 30.9082 134.458 31.1668C134.221 31.1947 134.221 31.1947 133.979 31.2232C132.233 31.3297 130.746 30.747 129.408 29.2762C128.169 27.7139 127.704 26.1204 127.681 23.9051C127.7 21.7711 127.988 20.2965 129.142 18.7283C130.531 17.1835 132.596 16.849 134.376 16.9155C136.017 17.0772 137.515 17.4785 139.076 18.1455C139.755 18.3912 140.313 18.4045 141.013 18.3335C141.136 15.8158 141.136 15.8158 140.481 13.521C139.706 12.5182 138.942 12.2077 137.868 12.0457C136.777 12.089 135.774 12.757 134.995 13.7251C134.744 14.1017 134.51 14.4973 134.281 14.896C133.498 14.6978 133.027 14.131 132.442 13.4637C132.245 13.2428 132.048 13.022 131.851 12.8013C131.756 12.693 131.66 12.5847 131.561 12.4732C131.115 11.9735 130.66 11.487 130.206 11.0002C130.739 8.98773 131.864 7.99237 133.28 7.05867C136.914 4.99891 141.193 5.93904 144.423 8.75146ZM131.977 21.0835C131.95 23.1634 131.95 23.1634 132.75 24.8594C133.829 26.0895 134.79 26.2193 136.18 26.1789C137.92 26.0179 138.952 25.0168 140.127 23.3752C140.772 22.3314 140.772 22.3314 141.013 21.0835C138.031 21.0835 135.049 21.0835 131.977 21.0835Z" fill="#CECDCD"/>
<path d="M61.6427 0C63.5136 0 65.3844 0 67.312 0C67.312 2.19312 67.312 4.38625 67.312 6.64583C68.8321 6.34333 70.3522 6.04083 71.9183 5.72917C72.2934 6.86136 72.5871 7.86557 72.8373 9.03776C72.8983 9.32106 72.9593 9.60436 73.0221 9.89624C73.0671 10.1092 73.1121 10.3222 73.1585 10.5417C72.4538 10.9525 71.7974 11.1257 71.0325 11.2578C70.8205 11.2962 70.6086 11.3346 70.3902 11.3742C69.368 11.5159 68.3385 11.4743 67.312 11.4583C67.3239 12.9219 67.3399 14.3854 67.3585 15.8489C67.3644 16.3461 67.3693 16.8433 67.3734 17.3405C67.3794 18.058 67.3886 18.7752 67.3985 19.4926C67.3996 19.7125 67.4008 19.9325 67.4019 20.1591C67.4288 21.7752 67.5421 23.3919 68.4193 24.6211C69.5626 25.4614 70.5885 25.4947 71.9183 25.6667C71.9183 27.4817 71.9183 29.2967 71.9183 31.1667C65.4409 31.332 65.4409 31.332 63.377 28.8652C62.0605 27.0792 61.6182 25.2079 61.6226 22.7494C61.6226 22.4971 61.6226 22.2449 61.6226 21.985C61.6235 21.7164 61.6245 21.4478 61.6254 21.1711C61.6257 20.8932 61.6259 20.6154 61.6262 20.3292C61.6272 19.4443 61.6294 18.5594 61.6316 17.6745C61.6325 17.0735 61.6333 16.4725 61.6341 15.8716C61.636 14.4005 61.639 12.9294 61.6427 11.4583C61.5363 11.4665 61.4299 11.4746 61.3203 11.483C60.8409 11.519 60.3615 11.5531 59.8821 11.5872C59.6309 11.6065 59.6309 11.6065 59.3745 11.6262C59.1356 11.6428 59.1356 11.6428 58.8918 11.6597C58.7443 11.6705 58.5968 11.6814 58.4448 11.6925C58.0994 11.6875 58.0994 11.6875 57.9222 11.4583C57.9047 11.12 57.8991 10.7805 57.8987 10.4414C57.8985 10.2364 57.8982 10.0314 57.898 9.82015C57.899 9.49668 57.899 9.49668 57.9001 9.16667C57.8994 8.95102 57.8987 8.73537 57.898 8.51318C57.8982 8.30817 57.8985 8.10315 57.8987 7.89193C57.899 7.60789 57.899 7.60789 57.8993 7.31811C57.9222 6.875 57.9222 6.875 58.0994 6.64583C58.3631 6.62597 58.6276 6.6213 58.8918 6.62345C59.0352 6.62403 59.1787 6.6246 59.3264 6.62519C59.5098 6.62727 59.6932 6.62936 59.8821 6.63151C60.4631 6.63624 61.0441 6.64096 61.6427 6.64583C61.6427 4.45271 61.6427 2.25958 61.6427 0Z" fill="#CECDCD"/>
<path d="M161.387 8.02094C161.387 10.1384 161.387 12.2559 161.387 14.4376C160.897 14.4896 160.408 14.5416 159.903 14.5952C158.117 14.8307 156.749 15.3584 155.568 17.201C154.897 18.6575 154.949 20.1686 154.935 21.8121C154.932 22.0798 154.929 22.3474 154.925 22.6232C154.915 23.4754 154.906 24.3276 154.898 25.1798C154.891 25.7587 154.884 26.3376 154.877 26.9164C154.86 28.3332 154.845 29.75 154.832 31.1668C154.128 31.1724 153.425 31.1766 152.722 31.1794C152.483 31.1805 152.243 31.1821 152.004 31.1841C151.66 31.1868 151.317 31.188 150.973 31.1892C150.663 31.191 150.663 31.191 150.347 31.1928C149.871 31.1668 149.871 31.1668 149.694 30.9376C149.677 30.24 149.672 29.5476 149.674 28.85C149.674 28.6309 149.674 28.4118 149.674 28.1861C149.674 27.4582 149.675 26.7303 149.677 26.0025C149.677 25.4993 149.677 24.9961 149.677 24.4929C149.678 23.1656 149.68 21.8383 149.682 20.511C149.684 19.1578 149.684 17.8046 149.685 16.4513C149.687 13.794 149.69 11.1366 149.694 8.47927C151.389 8.47927 153.085 8.47927 154.832 8.47927C154.832 9.68927 154.832 10.8993 154.832 12.1459C155.241 12.2216 155.65 12.2972 156.072 12.3751C156.112 12.1813 156.152 11.9875 156.194 11.7879C156.637 10.2864 157.261 9.24204 158.375 8.47927C159.398 7.98881 160.271 8.02094 161.387 8.02094Z" fill="#CECDCD"/>
</g>
<defs>
<clipPath id="clip0_36_1179">
<rect width="180" height="33" fill="white" transform="translate(0.875)"/>
</clipPath>
</defs>
</svg>
