<svg width="124" height="49" viewBox="0 0 124 49" fill="none" xmlns="http://www.w3.org/2000/svg">
<g clip-path="url(#clip0_36_1205)">
<path d="M17.5869 1.8208C20.8224 1.8208 24.0578 1.8208 27.3913 1.8208C28.6694 4.09967 28.6694 4.09967 29.187 5.28357C29.2461 5.41656 29.3053 5.54954 29.3662 5.68655C29.4926 5.97096 29.6186 6.25548 29.7441 6.5401C30.085 7.31251 30.4296 8.08402 30.7737 8.85563C30.8443 9.01415 30.915 9.17268 30.9877 9.33601C32.0225 11.6558 33.0926 13.9668 34.1598 16.2785C34.5645 17.1553 34.9672 18.0327 35.3686 18.9104C35.6387 19.5011 35.9093 20.0917 36.1799 20.6823C36.3085 20.9633 36.437 21.2444 36.5651 21.5255C36.7413 21.9119 36.9184 22.298 37.0955 22.6841C37.1478 22.7993 37.2001 22.9144 37.254 23.0331C37.4597 23.5599 37.4597 23.5599 37.8641 24.0032C37.9032 23.9179 37.9422 23.8326 37.9824 23.7447C38.1033 23.4807 38.2241 23.2166 38.3449 22.9526C38.491 22.6334 38.6371 22.3143 38.7831 21.9951C39.201 21.0821 39.6188 20.1692 40.0368 19.2562C40.9103 17.3483 41.7829 15.4402 42.6531 13.5315C44.4382 9.61816 46.2494 5.71365 48.1141 1.8208C51.3496 1.8208 54.585 1.8208 57.9185 1.8208C57.9185 11.8178 57.9185 21.8148 57.9185 32.1147C54.8301 32.1147 51.7417 32.1147 48.5598 32.1147C48.4862 27.2528 48.4127 22.3909 48.3369 17.3816C47.7763 18.5595 47.2156 19.7375 46.6379 20.9511C45.3537 23.6462 44.0653 26.3403 42.7663 29.0315C42.6993 29.1704 42.6324 29.3094 42.5634 29.4525C42.376 29.8412 42.1883 30.2298 42.0003 30.6184C41.9453 30.7327 41.8902 30.847 41.8335 30.9647C41.455 31.7455 41.455 31.7455 41.2065 32.1147C38.927 32.1147 36.6475 32.1147 34.2989 32.1147C33.9895 31.4573 33.6802 30.7998 33.3615 30.1224C33.1067 29.5812 32.8519 29.04 32.5971 28.4988C32.3325 27.9369 32.068 27.375 31.8037 26.813C31.5467 26.2666 31.2895 25.7203 31.0322 25.174C30.8916 24.8753 30.7511 24.5767 30.6107 24.2781C29.4743 21.8659 28.3189 19.4591 27.1685 17.0505C27.0949 22.0217 27.0214 26.9929 26.9456 32.1147C23.8573 32.1147 20.7689 32.1147 17.5869 32.1147C17.5869 22.1177 17.5869 12.1207 17.5869 1.8208Z" fill="#CECDCD"/>
<path d="M119.502 12.2812C122.286 14.2915 123.249 16.5773 123.875 19.3684C123.875 20.7342 123.875 22.0999 123.875 23.507C117.331 23.507 110.786 23.507 104.043 23.507C105.128 25.5436 105.128 25.5436 107.394 26.6917C109.389 27.2663 112.228 27.2 114.233 26.6593C115.831 26.114 117.125 25.4688 118.304 24.5002C118.974 24.722 119.418 24.9635 119.92 25.3589C120.633 25.9059 121.382 26.4079 122.159 26.9038C122.444 27.0879 122.717 27.2818 122.984 27.4799C122.879 28.5215 121.967 29.1203 120.978 29.7975C116.906 32.1793 111.902 32.8242 106.824 32.3991C103.37 31.9946 100.256 30.8277 98.1384 28.727C96.002 26.5093 95.2633 24.0937 95.2836 21.3963C95.2847 21.2229 95.2858 21.0494 95.2869 20.8708C95.3527 17.617 96.5946 15.0023 99.5573 12.5709C104.666 8.92196 114.192 8.96798 119.502 12.2812ZM105.603 16.3887C104.615 17.3697 104.23 18.1528 103.821 19.3684C107.718 19.3684 111.615 19.3684 115.63 19.3684C115.419 17.7994 115.161 16.9244 113.625 15.9128C111.182 14.6271 107.733 14.7987 105.603 16.3887Z" fill="#CECDCD"/>
<path d="M80.8696 0C83.5903 0 86.311 0 89.1141 0C89.1174 0.813064 89.1206 1.62613 89.124 2.46383C89.1352 5.14643 89.15 7.82901 89.1667 10.5116C89.1767 12.1385 89.1855 13.7653 89.1913 15.3922C89.1965 16.8101 89.2039 18.228 89.2141 19.6459C89.2195 20.3967 89.2236 21.1476 89.225 21.8984C89.2264 22.6051 89.2308 23.3118 89.2376 24.0184C89.2396 24.2778 89.2404 24.5372 89.24 24.7966C89.2397 25.1509 89.2434 25.505 89.2481 25.8592C89.2491 26.0574 89.2502 26.2556 89.2512 26.4599C89.3461 27.0388 89.5256 27.3523 90.0054 27.8108C91.7578 28.2448 93.422 27.8783 95.1304 27.4797C95.3543 27.9968 95.5767 28.5142 95.7989 29.0317C95.8627 29.1789 95.9265 29.3262 95.9922 29.4779C96.0525 29.6187 96.1128 29.7595 96.1749 29.9046C96.231 30.0347 96.287 30.1647 96.3447 30.2987C96.4674 30.625 96.4674 30.625 96.4674 30.9561C95.9906 31.1445 95.5125 31.3303 95.033 31.5148C94.901 31.5673 94.769 31.6198 94.633 31.6739C92.8594 32.3503 91.1033 32.5075 89.1281 32.4977C88.9321 32.4967 88.7361 32.4958 88.5342 32.4949C86.257 32.4631 84.3959 32.0979 82.6522 30.9561C81.3195 29.7922 80.813 28.6233 80.816 27.0934C80.8156 26.9768 80.8152 26.8603 80.8148 26.7401C80.8141 26.3525 80.8165 25.965 80.819 25.5773C80.8191 25.2983 80.819 25.0192 80.8188 24.7402C80.8187 23.9847 80.8213 23.2293 80.8244 22.4738C80.8272 21.6836 80.8274 20.8933 80.828 20.103C80.8293 18.6074 80.833 17.1119 80.8375 15.6163C80.8425 13.9133 80.8449 12.2103 80.8471 10.5072C80.8518 7.00481 80.86 3.50241 80.8696 0Z" fill="#CECDCD"/>
<path d="M7.6712 8.30825C8.77618 8.9034 9.51125 9.47978 10.0109 10.4292C10.1108 11.0515 10.1091 11.6701 10.108 12.2963C10.1102 12.483 10.1125 12.6696 10.1148 12.8619C10.1211 13.4782 10.1224 14.0944 10.1232 14.7107C10.1253 15.1399 10.1276 15.5692 10.1299 15.9984C10.1339 16.8981 10.1352 17.7977 10.1347 18.6973C10.1343 19.7344 10.1414 20.7713 10.152 21.8083C10.1618 22.809 10.1641 23.8097 10.1637 24.8105C10.1645 25.2348 10.1675 25.6591 10.1727 26.0834C10.1792 26.6778 10.1773 27.2718 10.1733 27.8662C10.177 28.0404 10.1808 28.2145 10.1846 28.394C10.164 29.599 9.76103 30.3832 8.67391 31.2873C7.64794 31.9455 6.4359 32.1504 5.1087 32.115C3.53753 31.9613 2.62346 31.5547 1.62704 30.6472C1.06558 30.0002 0.819611 29.4277 0.815413 28.6593C0.813512 28.5013 0.811611 28.3433 0.809653 28.1805C0.809855 28.0091 0.810057 27.8377 0.810265 27.6611C0.808768 27.479 0.807271 27.297 0.805729 27.1094C0.801496 26.5076 0.800625 25.9058 0.800146 25.304C0.798714 24.8852 0.797215 24.4665 0.795651 24.0477C0.792983 23.1698 0.792138 22.2918 0.792421 21.4139C0.792689 20.4014 0.78799 19.389 0.780949 18.3765C0.774402 17.4001 0.772819 16.4237 0.773084 15.4473C0.772559 15.033 0.770591 14.6187 0.767143 14.2044C0.762767 13.6244 0.764061 13.0444 0.766744 12.4643C0.76424 12.2939 0.761736 12.1235 0.759155 11.948C0.772459 10.8134 1.00511 9.86506 2.08881 9.01853C3.71658 7.9646 5.62181 7.79168 7.6712 8.30825Z" fill="#CECDCD"/>
<path d="M65.4946 10.4292C68.2888 10.4292 71.083 10.4292 73.962 10.4292C73.962 17.5855 73.962 24.7418 73.962 32.115C71.1677 32.115 68.3735 32.115 65.4946 32.115C65.4946 24.9587 65.4946 17.8024 65.4946 10.4292Z" fill="#CECDCD"/>
<path d="M72.0401 1.56233C73.2382 2.07892 73.9786 3.01673 74.4076 3.97302C74.5457 4.97279 74.454 5.91627 73.7391 6.7872C72.7978 7.58737 71.8409 8.12909 70.3968 8.27707C68.7647 8.28884 67.485 8.07957 66.2814 7.21399C65.2061 6.31288 64.9571 5.56086 64.9924 4.38622C65.1219 3.43982 65.7055 2.65756 66.6087 1.98653C68.1709 1.12664 70.2497 1.00938 72.0401 1.56233Z" fill="#CECDCD"/>
<path d="M7.86617 0.238052C8.9063 0.706862 9.58081 1.30672 10.0109 2.15212C10.2068 3.20567 10.3197 4.35898 9.63485 5.32842C8.91694 5.97709 8.16739 6.47265 7.11413 6.78725C6.39169 6.83704 6.39169 6.83704 5.5822 6.83898C5.31622 6.84176 5.05024 6.84453 4.7762 6.84739C3.36409 6.73874 2.44431 6.25877 1.54348 5.46293C0.790633 4.49861 0.684894 3.5861 0.875003 2.4832C1.27166 1.49926 1.98267 0.908824 3.10326 0.331169C4.56428 -0.186039 6.36318 -0.233111 7.86617 0.238052Z" fill="#CECDCD"/>
<path d="M110.575 41.7681C110.855 41.7879 111.134 41.8078 111.422 41.8282C111.634 41.8459 111.847 41.8636 112.065 41.8819C112.252 42.2851 112.438 42.6886 112.622 43.0924C112.702 43.2638 112.702 43.2638 112.783 43.4387C113.008 43.9328 113.179 44.3363 113.179 44.8616C113.326 44.8616 113.473 44.8616 113.625 44.8616C113.648 44.7046 113.671 44.5475 113.695 44.3857C114.078 42.3733 114.078 42.3733 114.739 41.8819C115.334 41.8585 115.926 41.8749 116.522 41.8819C116.028 43.1517 115.47 44.4015 114.878 45.6479C114.795 45.8295 114.712 46.0111 114.626 46.1982C114.094 47.3148 113.624 48.2688 112.204 48.907C111.442 49.0283 110.819 48.9452 110.06 48.8346C110.06 48.5068 110.06 48.179 110.06 47.8413C110.303 47.8311 110.547 47.8209 110.798 47.8103C111.632 47.7351 111.632 47.7351 112.065 47.3137C112.556 46.2873 111.79 45.2604 111.271 44.3029C111.198 44.1653 111.125 44.0276 111.049 43.8858C110.869 43.5486 110.688 43.2117 110.505 42.8751C109.094 42.9868 109.094 42.9868 108.05 43.6317C107.785 44.3203 107.707 44.9556 107.678 45.6686C107.671 45.7984 107.663 45.9281 107.655 46.0618C107.637 46.379 107.622 46.6963 107.609 47.0136C107.094 47.0136 106.579 47.0136 106.049 47.0136C106.049 45.3202 106.049 43.6267 106.049 41.8819C106.564 41.8819 107.078 41.8819 107.609 41.8819C107.682 41.9911 107.756 42.1004 107.832 42.213C108.057 42.0884 108.057 42.0884 108.287 41.9614C109.125 41.6497 109.65 41.6974 110.575 41.7681Z" fill="#CECDCD"/>
<path d="M70.6196 39.8955C75.0761 39.8955 75.0761 39.8955 76.6359 40.5577C77.5781 41.3797 77.7702 42.4906 77.75 43.5374C77.6197 44.585 77.4602 45.4748 76.6359 46.3516C74.7441 47.3606 73.1053 47.0138 70.6196 47.0138C70.6196 44.6647 70.6196 42.3157 70.6196 39.8955ZM72.4022 41.0543C72.4022 42.6385 72.4022 44.2227 72.4022 45.855C74.2877 46.0091 74.2877 46.0091 75.0761 45.4618C75.7934 44.7624 75.7853 44.2468 75.7863 43.3926C75.7891 43.2733 75.7918 43.154 75.7946 43.0311C75.8007 42.1537 75.8007 42.1537 75.2989 41.3854C74.4553 40.9012 74.4553 40.9012 72.4022 41.0543Z" fill="#CECDCD"/>
<path d="M103.431 41.9334C104.32 42.3387 104.618 42.515 104.977 43.2577C105.158 43.8681 105.158 43.8681 105.158 44.8613C103.613 44.8613 102.069 44.8613 100.478 44.8613C101.007 45.7288 101.007 45.7288 101.913 45.8546C102.796 45.8546 102.948 45.7573 103.598 45.358C104.071 45.3683 104.071 45.3683 104.489 45.5235C104.768 45.8649 104.768 45.8649 104.935 46.1857C103.996 46.8603 103.094 47.0996 101.815 47.1789C100.981 47.1457 100.32 47.0341 99.6818 46.6209C98.6933 45.7771 98.6307 45.0594 98.6478 43.9884C98.735 43.1657 99.1191 42.7121 99.9212 42.161C101.055 41.5925 102.169 41.5549 103.431 41.9334ZM100.715 43.1749C100.43 43.5444 100.43 43.5444 100.478 44.0336C101.434 44.0336 102.39 44.0336 103.375 44.0336C103.265 43.2289 103.265 43.2289 102.707 42.8749C101.609 42.767 101.609 42.767 100.715 43.1749Z" fill="#CECDCD"/>
<path d="M83.2789 41.9748C84.1108 42.377 84.3866 42.8266 84.6576 43.5371C84.6576 43.9742 84.6576 44.4112 84.6576 44.8615C83.1134 44.8615 81.5692 44.8615 79.9783 44.8615C80.5064 45.7267 80.5064 45.7267 81.3988 45.8547C82.2966 45.8547 82.5811 45.6996 83.3207 45.3581C83.8359 45.4926 83.8359 45.4926 84.212 45.6892C84.212 46.3513 84.212 46.3513 83.7663 46.7134C82.7676 47.1617 81.9145 47.2552 80.786 47.1118C79.9028 46.9305 79.3998 46.7509 78.7527 46.2582C78.0756 45.1054 78.026 44.0375 78.6361 42.8607C79.542 41.602 81.66 41.3773 83.2789 41.9748ZM80.4657 43.0819C80.1342 43.4091 80.1342 43.4091 79.9783 44.0337C81.0077 44.0337 82.0372 44.0337 83.0978 44.0337C82.9508 43.706 82.8037 43.3782 82.6522 43.0405C81.918 42.7678 81.1548 42.7288 80.4657 43.0819Z" fill="#CECDCD"/>
<path d="M92.0109 41.8818C92.5991 41.8818 93.1874 41.8818 93.7935 41.8818C93.9705 42.192 94.1467 42.5025 94.3227 42.813C94.4209 42.9858 94.5192 43.1587 94.6204 43.3368C94.8923 43.84 95.13 44.3454 95.3533 44.8616C95.5303 44.5514 95.7065 44.2409 95.8825 43.9304C95.9807 43.7576 96.0789 43.5847 96.1801 43.4066C96.4521 42.9034 96.6898 42.398 96.913 41.8818C97.5013 41.8818 98.0896 41.8818 98.6956 41.8818C98.5472 42.5344 98.2865 43.1156 97.9636 43.7319C97.8139 44.0192 97.8139 44.0192 97.6612 44.3122C97.5567 44.5106 97.4523 44.7089 97.3448 44.9133C97.2395 45.1148 97.1342 45.3164 97.0258 45.5241C96.7662 46.0208 96.5057 46.5173 96.2446 47.0136C95.7298 47.0136 95.2151 47.0136 94.6848 47.0136C94.0037 45.8244 93.3532 44.6275 92.7211 43.4234C92.6512 43.2906 92.5812 43.1578 92.5091 43.021C92.0109 42.0676 92.0109 42.0676 92.0109 41.8818Z" fill="#CECDCD"/>
<path d="M85.5489 39.3984C86.1372 39.3984 86.7254 39.3984 87.3315 39.3984C87.4051 41.5836 87.4786 43.7687 87.5543 46.0201C87.922 46.0201 88.2897 46.0201 88.6685 46.0201C88.742 46.2932 88.8155 46.5663 88.8913 46.8478C87.2966 47.2092 87.2966 47.2092 86.4681 47.0754C85.913 46.8085 85.794 46.6355 85.5489 46.1856C85.4953 45.8483 85.4953 45.8483 85.4983 45.4874C85.4984 45.3516 85.4984 45.2157 85.4984 45.0758C85.5007 44.9307 85.503 44.7857 85.5054 44.6362C85.506 44.4865 85.5067 44.3368 85.5073 44.1826C85.5098 43.7052 85.5154 43.228 85.5211 42.7506C85.5233 42.4267 85.5253 42.1027 85.5272 41.7787C85.5321 40.9853 85.5398 40.1919 85.5489 39.3984Z" fill="#CECDCD"/>
<path d="M89.5598 41.8818C90.148 41.8818 90.7363 41.8818 91.3424 41.8818C91.3424 43.5753 91.3424 45.2688 91.3424 47.0136C90.7541 47.0136 90.1659 47.0136 89.5598 47.0136C89.5598 45.3201 89.5598 43.6266 89.5598 41.8818Z" fill="#CECDCD"/>
<path d="M89.7826 39.8952C90.4511 39.8435 90.4511 39.8435 91.1196 39.8952C91.5652 40.2263 91.5652 40.2263 91.6348 40.6402C91.6004 40.845 91.6004 40.845 91.5652 41.054C90.8967 41.3851 90.8967 41.3851 90.1865 41.323C89.8763 41.2718 89.8763 41.2718 89.5598 41.2196C89.4205 40.8368 89.4205 40.8368 89.3369 40.3919C89.484 40.228 89.6311 40.0641 89.7826 39.8952Z" fill="#CECDCD"/>
</g>
<defs>
<clipPath id="clip0_36_1205">
<rect width="123" height="49" fill="white" transform="translate(0.875)"/>
</clipPath>
</defs>
</svg>
