<svg width="128" height="37" viewBox="0 0 128 37" fill="none" xmlns="http://www.w3.org/2000/svg">
<g clip-path="url(#clip0_36_1189)">
<path d="M14.9782 -0.0724374C15.4367 -0.0741167 15.8951 -0.075796 16.3675 -0.0775262C17.8764 -0.0822586 19.3853 -0.0832516 20.8942 -0.08379C21.9476 -0.0853976 23.0009 -0.0870798 24.0543 -0.088833C26.2598 -0.0918229 28.4654 -0.092775 30.671 -0.0924569C33.2116 -0.0921567 35.7523 -0.0974328 38.2929 -0.105329C40.7475 -0.112682 43.2021 -0.11445 45.6568 -0.114152C46.6964 -0.114741 47.7359 -0.116943 48.7755 -0.120818C50.2317 -0.125739 51.6879 -0.124271 53.1441 -0.121266C53.5697 -0.124075 53.9952 -0.126885 54.4337 -0.12978C58.6789 -0.107611 62.5586 0.346343 65.7621 4.06269C68.0405 8.66058 67.8452 13.6055 67.7719 18.8127C67.7467 21.3496 67.7215 23.8864 67.6956 26.5002C73.9418 26.2527 73.9418 26.2527 80.3141 26.0002C79.2024 23.7242 78.6033 22.9013 76.956 21.3752C74.6135 19.0931 72.3263 16.5645 71.359 13.0002C71.3001 12.0228 71.2692 11.0426 71.2573 10.0627C71.2415 9.29119 71.2415 9.29119 71.2255 8.5041C71.4388 6.10197 72.292 4.84591 73.6741 3.18769C77.9284 -0.905383 83.7796 -0.0751808 88.8765 -0.0662118C89.5611 -0.0665499 90.2456 -0.0670362 90.9301 -0.0676614C92.3675 -0.0683971 93.8048 -0.0673347 95.2422 -0.0649911C97.0418 -0.0621933 98.8415 -0.0637507 100.641 -0.0667774C102.06 -0.0686317 103.478 -0.0679872 104.897 -0.0667135C105.557 -0.0663901 106.218 -0.066751 106.879 -0.0679532C113.637 -0.0775247 120.364 0.240657 127.125 0.500194C127.125 12.5452 127.125 24.5902 127.125 37.0002C123.901 37.0002 120.677 37.0002 117.356 37.0002C117.221 35.8452 117.087 34.6902 116.949 33.5002C116.646 33.7535 116.646 33.7535 116.337 34.0119C113.075 36.6423 110.017 37.6441 106.156 36.7678C102.572 35.6269 99.9538 33.1743 97.8174 29.5002C95.7658 24.3701 95.7881 19.7093 97.0239 14.2717C97.4103 13.0002 97.4103 13.0002 98.6315 10.5002C93.7957 10.6652 88.9599 10.8302 83.9776 11.0002C84.8305 13.0954 85.4491 13.7586 86.9287 15.1564C92.2327 20.348 92.2327 20.348 92.6767 24.3674C92.7409 27.9488 92.4438 30.2778 90.4904 33.0002C87.6723 36.4618 84.965 37.1561 81.1059 37.1743C80.2398 37.17 79.3739 37.1585 78.5079 37.1467C77.9011 37.1439 77.2943 37.1417 76.6875 37.1402C75.1001 37.1346 73.5129 37.1199 71.9257 37.1032C70.302 37.0878 68.6784 37.081 67.0548 37.0734C63.8762 37.0574 60.6978 37.0319 57.5193 37.0002C57.5169 36.6966 57.5145 36.393 57.512 36.0802C57.4861 32.925 57.4517 29.77 57.4124 26.6151C57.3989 25.437 57.3875 24.259 57.3783 23.0809C57.3646 21.3891 57.3433 19.6977 57.3205 18.0061C57.3166 17.2138 57.3166 17.2138 57.3126 16.4056C57.3046 15.9152 57.2965 15.4248 57.2882 14.9195C57.2837 14.4876 57.2792 14.0557 57.2745 13.6107C57.1696 12.2852 57.1696 12.2852 55.8911 11.0002C54.4135 10.8352 52.9359 10.6702 51.4135 10.5002C51.4135 19.2452 51.4135 27.9902 51.4135 37.0002C48.0553 37.0002 44.6972 37.0002 41.2372 37.0002C41.2372 28.2552 41.2372 19.5102 41.2372 10.5002C39.2223 10.5002 37.2074 10.5002 35.1315 10.5002C35.1315 19.2452 35.1315 27.9902 35.1315 37.0002C31.9076 37.0002 28.6838 37.0002 25.3622 37.0002C25.3622 28.2552 25.3622 19.5102 25.3622 10.5002C19.116 10.7477 19.116 10.7477 12.7436 11.0002C13.2218 12.7622 13.6361 13.0754 14.8298 14.1564C15.3248 14.6176 15.3248 14.6176 15.8299 15.0881C16.1547 15.3891 16.4795 15.6901 16.8141 16.0002C19.2343 18.2802 20.7133 20.3689 21.6988 24.0002C22.0047 27.5697 21.2497 30.0027 19.6635 33.0002C17.4661 35.9504 14.7822 36.8743 11.5989 37.1199C9.85986 37.1652 8.12239 37.1317 6.38346 37.0939C5.77448 37.0864 5.16549 37.0796 4.5565 37.0734C3.07908 37.0584 1.6025 37.029 0.125049 37.0002C0.125049 33.5352 0.125049 30.0702 0.125049 26.5002C3.08024 26.3352 6.03543 26.1702 9.08018 26.0002C8.61178 23.6988 8.2846 23.4551 6.79051 22.0939C3.73678 19.1896 1.26504 16.6845 0.125049 12.0002C-0.143881 9.2631 0.288046 7.42048 1.3462 5.00019C3.39752 1.81347 6.11793 0.567537 9.32564 0.102294C11.2074 -0.0946222 13.0908 -0.0734385 14.9782 -0.0724374ZM107.18 10.5002C107.985 11.8202 108.791 13.1402 109.622 14.5002C109.353 14.5002 109.085 14.5002 108.808 14.5002C108.808 14.8302 108.808 15.1602 108.808 15.5002C108.539 15.5002 108.27 15.5002 107.994 15.5002C107.315 16.1669 107.315 16.1669 106.772 17.0002C106.772 17.3302 106.772 17.6602 106.772 18.0002C106.504 18.0002 106.235 18.0002 105.958 18.0002C105.958 18.3302 105.958 18.6602 105.958 19.0002C105.69 19.0002 105.421 19.0002 105.144 19.0002C104.466 19.6669 104.466 19.6669 103.923 20.5002C103.923 20.8302 103.923 21.1602 103.923 21.5002C104.192 21.5002 104.46 21.5002 104.737 21.5002C104.846 21.8199 104.955 22.1396 105.068 22.4689C105.505 23.6659 105.505 23.6659 106.772 24.0002C106.772 24.3302 106.772 24.6602 106.772 25.0002C107.041 25.0002 107.31 25.0002 107.587 25.0002C107.721 25.4952 107.855 25.9902 107.994 26.5002C109.996 24.4421 111.871 22.2981 113.692 20.0002C115.173 20.8087 116.01 21.6774 117.356 23.0002C117.356 18.8752 117.356 14.7502 117.356 10.5002C113.998 10.5002 110.639 10.5002 107.18 10.5002Z" fill="#CECDCD"/>
</g>
<defs>
<clipPath id="clip0_36_1189">
<rect width="127" height="37" fill="white" transform="translate(0.125)"/>
</clipPath>
</defs>
</svg>
