<svg width="124" height="39" viewBox="0 0 124 39" fill="none" xmlns="http://www.w3.org/2000/svg">
<g clip-path="url(#clip0_36_1222)">
<path d="M34.4961 3.49438C38.7246 6.13185 41.5139 9.84908 42.2099 13.9961C42.6376 18.6656 41.321 22.9498 37.2734 26.5768C33.1425 30.1327 27.8392 31.965 21.6558 32.2675C16.494 32.3612 11.2929 30.9452 7.44903 28.3066C7.32467 28.2318 7.20032 28.157 7.0722 28.0799C3.2264 25.7502 0.954864 21.8845 0.250029 18.2421C0.0630772 15.8343 0.0628482 13.4651 1.07277 11.1655C1.11685 11.0645 1.16093 10.9636 1.20635 10.8596C3.10395 6.62649 7.13352 3.35506 12.3209 1.37666C19.5498 -1.22381 28.2892 -0.256884 34.4961 3.49438ZM7.58883 6.98831C4.13468 10.1367 2.98649 13.8859 3.33531 17.9276C3.74354 20.7226 5.47407 23.2217 7.8604 25.3187C8.00357 25.4458 8.14675 25.5729 8.29426 25.7039C11.288 28.1691 15.6021 29.6241 19.9701 29.7717C25.1334 29.8781 29.4378 28.8704 33.3654 26.2622C33.5189 26.1607 33.6724 26.0591 33.8306 25.9545C36.8904 23.7714 38.9133 20.4533 39.1502 17.2694C39.3348 13.0704 37.866 9.49761 34.0792 6.36765C31.6575 4.49034 28.6736 3.31975 25.3437 2.67354C25.1655 2.63806 24.9873 2.60259 24.8037 2.56604C18.417 1.48671 11.9898 3.45359 7.58883 6.98831Z" fill="#CECDCD"/>
<path d="M118.776 9.61255C121.673 11.7052 123.163 14.817 123.299 17.8176C123.385 21.348 122.685 24.5802 119.572 27.3354C117.385 29.0535 114.651 30.0526 111.494 30.0963C108.364 30.0912 105.623 29.617 103.311 27.8938C102.859 27.5262 102.436 27.152 102.064 26.734C102.098 26.8402 102.131 26.9463 102.166 27.0557C102.288 27.5995 102.295 28.1115 102.293 28.6634C102.293 28.7755 102.293 28.8876 102.294 29.003C102.293 29.3715 102.292 29.7399 102.29 30.1083C102.29 30.3646 102.289 30.6208 102.289 30.8771C102.289 31.55 102.286 32.223 102.284 32.8959C102.282 33.5832 102.281 34.2705 102.28 34.9578C102.278 36.3053 102.274 37.6527 102.27 39.0001C100.98 39.0001 99.6908 39.0001 98.3621 39.0001C98.3621 28.8287 98.3621 18.6572 98.3621 8.17757C99.516 8.17757 100.67 8.17757 101.859 8.17757C101.867 8.54732 101.876 8.91707 101.884 9.29803C101.888 9.41259 101.892 9.52715 101.896 9.64518C101.903 10.3195 101.771 10.8545 101.447 11.48C101.54 11.3697 101.632 11.2594 101.728 11.1458C103.395 9.2661 105.503 8.19573 108.376 7.66648C112.164 7.16265 115.756 7.77436 118.776 9.61255ZM104.327 12.2663C101.954 14.7715 101.41 17.9291 102.028 20.9377C102.52 23.0475 103.485 25.0306 105.831 26.3212C107.944 27.2969 110.398 27.4949 112.799 27.0971C114.829 26.5813 116.523 25.5789 117.568 24.1442C119.307 21.3904 119.628 18.1023 118.511 15.1639C117.699 13.4395 116.504 11.8225 114.298 10.9634C110.853 9.86 107.02 10.2076 104.327 12.2663Z" fill="#CECDCD"/>
<path d="M90.3403 9.56314C91.9945 10.764 92.9363 12.6011 93.0327 14.3277C93.0394 14.7245 93.0396 15.1209 93.0376 15.5177C93.0376 15.6681 93.0376 15.8186 93.0376 15.9736C93.0375 16.4688 93.0359 16.964 93.0343 17.4592C93.0339 17.8034 93.0336 18.1476 93.0334 18.4917C93.0326 19.3961 93.0306 20.3004 93.0283 21.2047C93.0262 22.1281 93.0253 23.0516 93.0242 23.975C93.022 25.7857 93.0185 27.5964 93.0142 29.4071C91.8603 29.4071 90.7064 29.4071 89.5175 29.4071C89.4262 26.6596 89.4262 26.6596 90.1346 25.3184C90.0474 25.4305 89.9601 25.5426 89.8703 25.6581C88.0115 27.9787 85.742 29.2374 82.2776 29.893C81.2388 30.0637 80.2288 30.0905 79.169 30.0853C78.9793 30.0844 78.7897 30.0835 78.5943 30.0826C75.8077 30.0448 73.6269 29.4942 71.5586 28.0311C69.7148 26.5473 69.4872 24.9713 69.5211 23.029C69.5741 21.815 70.0533 20.9427 71.0058 19.9717C71.1289 19.8446 71.2519 19.7175 71.3786 19.5865C71.842 19.1734 72.2708 18.9159 72.8699 18.6251C73.1343 18.4935 73.1343 18.4935 73.4042 18.3591C75.116 17.6749 76.906 17.3266 78.7962 17.0624C79.0228 17.0299 79.2495 16.9974 79.483 16.964C81.292 16.7116 83.1073 16.5004 84.9282 16.3056C85.3054 16.2651 85.3054 16.2651 85.6902 16.2239C86.8376 16.1062 87.9482 16.0052 89.1062 16.0402C88.7982 13.623 88.7982 13.623 87.1136 11.6468C85.1849 10.5011 82.6539 10.4101 80.297 10.5994C78.1629 10.8979 76.62 11.5042 75.3702 12.8791C74.9823 13.3905 74.7389 13.9053 74.5025 14.4676C73.1556 14.2849 71.881 14.0377 70.5945 13.6813C70.9855 11.9693 71.9638 10.5972 73.6798 9.43537C78.5609 6.85901 85.5526 6.73133 90.3403 9.56314ZM85.8337 18.8635C85.6835 18.8794 85.5334 18.8954 85.3787 18.9118C85.0625 18.9458 84.7463 18.9802 84.4303 19.015C83.9577 19.0667 83.4847 19.116 83.0115 19.1651C78.2287 19.6268 78.2287 19.6268 74.284 21.5442C73.4735 22.5036 73.299 23.4088 73.4741 24.5321C73.8447 25.5892 74.5353 26.3048 75.7366 26.891C76.9722 27.3115 78.1476 27.445 79.4904 27.4316C79.7449 27.4298 79.7449 27.4298 80.0045 27.428C82.7598 27.3718 84.9774 26.6513 86.8951 25.1415C88.9059 23.3132 89.2022 21.0148 89.1062 18.7136C87.9968 18.6992 86.9332 18.7433 85.8337 18.8635Z" fill="#CECDCD"/>
<path d="M30.8843 7.12564C33.86 9.12487 35.9431 11.8184 36.29 14.8625C36.5396 18.0888 35.5488 21.0539 32.7515 23.5517C32.5463 23.7257 32.5463 23.7257 32.3369 23.9031C32.2129 24.0126 32.0888 24.122 31.9609 24.2348C29.7697 26.0509 26.3741 27.3542 23.1369 27.5548C18.6642 27.6914 14.6359 27.15 11.2542 24.768C10.8698 24.4846 10.4964 24.1952 10.1229 23.9031C9.98608 23.8036 9.84927 23.704 9.70831 23.6015C7.03413 21.5155 6.08291 18.4136 6.11755 15.5899C6.25064 12.4173 8.09798 9.61806 11.087 7.43033C12.8945 6.24796 15.04 5.38252 17.3219 4.87488C17.4759 4.83961 17.63 4.80434 17.7887 4.768C22.3625 3.89823 27.2244 4.95101 30.8843 7.12564ZM12.3854 9.90714C12.2669 9.99593 12.1484 10.0847 12.0263 10.1762C9.97659 11.8451 9.19212 14.1301 9.22829 16.3662C9.34046 18.8005 10.6509 20.9928 12.8635 22.7384C15.7341 24.7121 18.8993 25.3076 22.653 25.1837C25.5234 25.0324 28.369 23.7653 30.2801 22.1733C32.5785 20.0784 33.398 17.6309 33.1597 14.9394C32.7236 12.3571 30.9372 10.32 28.3518 8.67856C23.2169 5.79685 16.714 6.60352 12.3854 9.90714Z" fill="#CECDCD"/>
<path d="M54.3453 2.20166C55.5671 2.20166 56.7889 2.20166 58.0477 2.20166C58.0477 4.06989 58.0477 5.93811 58.0477 7.86295C57.844 7.94079 57.844 7.94079 57.6363 8.02021C62.1161 8.09805 62.1161 8.09805 66.6865 8.17747C66.6865 9.00779 66.6865 9.83811 66.6865 10.6936C66.4808 10.8509 66.4808 10.8509 65.6833 10.8687C65.3275 10.8687 64.9717 10.8678 64.6159 10.8662C64.429 10.866 64.2422 10.8658 64.0496 10.8655C63.4502 10.8647 62.8508 10.8627 62.2514 10.8607C61.846 10.8599 61.4407 10.8592 61.0353 10.8585C60.0394 10.8568 59.0435 10.8541 58.0477 10.8509C58.0651 12.4613 58.0846 14.0717 58.1068 15.6822C58.117 16.4301 58.1266 17.178 58.1344 17.926C58.1421 18.6489 58.1516 19.3718 58.1624 20.0948C58.1662 20.3694 58.1693 20.6441 58.1718 20.9187C58.0442 23.6909 58.0442 23.6909 59.4875 26.1049C61.0194 26.9883 62.6727 26.9127 64.501 26.901C64.7113 26.9003 64.9216 26.8996 65.1382 26.8989C65.6543 26.897 66.1704 26.8942 66.6865 26.8912C66.6865 27.7215 66.6865 28.5518 66.6865 29.4073C65.348 29.7484 64.3221 29.7741 62.9327 29.771C62.7102 29.7735 62.4878 29.776 62.2586 29.7786C59.7901 29.7798 57.8974 29.3224 56.0414 28.0614C54.0613 26.4792 54.1088 24.2767 54.113 22.2316C54.1127 22.0147 54.1124 21.7979 54.1119 21.5811C54.111 20.9951 54.1113 20.409 54.112 19.8229C54.1125 19.2093 54.112 18.5957 54.1117 17.9821C54.1113 16.9528 54.1118 15.9236 54.1128 14.8943C54.1139 13.7031 54.1136 12.5119 54.1124 11.3207C54.1115 10.2978 54.1114 9.2749 54.1119 8.25201C54.1122 7.64107 54.1123 7.03013 54.1116 6.4192C54.111 5.84583 54.1114 5.27248 54.1126 4.69912C54.113 4.38722 54.1124 4.07532 54.1118 3.76343C54.1126 3.48762 54.1126 3.48762 54.1135 3.20624C54.1136 3.04546 54.1137 2.88468 54.1137 2.71903C54.1396 2.35892 54.1396 2.35892 54.3453 2.20166Z" fill="#CECDCD"/>
</g>
<defs>
<clipPath id="clip0_36_1222">
<rect width="123" height="39" fill="white" transform="translate(0.25)"/>
</clipPath>
</defs>
</svg>
