<svg width="127" height="47" viewBox="0 0 127 47" fill="none" xmlns="http://www.w3.org/2000/svg">
<path fill-rule="evenodd" clip-rule="evenodd" d="M66.6982 11.7879C66.6982 13.4502 65.5567 14.8859 64.0982 14.8859C62.6396 14.8859 61.4981 13.5258 61.4981 11.7879C61.4981 10.0499 62.5762 8.68979 64.0982 8.68979C65.6202 8.84091 66.6982 10.201 66.6982 11.7879ZM56.1078 17.9839C56.1078 18.2862 56.1078 18.7395 56.1078 18.7395C56.1078 18.7395 54.9029 16.8505 52.3029 16.8505C47.9906 16.8505 44.6296 20.7797 44.6296 26.1447C44.6296 31.5096 47.9272 35.4389 52.3029 35.4389C54.9663 35.4389 56.1078 33.4743 56.1078 33.4743V34.3054C56.1078 34.6833 56.3615 34.9855 56.6786 34.9855H59.8493V17.3038C59.8493 17.3038 56.9322 17.3038 56.6786 17.3038C56.3615 17.3038 56.1078 17.6817 56.1078 17.9839ZM56.1078 29.3184C55.5371 30.3762 54.3322 31.283 52.9371 31.283C50.4004 31.283 48.498 29.3939 48.498 26.2203C48.498 23.0467 50.4638 21.1576 52.9371 21.1576C54.3322 21.1576 55.6005 22.0643 56.1078 23.1222V29.3184ZM62.2591 17.3037H66.0641V34.9854H62.2591V17.3037ZM118.889 16.8505C116.289 16.8505 115.084 18.7396 115.084 18.7396V8.84087H111.279V35.0611C111.279 35.0611 114.196 35.0611 114.45 35.0611C114.767 35.0611 115.021 34.7589 115.021 34.3811V33.5499C115.021 33.5499 116.226 35.5145 118.826 35.5145C123.138 35.5145 126.499 31.5852 126.499 26.2203C126.563 20.7798 123.202 16.8505 118.889 16.8505ZM118.255 31.2075C116.797 31.2075 115.655 30.3007 115.084 29.2429V22.8956C115.655 21.9888 116.923 20.931 118.255 20.931C120.792 20.931 122.694 22.82 122.694 25.9937C122.694 29.1673 120.792 31.2075 118.255 31.2075ZM109.313 24.5579V35.1366H105.509V25.0868C105.509 22.1399 104.748 21.0064 102.591 21.0064C101.45 21.0064 100.245 21.6865 99.4841 22.7444V35.0611H95.6791V17.3038H98.6597C98.9768 17.3038 99.2304 17.6061 99.2304 17.9839V18.7395C100.308 17.3794 101.83 16.8505 103.289 16.8505C104.938 16.8505 106.333 17.3794 107.411 18.5128C108.806 19.873 109.313 21.5354 109.313 24.5579ZM86.4839 16.8505C83.8838 16.8505 82.6789 18.7396 82.6789 18.7396V8.84087H78.874V35.0611C78.874 35.0611 81.7911 35.0611 82.0448 35.0611C82.3619 35.0611 82.6155 34.7589 82.6155 34.3811V33.5499C82.6155 33.5499 83.8204 35.5145 86.4205 35.5145C90.7327 35.5145 94.0937 31.5852 94.0937 26.2203C94.1572 20.7798 90.7961 16.8505 86.4839 16.8505ZM85.8497 31.2075C84.3912 31.2075 83.2497 30.3007 82.679 29.2429V22.8956C83.2497 21.9888 84.518 20.931 85.8497 20.931C88.3864 20.931 90.2888 22.82 90.2888 25.9937C90.2888 29.1673 88.3864 31.2075 85.8497 31.2075ZM75.5764 16.8505C76.7179 16.8505 77.2886 17.0772 77.2886 17.0772V21.2331C77.2886 21.2331 74.1178 19.9485 72.152 22.6688V35.0611H68.347V17.3038C68.347 17.3038 71.2641 17.3038 71.5178 17.3038C71.8349 17.3038 72.0885 17.6061 72.0885 17.9839V18.7395C72.8495 17.7572 74.4349 16.8505 75.5764 16.8505ZM36.1953 33.4743C36.0051 32.9453 35.8148 32.2653 35.6246 31.8119C35.3075 30.9807 34.9904 30.1495 34.7368 29.3939L34.6734 29.3183C31.9465 22.291 29.0294 15.1125 25.922 8.00965L25.7952 7.7074C25.4781 7.02733 25.161 6.2717 24.8439 5.51608C24.4635 4.68489 24.083 3.77814 23.4488 2.94695C22.1805 1.05788 20.3414 0 18.439 0C16.4731 0 14.6975 1.05788 13.3657 2.79582C12.7316 3.70257 12.2877 4.53376 11.9072 5.44051C11.5901 6.19614 11.273 6.95177 10.9559 7.63183L10.8291 7.93408C7.78515 14.9614 4.80462 22.1399 2.07775 29.2428L2.01434 29.3183C1.76067 30.074 1.4436 30.9051 1.12652 31.7363C0.936271 32.2653 0.746024 32.7942 0.555777 33.3987C0.0484525 35.1367 -0.141794 36.799 0.111868 38.4614C0.555777 42.0129 2.52166 44.9598 5.24853 46.2444C6.26318 46.7733 7.34124 47 8.41931 47C8.73639 47 9.11688 46.9244 9.43396 46.9244C10.7657 46.7733 12.0974 46.2444 13.3657 45.3376C15.0145 44.2797 16.5365 42.6929 18.2487 40.426C19.9609 42.6929 21.5463 44.2042 23.1317 45.3376C24.4635 46.2444 25.7952 46.7733 27.0635 46.9244C27.3806 47 27.7611 47 28.0781 47C29.1562 47 30.2977 46.7733 31.2489 46.2444C34.0392 44.9598 35.9417 41.9373 36.3856 38.4614C36.8295 36.799 36.7027 35.2122 36.1953 33.4743ZM18.3756 35.8923C16.2194 32.7186 14.8877 29.6961 14.3804 27.127C14.1901 26.0691 14.1267 25.0868 14.2536 24.2556C14.317 23.5 14.5706 22.8199 14.8877 22.291C15.6487 21.0064 16.917 20.2508 18.3756 20.2508C19.8341 20.2508 21.1659 21.0064 21.8634 22.291C22.1805 22.8199 22.4342 23.5 22.4976 24.2556C22.6244 25.0868 22.561 26.0691 22.3708 27.127C21.8634 29.6205 20.4683 32.6431 18.3756 35.8923ZM34.1026 38.0837C33.8489 40.5017 32.4538 42.6175 30.4879 43.5998C29.5367 44.0532 28.522 44.2043 27.5074 44.0532C26.4927 43.902 25.5415 43.5242 24.5269 42.8441C23.1317 41.9374 21.6732 40.4261 20.0244 38.3104C22.6244 34.5322 24.2098 30.9808 24.7805 27.8827C25.0342 26.447 25.0976 25.0869 24.9708 23.8779C24.8439 22.6689 24.4634 21.611 23.8927 20.7043C22.6878 18.5885 20.5951 17.3795 18.3121 17.3795C16.0292 17.3795 13.9365 18.6641 12.7316 20.7043C12.1608 21.611 11.8437 22.7445 11.6535 23.8779C11.5267 25.0869 11.5267 26.447 11.8437 27.8827C12.4145 30.9808 14.0633 34.5322 16.5999 38.3104C14.9511 40.5017 13.4925 41.9374 12.0974 42.8441C11.0828 43.5242 10.0681 43.902 9.11687 44.0532C8.03881 44.2043 7.02416 43.9776 6.13634 43.5998C4.17046 42.693 2.83873 40.5017 2.52165 38.0837C2.39482 36.8747 2.45824 35.7413 2.90215 34.3811C3.02898 33.9277 3.21922 33.4744 3.40947 32.8699C3.66313 32.1142 3.98021 31.2831 4.29729 30.5274L4.3607 30.4519C7.08757 23.4245 10.0047 16.2461 13.0486 9.29431L13.1755 8.99206C13.4925 8.31199 13.8096 7.55637 14.1267 6.80074C14.4438 6.04511 14.8243 5.36505 15.2048 4.76055C16.0292 3.6271 17.1707 3.0226 18.3755 3.0226C19.5804 3.0226 20.7219 3.6271 21.5463 4.76055C21.9902 5.36505 22.3073 6.04511 22.6244 6.80074C22.9415 7.4808 23.2585 8.23643 23.5756 8.99206L23.7025 9.29431C26.683 16.3216 29.6001 23.5001 32.327 30.4519V30.5274C32.6441 31.2831 32.8977 32.1142 33.2148 32.8699C33.405 33.3988 33.5953 33.9277 33.7221 34.3811C34.166 35.6657 34.2929 36.8747 34.1026 38.0837Z" fill="#CECDCD"/>
</svg>
