<svg width="156" height="37" viewBox="0 0 156 37" fill="none" xmlns="http://www.w3.org/2000/svg">
<g clip-path="url(#clip0_36_1229)">
<path d="M37.7642 -0.00585938C37.8147 -0.00567621 37.8147 -0.00567621 37.8662 -0.00548934C37.9018 -0.00554298 37.9374 -0.00559661 37.974 -0.00565187C38.0949 -0.00577618 38.2157 -0.00556531 38.3365 -0.00535951C38.4234 -0.00537975 38.5102 -0.0054204 38.5971 -0.00547986C38.837 -0.00558437 39.077 -0.00539707 39.3169 -0.0051648C39.5752 -0.00496495 39.8334 -0.00503193 40.0917 -0.00506729C40.5396 -0.00509172 40.9875 -0.0049469 41.4354 -0.00468437C41.9053 -0.00440964 42.3752 -0.00423049 42.8451 -0.00417991C42.8889 -0.00417512 42.8889 -0.00417512 42.9335 -0.00417023C43.0817 -0.0041545 43.2299 -0.00414049 43.3781 -0.00412714C44.4286 -0.00402943 45.4791 -0.00371602 46.5296 -0.00327639C47.5504 -0.0028497 48.5712 -0.00252033 49.592 -0.00232314C49.6234 -0.00231703 49.6549 -0.00231091 49.6873 -0.00230461C50.003 -0.00224333 50.3188 -0.00218402 50.6346 -0.00212617C51.278 -0.00200828 51.9213 -0.00187714 52.5647 -0.001738C52.5942 -0.00173162 52.6238 -0.00172523 52.6543 -0.00171866C54.6308 -0.00129076 56.6074 -0.000553241 58.5839 0.000230215C58.4935 0.25188 58.4032 0.503432 58.2903 0.743949C58.2627 0.743949 58.235 0.743949 58.2065 0.743949C58.1978 0.780379 58.1892 0.81681 58.1803 0.854344C58.1321 0.994968 58.0833 1.09998 58.0125 1.2262C57.9053 1.41879 57.8112 1.61571 57.7216 1.81885C57.4926 2.33682 57.24 2.84104 56.9903 3.34696C56.9627 3.34696 56.935 3.34696 56.9065 3.34696C56.9021 3.38819 56.8978 3.42941 56.8934 3.47189C56.8628 3.63513 56.8179 3.71762 56.7387 3.85827C56.6741 3.98167 56.6108 4.10591 56.5474 4.23013C56.5307 4.26261 56.5139 4.29508 56.4967 4.32854C56.4124 4.49385 56.3358 4.65522 56.2774 4.8344C56.2498 4.8344 56.2221 4.8344 56.1936 4.8344C56.1892 4.86604 56.1849 4.89768 56.1805 4.93027C56.132 5.15963 56.0397 5.36974 55.9419 5.57812C55.9143 5.57812 55.8866 5.57812 55.8581 5.57812C55.8494 5.61455 55.8408 5.65098 55.8319 5.68852C55.7832 5.8306 55.7329 5.93829 55.6615 6.06618C55.5591 6.2498 55.4693 6.43594 55.3837 6.62978C55.2598 6.90929 55.1256 7.1801 54.9865 7.4506C54.8638 7.68999 54.7492 7.93271 54.6419 8.18113C54.6143 8.18113 54.5866 8.18113 54.5581 8.18113C54.5537 8.22236 54.5494 8.26358 54.545 8.30606C54.5142 8.47024 54.4698 8.55057 54.3903 8.69244C54.3177 8.8332 54.2466 8.97492 54.1754 9.11659C54.1563 9.15428 54.1372 9.19197 54.1176 9.2308C54.0994 9.26705 54.0812 9.3033 54.0624 9.34065C54.0458 9.3735 54.0293 9.40634 54.0122 9.44018C53.9656 9.5351 53.9656 9.5351 53.929 9.66857C53.9014 9.66857 53.8737 9.66857 53.8452 9.66857C53.84 9.71747 53.84 9.71747 53.8347 9.76735C53.7959 9.93212 53.7267 10.044 53.6355 10.1799C53.6217 10.1799 53.6078 10.1799 53.5936 10.1799C53.5892 9.78638 53.5933 9.39611 53.6145 9.00329C53.668 7.9549 53.6765 7.10484 53.0507 6.25793C52.8336 6.00015 52.5681 5.80063 52.2936 5.6246C52.2659 5.6246 52.2382 5.6246 52.2097 5.6246C52.2097 5.59392 52.2097 5.56325 52.2097 5.53164C52.1814 5.52672 52.1531 5.52181 52.124 5.51675C52.0027 5.48584 51.8923 5.44064 51.7771 5.38896C51.1137 5.09235 50.4287 5.0121 49.7171 5.01162C49.6729 5.01105 49.6287 5.01048 49.5831 5.00989C49.3246 5.00936 49.0847 5.03259 48.8319 5.09327C48.7257 5.11395 48.627 5.11667 48.5194 5.1133C48.5055 5.14397 48.4917 5.17465 48.4774 5.20626C48.3806 5.20626 48.2837 5.20626 48.1839 5.20626C48.1839 5.23694 48.1839 5.26762 48.1839 5.29923C48.1408 5.31894 48.0977 5.33865 48.0533 5.35896C47.7289 5.51026 47.4286 5.66816 47.1371 5.89024C47.0516 5.94998 47.0516 5.94998 46.9677 5.94998C46.9539 5.996 46.9401 6.04201 46.9258 6.08943C46.6966 6.32184 46.6966 6.32184 46.5903 6.32184C46.5903 6.35252 46.5903 6.38319 46.5903 6.4148C46.5327 6.49034 46.5327 6.49034 46.4645 6.55425C46.4368 6.55425 46.4092 6.55425 46.3807 6.55425C46.3699 6.58073 46.3592 6.60722 46.3482 6.6345C46.291 6.75205 46.2231 6.84213 46.1448 6.94354C45.3996 7.96699 45.0844 9.32902 45.1766 10.6296C45.1952 10.7609 45.2196 10.8876 45.2484 11.0166C45.2576 11.0653 45.2668 11.1141 45.2762 11.1644C45.4373 11.9983 45.748 12.6816 46.171 13.3872C46.2033 13.4417 46.2355 13.4962 46.2678 13.5508C46.6323 14.1644 47.0121 14.7601 47.4385 15.3233C47.5129 15.4324 47.5129 15.4324 47.5129 15.5254C47.5406 15.5254 47.5683 15.5254 47.5968 15.5254C47.66 15.5916 47.66 15.5916 47.7278 15.6793C47.7617 15.7222 47.7617 15.7222 47.7963 15.7659C47.8484 15.8507 47.8484 15.8507 47.8484 15.9902C47.8725 16.0012 47.8965 16.0122 47.9213 16.0236C48.0368 16.0961 48.1047 16.1812 48.1917 16.2923C48.2243 16.3335 48.2568 16.3748 48.2904 16.4172C48.3244 16.4604 48.3585 16.5035 48.3936 16.548C48.4961 16.6716 48.5988 16.7951 48.7017 16.9184C48.771 17.0128 48.771 17.0128 48.771 17.1058C48.7987 17.1058 48.8263 17.1058 48.8548 17.1058C48.8548 17.1364 48.8548 17.1671 48.8548 17.1987C48.8964 17.2141 48.9379 17.2294 48.9807 17.2452C49.0319 17.3127 49.0829 17.3804 49.1323 17.4495C49.1963 17.536 49.1963 17.536 49.3135 17.6374C49.4131 17.7297 49.4863 17.8101 49.5678 17.9192C49.6484 18.0272 49.7207 18.107 49.8194 18.1981C49.9409 18.3104 50.033 18.4258 50.1329 18.5603C50.1968 18.6397 50.2633 18.7042 50.3383 18.7704C50.3746 18.804 50.411 18.8375 50.4484 18.8721C50.4484 18.9028 50.4484 18.9334 50.4484 18.9651C50.4761 18.9651 50.5038 18.9651 50.5323 18.9651C50.5323 18.9957 50.5323 19.0264 50.5323 19.058C50.555 19.0686 50.5777 19.0791 50.6011 19.09C50.7311 19.1702 50.8311 19.2724 50.9411 19.3834C50.9624 19.4044 50.9836 19.4253 51.0055 19.4469C51.0592 19.5012 51.1105 19.5583 51.1613 19.6158C51.1613 19.6465 51.1613 19.6772 51.1613 19.7088C51.1963 19.726 51.1963 19.726 51.2321 19.7436C51.3468 19.8124 51.4413 19.8917 51.5387 19.9877C51.5387 20.0183 51.5387 20.049 51.5387 20.0806C51.573 20.0964 51.573 20.0964 51.608 20.1124C51.7357 20.1918 51.8345 20.2977 51.9397 20.4089C52.2127 20.6917 52.4982 20.9541 52.793 21.2086C52.8315 21.2419 52.8699 21.2752 52.9095 21.3095C52.9442 21.3392 52.979 21.3688 53.0148 21.3994C53.0397 21.4244 53.0647 21.4494 53.0903 21.4751C53.0903 21.5058 53.0903 21.5365 53.0903 21.5681C53.1595 21.5987 53.2287 21.6294 53.3 21.661C53.3 21.6917 53.3 21.7224 53.3 21.754C53.3231 21.7655 53.3463 21.777 53.3701 21.7889C53.4867 21.8582 53.5844 21.9416 53.6879 22.0329C53.7253 22.0655 53.7627 22.0981 53.8013 22.1317C53.8296 22.1604 53.8579 22.1892 53.8871 22.2188C53.8871 22.2495 53.8871 22.2802 53.8871 22.3118C53.9131 22.3175 53.939 22.3233 53.9657 22.3292C54.0548 22.3583 54.0548 22.3583 54.1387 22.4512C54.2582 22.4428 54.3256 22.4286 54.4136 22.3365C54.7042 21.841 55.0613 21.0527 55.0613 20.4525C55.089 20.4525 55.1167 20.4525 55.1452 20.4525C55.1499 20.409 55.1546 20.3656 55.1594 20.3209C55.1953 20.0424 55.2629 19.771 55.3243 19.4984C55.3336 19.4564 55.3428 19.4145 55.3524 19.3712C55.3609 19.3334 55.3694 19.2955 55.3782 19.2565C55.4021 19.1385 55.4021 19.1385 55.3968 18.9651C55.4245 18.9651 55.4521 18.9651 55.4807 18.9651C55.4864 18.9181 55.4921 18.8712 55.4979 18.8229C55.5211 18.6507 55.5499 18.4815 55.5817 18.311C55.5931 18.2496 55.6044 18.1882 55.6157 18.1267C55.6334 18.0314 55.6511 17.936 55.669 17.8406C55.6864 17.7476 55.7035 17.6546 55.7206 17.5615C55.7309 17.5064 55.7412 17.4512 55.7518 17.3944C55.7715 17.263 55.7763 17.1454 55.7742 17.0128C55.8082 16.8842 55.8544 16.7653 55.9 16.6409C56.1248 16.6776 56.3401 16.7416 56.5583 16.8095C56.6786 16.8462 56.781 16.8733 56.9065 16.8733C56.9065 16.904 56.9065 16.9347 56.9065 16.9663C56.9393 16.9713 56.9721 16.9763 57.0059 16.9814C57.2013 17.0217 57.3893 17.082 57.58 17.1435C57.6195 17.1561 57.659 17.1688 57.6996 17.1817C57.9461 17.2608 58.1915 17.3433 58.4365 17.4279C58.6353 17.495 58.8349 17.5592 59.0347 17.6229C59.0714 17.6347 59.1082 17.6465 59.146 17.6586C59.3475 17.7226 59.5484 17.7793 59.754 17.8248C59.8577 17.8539 59.9525 17.8979 60.0516 17.9424C60.1289 17.9698 60.2065 17.996 60.2844 18.0214C60.3297 18.0362 60.375 18.0511 60.4216 18.0663C60.4699 18.082 60.5182 18.0977 60.568 18.1138C60.6178 18.1301 60.6676 18.1464 60.7189 18.1632C60.9703 18.2452 61.2219 18.3266 61.4735 18.4078C61.5188 18.4224 61.5641 18.437 61.6107 18.4521C61.6964 18.4797 61.7821 18.5072 61.8678 18.5347C62.0605 18.5966 62.2521 18.66 62.4419 18.7326C62.4863 18.9185 62.4758 19.0564 62.4419 19.2439C62.4419 19.2746 62.4419 19.3053 62.4419 19.3369C62.4143 19.3369 62.3866 19.3369 62.3581 19.3369C62.359 19.3628 62.36 19.3887 62.361 19.4154C62.3622 19.4686 62.3622 19.4686 62.3633 19.5228C62.3643 19.5574 62.3653 19.5919 62.3663 19.6274C62.3577 19.7611 62.3314 19.8829 62.3006 20.0122C62.2429 20.2637 62.1971 20.5183 62.1484 20.7721C62.132 20.8568 62.132 20.8568 62.1153 20.9433C62.1046 20.9988 62.0939 21.0544 62.0829 21.1116C62.0725 21.1653 62.0621 21.2191 62.0514 21.2744C62.0181 21.4525 61.9886 21.6311 61.9608 21.8103C61.9535 21.8377 61.9462 21.8652 61.9387 21.8934C61.8972 21.9165 61.8972 21.9165 61.8548 21.9399C61.8396 22.0482 61.8259 22.1567 61.8129 22.2653C61.7824 22.386 61.7505 22.5042 61.7153 22.6232C61.7056 22.6565 61.6959 22.6898 61.6859 22.7241C61.6655 22.7942 61.6449 22.8644 61.6242 22.9344C61.5931 23.0398 61.5625 23.1453 61.532 23.2508C61.3923 23.7294 61.2321 24.1915 61.0397 24.6475C60.9027 24.977 60.7928 25.318 60.6807 25.6585C60.653 25.6585 60.6253 25.6585 60.5968 25.6585C60.5942 25.695 60.5916 25.7314 60.5889 25.7689C60.5421 26.0003 60.4457 26.1942 60.3452 26.4022C60.3175 26.4022 60.2898 26.4022 60.2613 26.4022C60.2578 26.4415 60.2544 26.4809 60.2508 26.5213C60.2233 26.6613 60.1974 26.7338 60.1329 26.8525C60.041 26.9968 60.041 26.9968 60.0516 27.146C60.0101 27.146 59.9686 27.146 59.9258 27.146C59.9212 27.1799 59.9165 27.2139 59.9117 27.2489C59.8824 27.385 59.841 27.4727 59.7738 27.5904C59.6769 27.7633 59.5825 27.9371 59.4907 28.1134C59.3807 28.3222 59.2703 28.5308 59.1579 28.738C59.1304 28.789 59.1028 28.8401 59.0745 28.8927C59.051 28.9298 59.0275 28.967 59.0032 29.0053C58.9756 29.0053 58.9479 29.0053 58.9194 29.0053C58.9194 29.0359 58.9194 29.0666 58.9194 29.0982C58.947 29.0982 58.9747 29.0982 59.0032 29.0982C59.129 29.2591 59.129 29.2591 59.129 29.3771C59.1706 29.3925 59.2121 29.4078 59.2548 29.4236C59.3129 29.5149 59.3686 29.6082 59.4226 29.7025C59.4537 29.7447 59.4849 29.7869 59.5169 29.8303C59.5903 29.9349 59.5903 29.9349 59.5903 30.0279C59.618 30.0279 59.6457 30.0279 59.6742 30.0279C59.7374 30.1059 59.7374 30.1059 59.8052 30.208C59.8278 30.2414 59.8504 30.2749 59.8737 30.3093C59.9258 30.3997 59.9258 30.3997 59.9258 30.4927C59.9673 30.508 60.0088 30.5234 60.0516 30.5392C60.1098 30.6116 60.1098 30.6116 60.1643 30.699C60.1918 30.742 60.1918 30.742 60.2199 30.7859C60.2613 30.8645 60.2613 30.8645 60.2613 30.9575C60.3028 30.9729 60.3443 30.9882 60.3871 31.004C60.5104 31.1231 60.593 31.2289 60.6725 31.388C60.7791 31.6 60.9207 31.771 61.0663 31.9508C61.1728 32.0854 61.2295 32.1809 61.2677 32.352C61.2923 32.3655 61.3168 32.3791 61.3421 32.393C61.4751 32.467 61.544 32.5877 61.6294 32.718C61.81 32.9868 62 33.2432 62.1972 33.4972C62.2742 33.607 62.2742 33.607 62.2742 33.7C62.3019 33.7 62.3296 33.7 62.3581 33.7C62.4213 33.7764 62.4213 33.7764 62.4891 33.8772C62.5117 33.9101 62.5343 33.943 62.5576 33.9769C62.6097 34.0718 62.6097 34.0718 62.6097 34.2113C62.6348 34.2231 62.66 34.235 62.6859 34.2472C62.7883 34.311 62.8318 34.3679 62.9006 34.4727C63.0012 34.6222 63.1042 34.7685 63.2112 34.9123C63.236 34.9456 63.2607 34.9789 63.2862 35.0133C63.3364 35.0806 63.3867 35.1478 63.4372 35.2149C63.4603 35.246 63.4834 35.2772 63.5072 35.3092C63.5282 35.3373 63.5491 35.3653 63.5708 35.3941C63.6161 35.4663 63.6161 35.4663 63.6161 35.5593C63.6438 35.5593 63.6715 35.5593 63.7 35.5593C63.7632 35.6357 63.7632 35.6357 63.8311 35.7365C63.8537 35.7694 63.8762 35.8023 63.8995 35.8362C63.9516 35.9311 63.9516 35.9311 63.9516 36.0706C63.9762 36.0817 64.0008 36.0928 64.0262 36.1042C64.1385 36.1757 64.1923 36.2544 64.2688 36.3698C64.3689 36.5208 64.3689 36.5208 64.4848 36.6561C64.5387 36.7213 64.5387 36.7213 64.5387 36.8608C63.4269 36.8662 62.3151 36.8703 61.2033 36.8728C60.6871 36.874 60.1709 36.8757 59.6547 36.8783C59.2049 36.8806 58.755 36.8821 58.3051 36.8826C58.0669 36.8829 57.8286 36.8837 57.5904 36.8854C57.3662 36.8869 57.142 36.8874 56.9178 36.8871C56.8355 36.8871 56.7531 36.8876 56.6708 36.8885C56.5585 36.8896 56.4462 36.8894 56.3339 36.8887C56.3012 36.8894 56.2685 36.8901 56.2348 36.8908C56.0671 36.8882 55.9945 36.8707 55.8645 36.749C55.8347 36.7092 55.8049 36.6694 55.7742 36.6284C55.7353 36.5958 55.6964 36.5632 55.6563 36.5296C55.626 36.5008 55.5957 36.4721 55.5645 36.4424C55.5645 36.3964 55.5645 36.3504 55.5645 36.303C55.5368 36.303 55.5092 36.303 55.4807 36.303C55.4174 36.2351 55.4174 36.2351 55.3496 36.1461C55.3157 36.1024 55.3157 36.1024 55.2811 36.0579C55.229 35.9776 55.229 35.9776 55.229 35.8847C55.2041 35.8726 55.1791 35.8606 55.1534 35.8482C55.0539 35.7871 55.0024 35.7286 54.9303 35.6319C54.7695 35.4203 54.6002 35.2184 54.4298 35.0164C54.3484 34.9085 54.3484 34.9085 54.3484 34.8156C54.3207 34.8156 54.293 34.8156 54.2645 34.8156C54.2507 34.7849 54.2368 34.7542 54.2226 34.7226C54.055 34.7824 53.8932 34.8494 53.7315 34.9267C53.6866 34.948 53.6417 34.9694 53.5954 34.9913C53.5481 35.0139 53.5008 35.0364 53.452 35.0596C53.0413 35.2531 52.632 35.445 52.2097 35.6058C52.1699 35.6209 52.1301 35.6361 52.0891 35.6518C50.8095 36.1348 49.513 36.4486 48.1855 36.7153C48.0148 36.7494 48.0148 36.7494 47.8458 36.7924C47.7334 36.8227 47.6231 36.8272 47.5077 36.8346C47.2379 36.8543 46.9702 36.8842 46.7018 36.919C46.6088 36.9309 46.5157 36.9424 46.4226 36.9537C46.3905 36.9578 46.3584 36.9618 46.3253 36.9659C45.9939 37.0036 45.6641 37.0078 45.3311 37.008C45.2708 37.0082 45.2105 37.0083 45.1501 37.0085C45.0241 37.0088 44.8981 37.0089 44.7721 37.0088C44.6448 37.0088 44.5174 37.0092 44.39 37.0098C43.6936 37.0132 43.0042 37.0132 42.3129 36.9073C42.2599 36.8995 42.2069 36.8918 42.1523 36.8838C42.0099 36.862 41.8679 36.8384 41.7258 36.8143C41.6564 36.8032 41.6564 36.8032 41.5857 36.7919C40.0608 36.547 38.6019 36.0764 37.1968 35.3733C37.1616 35.3558 37.1263 35.3382 37.09 35.3202C36.9891 35.2696 36.8884 35.2185 36.7879 35.1671C36.7576 35.1517 36.7274 35.1364 36.6962 35.1206C36.4888 35.0125 36.4888 35.0125 36.4419 34.9085C36.4132 34.9031 36.3845 34.8977 36.355 34.8922C36.1843 34.8503 36.0534 34.7581 35.9046 34.6587C35.8735 34.6381 35.8423 34.6175 35.8102 34.5962C34.2245 33.5349 34.2245 33.5349 34.0936 33.0027C34.0659 33.0027 34.0382 33.0027 34.0097 33.0027C33.9465 32.9145 33.9465 32.9145 33.8786 32.7994C33.856 32.7616 33.8334 32.7239 33.8102 32.685C33.7581 32.5844 33.7581 32.5844 33.7581 32.4914C33.7304 32.4914 33.7027 32.4914 33.6742 32.4914C33.6183 32.4146 33.6183 32.4146 33.5563 32.3084C33.5361 32.2744 33.5159 32.2405 33.4952 32.2055C33.3961 32.0248 33.3047 31.84 33.2129 31.6548C33.196 31.621 33.179 31.5873 33.1615 31.5526C32.5 30.2324 32.5 30.2324 32.5 29.749C32.4723 29.749 32.4447 29.749 32.4161 29.749C32.4109 29.6967 32.4058 29.6444 32.4004 29.5905C32.3713 29.3321 32.319 29.0803 32.2677 28.8265C32.1716 28.3381 32.1545 27.8634 32.154 27.3638C32.154 27.3309 32.1539 27.298 32.1539 27.2641C32.1541 26.7538 32.1823 26.2599 32.2724 25.7586C32.2908 25.6556 32.3074 25.5524 32.3237 25.449C32.3803 25.1036 32.3803 25.1036 32.4161 24.9613C32.4438 24.9459 32.4715 24.9306 32.5 24.9148C32.5086 24.829 32.5171 24.7432 32.5251 24.6573C32.5584 24.4315 32.6385 24.2212 32.7123 24.0084C32.7293 23.9589 32.7464 23.9094 32.7639 23.8584C32.9061 23.4522 33.0657 23.0652 33.2548 22.6836C33.2729 22.6467 33.291 22.6098 33.3097 22.5718C33.5959 21.9909 33.9107 21.44 34.2564 20.9005C34.3058 20.8238 34.3058 20.8238 34.3452 20.7314C34.3728 20.7314 34.4005 20.7314 34.429 20.7314C34.4377 20.7007 34.4463 20.67 34.4552 20.6384C34.5806 20.3352 34.7994 20.0333 35.0161 19.8017C35.0438 19.8017 35.0715 19.8017 35.1 19.8017C35.1156 19.7629 35.1156 19.7629 35.1315 19.7233C35.1935 19.5961 35.265 19.4914 35.3516 19.3834C35.3793 19.3834 35.407 19.3834 35.4355 19.3834C35.4511 19.3446 35.4511 19.3446 35.4669 19.305C35.529 19.1778 35.6005 19.0731 35.6871 18.9651C35.7148 18.9651 35.7425 18.9651 35.771 18.9651C35.7865 18.9248 35.7865 18.9248 35.8024 18.8837C35.8625 18.7638 35.9297 18.6833 36.0226 18.5932C36.0503 18.5932 36.0779 18.5932 36.1065 18.5932C36.1151 18.5491 36.1238 18.505 36.1327 18.4596C36.1517 18.4116 36.1707 18.3637 36.1903 18.3143C36.3161 18.262 36.3161 18.262 36.4419 18.2213C36.4916 18.1346 36.4916 18.1346 36.5258 18.0354C36.6097 17.9308 36.6097 17.9308 36.6936 17.8495C36.7212 17.8495 36.7489 17.8495 36.7774 17.8495C36.7874 17.8228 36.7973 17.7961 36.8076 17.7687C36.873 17.6406 36.9498 17.5654 37.05 17.4689C37.0877 17.4323 37.1254 17.3957 37.1642 17.358C37.2026 17.3208 37.2411 17.2835 37.2807 17.2452C37.3497 17.1756 37.4188 17.1059 37.4877 17.036C37.8223 16.7028 38.1728 16.3954 38.534 16.0984C38.6486 16.0034 38.7619 15.9069 38.8748 15.8095C39.5283 15.2465 39.5283 15.2465 39.671 15.2465C39.671 15.2158 39.671 15.1851 39.671 15.1535C39.7263 15.1382 39.7817 15.1228 39.8387 15.107C39.7833 15.0137 39.7274 14.9207 39.671 14.8281C39.6543 14.8008 39.6377 14.7735 39.6205 14.7453C39.6034 14.718 39.5864 14.6907 39.5688 14.6625C39.5455 14.625 39.5455 14.625 39.5217 14.5868C39.4594 14.4962 39.4594 14.4962 39.3668 14.4023C39.2196 14.2336 39.1012 14.0491 38.979 13.8578C38.9557 13.8217 38.9324 13.7855 38.9084 13.7483C38.8627 13.6773 38.817 13.6061 38.7715 13.5348C38.7291 13.4688 38.6862 13.4031 38.6427 13.3379C38.4968 13.1179 38.4968 13.1179 38.4968 13.0153C38.4691 13 38.4414 12.9846 38.4129 12.9688C38.3606 12.8689 38.329 12.8063 38.329 12.6899C38.3014 12.6746 38.2737 12.6593 38.2452 12.6434C38.1874 12.532 38.1329 12.4207 38.08 12.3064C38.0509 12.2442 38.0217 12.182 37.9924 12.1198C37.9785 12.0899 37.9645 12.0601 37.9502 12.0293C37.9151 11.9574 37.876 11.8879 37.8361 11.8191C37.7839 11.7138 37.7839 11.7138 37.7839 11.5279C37.7562 11.5279 37.7285 11.5279 37.7 11.5279C37.4065 10.8144 37.4065 10.8144 37.4065 10.6447C37.3788 10.6294 37.3511 10.614 37.3226 10.5982C37.2819 10.486 37.2461 10.376 37.2125 10.2612C37.2029 10.2301 37.1933 10.199 37.1833 10.167C37.1325 9.99611 37.1009 9.84868 37.1129 9.66857C37.0852 9.66857 37.0576 9.66857 37.029 9.66857C36.7208 8.49671 36.5091 7.3253 36.5149 6.1011C36.5153 5.98732 36.5149 5.87357 36.5143 5.75978C36.5138 5.15865 36.5749 4.58593 36.7014 4.00062C36.7198 3.91287 36.7382 3.82511 36.7566 3.73734C36.7666 3.69023 36.7765 3.64312 36.7868 3.59458C36.8492 3.29826 36.9105 3.00165 36.9714 2.70493C36.9777 2.67394 36.9841 2.64295 36.9906 2.61102C37.1636 1.87078 37.1636 1.87078 37.2387 1.11581C37.2664 1.11581 37.2941 1.11581 37.3226 1.11581C37.3242 1.08926 37.3257 1.06272 37.3273 1.03537C37.4034 -0.00461444 37.4034 -0.00461438 37.7642 -0.00585938ZM44.2839 20.8244C44.27 20.8704 44.2562 20.9164 44.2419 20.9638C44.1306 21.0323 44.0176 21.0899 43.9012 21.1468C43.8172 21.1942 43.8172 21.1942 43.7466 21.2834C43.6288 21.4102 43.5057 21.4819 43.3613 21.5681C43.3613 21.5987 43.3613 21.6294 43.3613 21.661C43.3319 21.6725 43.3025 21.684 43.2722 21.6959C43.135 21.762 43.0199 21.841 42.9 21.9399C42.9 21.9706 42.9 22.0013 42.9 22.0329C42.8764 22.0449 42.8528 22.057 42.8284 22.0694C42.722 22.1319 42.6312 22.2043 42.5357 22.2856C42.5027 22.3134 42.4696 22.3411 42.4356 22.3697C42.3443 22.4486 42.3443 22.4486 42.3129 22.5907C42.2573 22.6074 42.2013 22.6227 42.1452 22.6372C41.9455 22.7958 41.7796 22.9928 41.6246 23.2026C41.5197 23.3371 41.4032 23.4582 41.2871 23.5808C41.2132 23.6535 41.2132 23.6535 41.2226 23.7527C41.1949 23.7527 41.1672 23.7527 41.1387 23.7527C41.0985 23.8148 41.0588 23.8775 41.0221 23.9421C40.9412 24.0838 40.8542 24.221 40.7685 24.3592C40.7122 24.4456 40.7122 24.4456 40.7194 24.5429C40.6917 24.5429 40.664 24.5429 40.6355 24.5429C40.6234 24.5957 40.6113 24.6484 40.5988 24.7027C40.5754 24.7847 40.5754 24.7847 40.5516 24.8683C40.5101 24.8913 40.5101 24.8913 40.4677 24.9148C40.428 25.0338 40.393 25.1508 40.3603 25.2721C40.3464 25.3215 40.3464 25.3215 40.3322 25.3719C40.1051 26.1955 40.1707 27.1022 40.528 27.8693C40.8591 28.5359 41.3884 29.2567 41.9774 29.656C42.0051 29.656 42.0328 29.656 42.0613 29.656C42.0613 29.6867 42.0613 29.7174 42.0613 29.749C42.8925 30.4388 43.9807 30.6996 44.9994 30.6961C45.0284 30.696 45.0575 30.696 45.0874 30.6959C46.3241 30.6903 47.4745 30.3691 48.607 29.8297C48.6888 29.7947 48.7695 29.7705 48.8548 29.749C48.8548 29.7183 48.8548 29.6876 48.8548 29.656C48.8815 29.6524 48.9081 29.6487 48.9356 29.6449C49.1187 29.5946 49.2803 29.5054 49.4498 29.4149C49.4852 29.3962 49.5206 29.3774 49.5571 29.3581C49.8069 29.2244 50.0484 29.081 50.2807 28.9123C50.2243 28.7748 50.1608 28.6741 50.0684 28.5637C49.8995 28.356 49.7533 28.1323 49.6062 27.9057C49.5664 27.8517 49.5664 27.8517 49.5258 27.7967C49.4981 27.7967 49.4705 27.7967 49.4419 27.7967C49.4316 27.7708 49.4212 27.7449 49.4105 27.7183C49.3485 27.5912 49.2738 27.4894 49.1903 27.3784C49.1566 27.3333 49.1229 27.2881 49.0881 27.2416C49.0175 27.1482 48.9467 27.0549 48.8758 26.9617C48.6599 26.677 48.4554 26.3882 48.2599 26.0863C48.2348 26.0525 48.2097 26.0187 48.1839 25.9839C48.1562 25.9839 48.1285 25.9839 48.1 25.9839C48.0862 25.947 48.0862 25.947 48.0722 25.9095C47.9956 25.7572 47.8938 25.6322 47.7907 25.5016C47.6721 25.3511 47.5581 25.2041 47.4615 25.035C47.4369 24.9953 47.4124 24.9557 47.3871 24.9148C47.3594 24.9148 47.3317 24.9148 47.3032 24.9148C47.2613 24.8218 47.2194 24.7289 47.1774 24.6359C47.1497 24.6359 47.1221 24.6359 47.0936 24.6359C47.0832 24.611 47.0728 24.5861 47.0621 24.5604C46.9742 24.3753 46.8787 24.2119 46.745 24.0636C46.6161 23.9208 46.5116 23.7661 46.4038 23.6037C46.3823 23.5762 46.3608 23.5487 46.3387 23.5203C46.311 23.5203 46.2834 23.5203 46.2548 23.5203C46.2133 23.4053 46.2133 23.4053 46.171 23.2879C46.1433 23.2879 46.1156 23.2879 46.0871 23.2879C46.0771 23.2543 46.0671 23.2207 46.0568 23.1861C45.995 23.0354 45.9206 22.9451 45.8171 22.826C45.6507 22.6284 45.4952 22.4263 45.3454 22.213C45.3261 22.1855 45.3067 22.1581 45.2868 22.1297C45.2008 22.0068 45.1157 21.8833 45.0312 21.7591C45.0051 21.721 44.9791 21.6829 44.9522 21.6436C44.9301 21.6106 44.908 21.5777 44.8852 21.5437C44.8667 21.5211 44.8481 21.4984 44.829 21.4751C44.8014 21.4751 44.7737 21.4751 44.7452 21.4751C44.7348 21.4495 44.7245 21.4238 44.7139 21.3974C44.6508 21.2676 44.5743 21.1599 44.4909 21.0451C44.461 21.0037 44.4311 20.9622 44.4003 20.9195C44.3758 20.8881 44.3512 20.8567 44.3258 20.8244C44.312 20.8244 44.2981 20.8244 44.2839 20.8244Z" fill="#CECDCD"/>
<path d="M63.2806 0C75.9015 0 88.5225 0 101.526 0C101.451 0.166037 101.397 0.252563 101.274 0.371859C101.247 0.371859 101.219 0.371859 101.19 0.371859C101.18 0.398703 101.17 0.425546 101.159 0.453204C101.099 0.5731 101.032 0.653599 100.939 0.743719C100.911 0.743719 100.883 0.743719 100.855 0.743719C100.844 0.770562 100.834 0.797406 100.823 0.825063C100.763 0.94496 100.696 1.02546 100.603 1.11558C100.576 1.11558 100.548 1.11558 100.519 1.11558C100.509 1.14242 100.499 1.16927 100.488 1.19692C100.428 1.31682 100.361 1.39732 100.268 1.48744C100.24 1.48744 100.212 1.48744 100.184 1.48744C100.173 1.51428 100.163 1.54112 100.152 1.56878C100.092 1.68868 100.025 1.76918 99.9323 1.8593C99.9046 1.8593 99.8769 1.8593 99.8484 1.8593C99.8389 1.89381 99.8294 1.92832 99.8196 1.96388C99.7536 2.1171 99.6759 2.17616 99.5548 2.27764C99.5322 2.3257 99.5322 2.3257 99.5091 2.37472C99.401 2.4947 99.3084 2.48646 99.1604 2.48878C99.1232 2.48842 99.086 2.48806 99.0477 2.48769C99.0082 2.48804 98.9687 2.48839 98.9281 2.48875C98.7951 2.48969 98.6623 2.48931 98.5294 2.48894C98.4343 2.48935 98.3393 2.48984 98.2442 2.4904C97.9857 2.4917 97.7272 2.49185 97.4686 2.49181C97.1986 2.49195 96.9287 2.49314 96.6587 2.49422C96.2053 2.4959 95.752 2.49692 95.2987 2.49745C94.8317 2.498 94.3648 2.49894 93.8978 2.5004C93.869 2.50049 93.8403 2.50058 93.8106 2.50068C93.6663 2.50113 93.5219 2.50159 93.3775 2.50206C92.1796 2.50591 90.9818 2.5084 89.7839 2.51005C89.7839 2.54073 89.7839 2.57141 89.7839 2.60302C89.7562 2.60302 89.7285 2.60302 89.7 2.60302C89.6896 2.62986 89.6792 2.6567 89.6685 2.68436C89.6085 2.80426 89.5413 2.88476 89.4484 2.97487C89.4207 2.97487 89.393 2.97487 89.3645 2.97487C89.3541 3.00172 89.3438 3.02856 89.3331 3.05622C89.273 3.17612 89.2058 3.25661 89.1129 3.34673C89.0852 3.34673 89.0575 3.34673 89.029 3.34673C89.0187 3.37358 89.0083 3.40042 88.9976 3.42808C88.9452 3.53266 88.9452 3.53266 88.7774 3.71859C91.8773 3.71859 94.9772 3.71859 98.171 3.71859C98.1207 3.94145 98.0221 4.04015 97.8784 4.19431C97.8531 4.22205 97.8278 4.2498 97.8017 4.27838C97.7207 4.36714 97.6392 4.45542 97.5577 4.54366C97.4512 4.65944 97.345 4.77544 97.2389 4.89155C97.2134 4.91936 97.1879 4.94717 97.1617 4.97583C97.0095 5.14279 96.8638 5.31255 96.7289 5.49714C96.4568 5.82215 96.4568 5.82215 96.2302 5.83729C96.1596 5.83752 96.0889 5.83646 96.0183 5.83438C95.9597 5.83408 95.9597 5.83408 95.8999 5.83377C95.7692 5.83283 95.6385 5.83024 95.5077 5.82768C95.4139 5.8267 95.32 5.82584 95.2262 5.82508C95.0241 5.82328 94.822 5.82083 94.6199 5.81791C94.2998 5.81345 93.9797 5.8114 93.6595 5.80987C93.2101 5.80758 92.7607 5.80509 92.3113 5.80173C92.2828 5.80152 92.2543 5.80131 92.2249 5.80109C91.7642 5.79759 91.3034 5.79181 90.8427 5.78537C90.3685 5.77883 89.8944 5.7756 89.4202 5.77501C89.1543 5.77455 88.8887 5.77255 88.6229 5.76682C88.3724 5.76142 88.1221 5.75998 87.8716 5.76145C87.7802 5.7613 87.6888 5.75974 87.5974 5.75658C87.1189 5.74085 86.7965 5.77636 86.4374 6.15143C86.2483 6.36866 86.0765 6.59716 85.9106 6.83635C85.8879 6.8659 85.8653 6.89544 85.8419 6.92588C85.8143 6.92588 85.7866 6.92588 85.7581 6.92588C85.7581 6.9719 85.7581 7.01791 85.7581 7.06533C90.4286 7.08834 90.4286 7.08834 95.1936 7.11181C95.0847 7.35308 94.9537 7.53297 94.7663 7.70155C94.643 7.80332 94.643 7.80332 94.5645 7.94849C94.5368 7.94849 94.5092 7.94849 94.4806 7.94849C94.4806 7.99451 94.4806 8.04053 94.4806 8.08794C94.453 8.08794 94.4253 8.08794 94.3968 8.08794C94.3968 8.11862 94.3968 8.1493 94.3968 8.1809C94.3553 8.1809 94.3137 8.1809 94.271 8.1809C94.2571 8.22692 94.2433 8.27294 94.229 8.32035C94.2014 8.32035 94.1737 8.32035 94.1452 8.32035C94.1452 8.36637 94.1452 8.41239 94.1452 8.4598C94.1175 8.4598 94.0898 8.4598 94.0613 8.4598C94.0613 8.49048 94.0613 8.52116 94.0613 8.55276C94.0198 8.55276 93.9783 8.55276 93.9355 8.55276C93.9216 8.59878 93.9078 8.6448 93.8936 8.69221C93.8659 8.69221 93.8382 8.69221 93.8097 8.69221C93.7984 8.72193 93.7872 8.75165 93.7756 8.78227C93.7258 8.87814 93.7258 8.87814 93.6 8.92462C93.5862 8.97064 93.5723 9.01666 93.5581 9.06407C93.5304 9.06407 93.5027 9.06407 93.4742 9.06407C93.4638 9.09091 93.4534 9.11776 93.4427 9.14542C93.3826 9.26531 93.3155 9.34581 93.2226 9.43593C93.1949 9.43593 93.1672 9.43593 93.1387 9.43593C93.1292 9.46164 93.1197 9.48734 93.1099 9.51382C93.0387 9.65344 92.9482 9.75065 92.8452 9.86299C92.808 9.90391 92.7708 9.94484 92.7325 9.987C92.6055 10.1175 92.5456 10.139 92.3776 10.1389C92.3409 10.139 92.3042 10.1391 92.2664 10.1392C92.2258 10.139 92.1853 10.1389 92.1435 10.1388C92.0792 10.1388 92.0792 10.1388 92.0136 10.1389C91.8689 10.139 91.7243 10.1387 91.5797 10.1384C91.4764 10.1384 91.3731 10.1384 91.2698 10.1385C91.0469 10.1385 90.8241 10.1383 90.6012 10.1381C90.2789 10.1377 89.9567 10.1376 89.6344 10.1375C89.1117 10.1374 88.5889 10.1371 88.0661 10.1367C87.5582 10.1362 87.0503 10.1359 86.5423 10.1357C86.4954 10.1357 86.4954 10.1357 86.4475 10.1357C86.2905 10.1356 86.1335 10.1356 85.9765 10.1355C84.6736 10.135 83.3707 10.1342 82.0677 10.1332C82.0622 10.1746 82.0567 10.216 82.051 10.2586C82.0437 10.313 82.0363 10.3674 82.0287 10.4234C82.0179 10.5042 82.0179 10.5042 82.0068 10.5866C81.9796 10.7653 81.938 10.9256 81.8869 11.0977C81.7771 11.4837 81.7088 11.8754 81.6406 12.2726C81.5868 12.5808 81.5198 12.8718 81.4295 13.1694C81.3785 13.3633 81.363 13.5577 81.3548 13.7588C81.3272 13.7588 81.2995 13.7588 81.271 13.7588C81.2749 13.8379 81.2749 13.8379 81.2788 13.9186C81.2789 14.0662 81.2615 14.1804 81.2154 14.3186C81.1348 14.5755 81.0773 14.8368 81.0194 15.101C80.9937 15.2165 80.968 15.3321 80.9422 15.4476C80.9352 15.4788 80.9283 15.51 80.9211 15.5421C80.8618 15.8072 80.8005 16.0718 80.7387 16.3362C80.5547 17.1252 80.3717 17.9129 80.2167 18.7096C80.1557 19.023 80.0871 19.3317 80.01 19.6408C79.9575 19.857 79.9119 20.0747 79.8665 20.2928C79.8312 20.462 79.7946 20.6307 79.7554 20.7989C79.7476 20.8324 79.7398 20.8659 79.7318 20.9004C79.7102 20.9929 79.6882 21.0854 79.6663 21.1778C79.6395 21.3147 79.6288 21.4288 79.6355 21.5678C79.6078 21.5678 79.5801 21.5678 79.5516 21.5678C79.5516 21.6906 79.5516 21.8133 79.5516 21.9397C79.5239 21.9397 79.4963 21.9397 79.4677 21.9397C79.4345 22.1871 79.4078 22.4347 79.3839 22.6834C79.3562 22.6834 79.3285 22.6834 79.3 22.6834C79.2952 22.735 79.2905 22.7866 79.2856 22.8398C79.2591 23.0747 79.2071 23.3 79.1532 23.5288C79.1344 23.6098 79.1156 23.6909 79.0969 23.7719C79.0886 23.8073 79.0803 23.8427 79.0717 23.8791C79.0557 23.9516 79.0413 24.0245 79.0281 24.0977C79.0045 24.2281 78.9762 24.3565 78.947 24.4855C78.9352 24.5378 78.9234 24.59 78.9112 24.6438C78.8985 24.6996 78.8858 24.7554 78.8728 24.8129C78.8596 24.8709 78.8465 24.929 78.833 24.9888C78.7816 25.216 78.7301 25.4431 78.6785 25.6702C78.5488 26.2421 78.4215 26.8144 78.2981 27.388C78.2424 27.6467 78.1853 27.9049 78.1258 28.1625C78.0495 28.497 77.9828 28.8336 77.9161 29.1706C77.8389 29.5605 77.7577 29.9469 77.6616 30.3316C77.6169 30.5161 77.5774 30.7015 77.5387 30.8876C77.487 31.136 77.4316 31.3824 77.371 31.6284C77.3081 31.8847 77.2538 32.1416 77.2032 32.4011C77.1556 32.6449 77.1042 32.8851 77.0407 33.1245C76.8577 33.815 76.7113 34.5166 76.5716 35.2191C76.5559 35.2973 76.5559 35.2973 76.5399 35.3771C76.4897 35.6281 76.4405 35.8793 76.3933 36.131C76.3759 36.2202 76.3584 36.3094 76.3409 36.3986C76.3337 36.4396 76.3264 36.4805 76.3189 36.5227C76.3114 36.5599 76.3039 36.5972 76.2962 36.6356C76.2901 36.668 76.284 36.7004 76.2778 36.7338C76.2175 36.8577 76.1498 36.8665 76.029 36.907C75.9046 36.915 75.7843 36.9181 75.6599 36.9165C75.6228 36.9163 75.5856 36.9162 75.5473 36.9161C75.4228 36.9156 75.2983 36.9145 75.1737 36.9133C75.0845 36.9128 74.9952 36.9124 74.9059 36.912C74.6635 36.9108 74.4211 36.909 74.1787 36.9071C73.9254 36.9052 73.6721 36.9038 73.4188 36.9024C72.939 36.8997 72.4593 36.8964 71.9796 36.893C71.4335 36.8892 70.8874 36.8859 70.3413 36.8826C69.2178 36.8758 68.0944 36.8684 66.971 36.8606C66.9978 36.6145 67.0311 36.3759 67.0786 36.1334C67.0851 36.1002 67.0915 36.067 67.0982 36.0328C67.1194 35.9242 67.1408 35.8157 67.1623 35.7072C67.1775 35.6301 67.1926 35.5529 67.2078 35.4758C67.3466 34.771 67.4907 34.0676 67.6374 33.3647C67.6704 33.2067 67.7033 33.0486 67.7361 32.8905C67.782 32.6692 67.8281 32.4479 67.8742 32.2266C67.892 32.1414 67.9097 32.0562 67.9274 31.9709C68.0396 31.4305 68.1597 30.8933 68.2893 30.3577C68.4553 29.6715 68.6178 28.9856 68.7454 28.289C68.7886 28.0576 68.8432 27.8381 68.9133 27.615C68.9555 27.4714 68.9803 27.326 69.0048 27.1777C69.0721 26.7889 69.1562 26.4079 69.2538 26.0272C69.3223 25.7541 69.3711 25.4772 69.4218 25.1996C69.473 24.9259 69.5422 24.6638 69.6206 24.3982C69.671 24.2003 69.6884 24.0038 69.6968 23.799C69.7245 23.799 69.7521 23.799 69.7806 23.799C69.7806 23.6763 69.7806 23.5536 69.7806 23.4271C69.8083 23.4271 69.836 23.4271 69.8645 23.4271C69.8666 23.4002 69.8686 23.3732 69.8707 23.3454C69.8897 23.1258 69.9272 22.9396 69.9903 22.7299C70.009 22.5909 70.0216 22.4516 70.0323 22.3116C70.0599 22.3116 70.0876 22.3116 70.1161 22.3116C70.1161 22.1888 70.1161 22.0661 70.1161 21.9397C70.1438 21.9397 70.1715 21.9397 70.2 21.9397C70.2045 21.8896 70.2089 21.8395 70.2135 21.7878C70.2431 21.5274 70.3026 21.2765 70.3612 21.0226C70.3731 20.97 70.3851 20.9174 70.3974 20.8632C70.423 20.7506 70.4487 20.6381 70.4744 20.5256C70.542 20.2304 70.609 19.9351 70.676 19.6397C70.696 19.552 70.696 19.552 70.7163 19.4625C70.8243 18.9873 70.9297 18.5115 71.0335 18.0352C71.1562 17.4722 71.2815 16.91 71.4088 16.3483C71.4984 15.9531 71.5857 15.5575 71.6685 15.1606C71.7107 14.9608 71.7557 14.7619 71.8009 14.563C71.8888 14.1751 71.9751 13.7868 72.0609 13.3984C72.0732 13.3425 72.0856 13.2865 72.0983 13.2289C72.1494 12.9979 72.2004 12.7668 72.2513 12.5357C72.2891 12.3643 72.327 12.1928 72.3649 12.0213C72.3771 11.9665 72.3892 11.9116 72.4017 11.855C72.4816 11.4956 72.5642 11.1372 72.6528 10.7803C72.7023 10.5779 72.731 10.3898 72.7581 10.1796C68.0529 10.1643 63.3477 10.149 58.5 10.1332C58.5 9.95305 58.5677 9.83641 58.6442 9.68287C58.6667 9.63675 58.6667 9.63675 58.6897 9.58971C58.8142 9.33608 58.9433 9.08532 59.072 8.83427C59.1969 8.5888 59.3116 8.33883 59.4242 8.08622C59.5243 7.86165 59.6266 7.63855 59.7319 7.41685C59.7459 7.38686 59.7599 7.35686 59.7743 7.32596C59.8741 7.11723 59.8741 7.11723 59.9677 7.06533C59.9835 7.00388 59.9973 6.94178 60.0097 6.8794C60.0587 6.7618 60.1089 6.64624 60.1617 6.53078C60.1767 6.49758 60.1918 6.46439 60.2073 6.43019C60.3181 6.18847 60.4389 5.95519 60.5643 5.72242C60.6494 5.55713 60.7256 5.38844 60.8012 5.21765C60.9318 4.92239 61.0718 4.63483 61.2197 4.34978C61.3268 4.1429 61.4245 3.93268 61.5194 3.71859C61.547 3.71859 61.5747 3.71859 61.6032 3.71859C61.605 3.68216 61.6067 3.64573 61.6085 3.6082C61.6527 3.40499 61.7363 3.2629 61.8391 3.08945C61.8985 2.97153 61.9157 2.87368 61.9387 2.74246C61.9664 2.72712 61.9941 2.71178 62.0226 2.69598C61.9949 2.6653 61.9672 2.63462 61.9387 2.60302C61.9941 2.60302 62.0494 2.60302 62.1065 2.60302C62.1177 2.56179 62.1289 2.52057 62.1405 2.47809C62.1875 2.33281 62.2446 2.22328 62.3161 2.09171C62.3817 1.94592 62.4454 1.79922 62.5089 1.6523C62.5677 1.53392 62.5677 1.53392 62.6516 1.48744C62.6664 1.42568 62.6802 1.36365 62.6935 1.30151C62.7289 1.21927 62.7662 1.13806 62.8048 1.05766C62.8381 0.987776 62.8381 0.987776 62.872 0.916484C62.8953 0.8681 62.9186 0.819716 62.9425 0.769865C62.9884 0.67411 63.0343 0.578303 63.08 0.482437C63.1004 0.440048 63.1207 0.397659 63.1417 0.353986C63.1938 0.238983 63.2375 0.119472 63.2806 0Z" fill="#CECDCD"/>
<path d="M23.3161 0C26.4298 0 29.5435 0 32.7516 0C32.7046 0.572841 32.7046 0.572841 32.6651 0.793106C32.6357 0.953339 32.6357 0.953339 32.6258 1.11558C32.5981 1.11558 32.5704 1.11558 32.5419 1.11558C32.5344 1.20474 32.5344 1.20474 32.5267 1.2957C32.5026 1.53469 32.458 1.7649 32.4083 1.99874C32.3991 2.04274 32.3899 2.08673 32.3805 2.13205C32.331 2.36863 32.2799 2.60477 32.2279 2.84069C32.2068 2.93674 32.1856 3.03279 32.1645 3.12885C32.154 3.17666 32.1435 3.22446 32.1327 3.27372C32.0446 3.67972 31.969 4.08786 31.8982 4.49796C31.8564 4.73837 31.8063 4.9706 31.7452 5.20603C31.7098 5.38275 31.6778 5.56022 31.6456 5.73767C31.5869 6.05639 31.5261 6.37302 31.4516 6.68766C31.3632 7.06601 31.2988 7.44868 31.2351 7.83299C31.1872 8.11923 31.1317 8.40111 31.0664 8.68309C31.0071 8.94104 30.9523 9.20018 30.8973 9.45931C30.884 9.52188 30.8707 9.58443 30.8572 9.64696C30.8375 9.73878 30.818 9.83065 30.7985 9.92254C30.787 9.97644 30.7755 10.0303 30.7637 10.0859C30.7333 10.2327 30.7333 10.2327 30.7387 10.4121C30.711 10.4121 30.6834 10.4121 30.6548 10.4121C30.6564 10.4577 30.6579 10.5033 30.6594 10.5502C30.6592 10.7509 30.6231 10.9351 30.5814 11.1296C30.5739 11.1662 30.5663 11.2027 30.5585 11.2404C30.5031 11.5055 30.4433 11.7693 30.3825 12.0329C30.3176 12.3176 30.263 12.6045 30.2101 12.8921C30.1785 13.0632 30.1448 13.2326 30.1048 13.4015C30.0612 13.5736 30.0612 13.5736 30.0677 13.7588C30.0401 13.7588 30.0124 13.7588 29.9839 13.7588C29.9789 13.8182 29.9739 13.8777 29.9688 13.9389C29.9447 14.1783 29.8983 14.408 29.8476 14.642C29.7556 15.0767 29.6738 15.513 29.5976 15.9515C29.5477 16.2349 29.4901 16.5147 29.4249 16.7943C29.3982 16.9131 29.3763 17.0319 29.3548 17.152C29.3349 17.2477 29.3145 17.3433 29.2939 17.4389C29.1679 18.0273 29.0448 18.6156 28.9381 19.2089C28.9248 19.2826 28.9248 19.2826 28.9113 19.3579C28.8684 19.5781 28.8684 19.5781 28.8516 19.8015C28.8239 19.8015 28.7963 19.8015 28.7677 19.8015C28.7641 19.8327 28.7605 19.8639 28.7568 19.8961C28.6807 20.4955 28.5645 21.0915 28.4273 21.6773C28.3959 21.8212 28.3752 21.9553 28.3641 22.1024C28.361 22.1422 28.3578 22.182 28.3546 22.223C28.3526 22.2522 28.3505 22.2814 28.3484 22.3116C28.3207 22.3116 28.293 22.3116 28.2645 22.3116C28.2319 22.59 28.2049 22.8687 28.1806 23.1482C28.153 23.1482 28.1253 23.1482 28.0968 23.1482C28.0924 23.2043 28.088 23.2603 28.0835 23.318C28.0536 23.6158 27.9918 23.9052 27.9317 24.197C27.9205 24.2519 27.9094 24.3067 27.898 24.3632C27.8526 24.5864 27.8068 24.8092 27.7549 25.0306C27.724 25.172 27.704 25.3045 27.6931 25.4491C27.69 25.4889 27.6869 25.5287 27.6836 25.5697C27.6816 25.5989 27.6795 25.6282 27.6774 25.6583C27.6497 25.6583 27.6221 25.6583 27.5935 25.6583C27.5887 25.7092 27.5839 25.76 27.579 25.8124C27.5512 26.0584 27.5005 26.2974 27.4494 26.5386C27.4311 26.6261 27.4128 26.7137 27.3945 26.8013C27.3857 26.8432 27.3769 26.8852 27.3678 26.9284C27.3302 27.109 27.2941 27.29 27.2581 27.4711C27.2857 27.4864 27.3134 27.5018 27.3419 27.5176C27.3004 27.5176 27.2589 27.5176 27.2161 27.5176C27.2114 27.5761 27.2066 27.6346 27.2017 27.6948C27.1716 27.9954 27.1047 28.2852 27.0407 28.5787C26.9839 28.8451 26.9448 29.1041 26.9226 29.3769C26.8949 29.3769 26.8672 29.3769 26.8387 29.3769C26.834 29.4267 26.8293 29.4766 26.8245 29.528C26.7948 29.791 26.7414 30.048 26.6893 30.3065C26.6795 30.3558 26.6697 30.4052 26.6596 30.456C26.6356 30.5766 26.6114 30.6972 26.5871 30.8178C26.6148 30.8332 26.6425 30.8485 26.671 30.8643C26.6294 30.8643 26.5879 30.8643 26.5452 30.8643C26.5399 30.9248 26.5347 30.9854 26.5293 31.0477C26.5072 31.2679 26.4678 31.4798 26.422 31.6952C26.3024 32.2045 26.3024 32.2045 26.2516 32.7236C26.2239 32.7236 26.1963 32.7236 26.1677 32.7236C26.1643 32.7763 26.1608 32.8291 26.1573 32.8834C26.1363 33.0936 26.0954 33.2962 26.0505 33.5013C26.0352 33.572 26.02 33.6427 26.0048 33.7134C25.9931 33.7677 25.9931 33.7677 25.9812 33.8231C25.9148 34.1357 25.853 34.4495 25.7903 34.763C25.7756 34.8366 25.7608 34.9101 25.7461 34.9836C25.6613 35.4069 25.5777 35.8304 25.5011 36.2556C25.4592 36.4838 25.4592 36.4838 25.4129 36.5352C25.3975 36.6434 25.3834 36.7519 25.371 36.8606C22.9659 36.8666 20.5609 36.8725 18.1559 36.8778C18.1025 36.8779 18.1025 36.8779 18.0481 36.878C17.2751 36.8797 16.5021 36.8814 15.7291 36.8831C15.3501 36.8839 14.971 36.8847 14.592 36.8855C14.5543 36.8856 14.5165 36.8857 14.4777 36.8858C13.2541 36.8884 12.0306 36.8914 10.807 36.8945C9.55007 36.8977 8.29314 36.9006 7.03621 36.9031C6.85885 36.9034 6.68148 36.9038 6.50412 36.9041C6.46921 36.9042 6.4343 36.9043 6.39833 36.9044C5.83545 36.9055 5.27257 36.907 4.7097 36.9086C4.14438 36.9101 3.57907 36.9114 3.01375 36.9123C2.67752 36.9128 2.34129 36.9137 2.00506 36.9148C1.75454 36.9157 1.50403 36.9161 1.25352 36.9162C1.15175 36.9164 1.04999 36.9167 0.948222 36.9172C0.810662 36.9178 0.673111 36.9178 0.53555 36.9178C0.475293 36.9182 0.475293 36.9182 0.413819 36.9187C0.377349 36.9186 0.34088 36.9184 0.303305 36.9183C0.271823 36.9184 0.24034 36.9184 0.207904 36.9185C0.125807 36.907 0.125806 36.907 0 36.8141C0.0205604 36.7748 0.0205604 36.7748 0.0415362 36.7348C0.280412 36.2779 0.516689 35.8223 0.725353 35.3473C0.807934 35.1622 0.895054 34.9801 0.982863 34.7979C1.14998 34.4503 1.31023 34.0994 1.46786 33.7465C1.51087 33.6506 1.55428 33.555 1.59781 33.4594C1.62698 33.3952 1.65613 33.331 1.68528 33.2669C1.70626 33.2207 1.70626 33.2207 1.72766 33.1736C1.82932 32.9484 1.92346 32.7202 2.01258 32.4885C2.05484 32.3982 2.05484 32.3982 2.13871 32.3518C2.16742 32.264 2.16742 32.264 2.18589 32.1629C2.19291 32.1288 2.19994 32.0947 2.20718 32.0596C2.2148 32.0202 2.2148 32.0202 2.22258 31.9799C2.25026 31.9799 2.27794 31.9799 2.30645 31.9799C2.32363 31.9188 2.32363 31.9188 2.34116 31.8564C2.38723 31.7108 2.44099 31.582 2.50597 31.4457C2.5286 31.398 2.55123 31.3502 2.57454 31.301C2.59851 31.2508 2.62248 31.2007 2.64718 31.149C2.69664 31.0447 2.74605 30.9404 2.79543 30.836C2.81943 30.7853 2.84344 30.7346 2.86818 30.6823C2.98214 30.4396 3.09152 30.1944 3.20037 29.9488C3.40162 29.511 3.40162 29.511 3.48064 29.4234C3.55453 29.4186 3.62858 29.4171 3.70258 29.4169C3.75102 29.4167 3.79945 29.4164 3.84936 29.4162C3.93019 29.4161 3.93019 29.4161 4.01265 29.416C4.06994 29.4158 4.12723 29.4156 4.18452 29.4153C4.34269 29.4147 4.50086 29.4143 4.65902 29.414C4.82931 29.4137 4.9996 29.413 5.16988 29.4124C5.46516 29.4114 5.76044 29.4106 6.05572 29.4098C6.48265 29.4088 6.90957 29.4075 7.3365 29.4061C8.02909 29.4039 8.72167 29.4019 9.41426 29.4C10.0872 29.3982 10.7602 29.3962 11.4331 29.3942C11.4746 29.3941 11.516 29.3939 11.5587 29.3938C11.7667 29.3932 11.9746 29.3925 12.1826 29.3919C13.9088 29.3866 15.635 29.3816 17.3613 29.3769C17.3882 29.2575 17.4152 29.1381 17.4421 29.0186C17.4497 28.985 17.4573 28.9513 17.4651 28.9167C17.5758 28.4262 17.685 27.9381 17.7597 27.4391C17.7946 27.2072 17.8367 26.9848 17.8986 26.7593C17.9898 26.4244 18.0556 26.0846 18.1214 25.7425C18.132 25.6873 18.1426 25.6321 18.1536 25.5752C18.2091 25.2833 18.2611 24.9914 18.3058 24.6972C18.3252 24.5925 18.3522 24.4973 18.3861 24.3975C18.4633 24.1594 18.4962 23.9139 18.5317 23.6649C18.5527 23.5211 18.5752 23.388 18.6172 23.2496C18.6823 23.0311 18.7167 22.8074 18.7556 22.5817C18.9117 21.6986 19.0931 20.822 19.2764 19.9455C19.3635 19.5288 19.449 19.1118 19.5341 18.6946C19.5405 18.6632 19.5469 18.6318 19.5535 18.5994C19.5718 18.5098 19.59 18.4202 19.6083 18.3306C19.6188 18.2791 19.6292 18.2277 19.64 18.1747C19.6646 18.0509 19.6875 17.927 19.7097 17.8028C19.8008 17.3217 19.8925 16.8407 20.0032 16.3647C20.1347 15.7953 20.2355 15.2175 20.3385 14.6411C20.3841 14.388 20.4333 14.1358 20.4829 13.8837C20.4914 13.8399 20.5 13.7961 20.5088 13.7509C20.6288 13.1396 20.7591 12.5309 20.888 11.9218C20.9073 11.8306 20.9265 11.7394 20.9458 11.6482C20.9571 11.5948 20.9683 11.5415 20.98 11.4865C21.0057 11.3611 21.0293 11.2355 21.0516 11.1093C21.1436 10.6234 21.2367 10.1378 21.3478 9.65672C21.4772 9.0944 21.5896 8.52637 21.66 7.95104C21.6668 7.91952 21.6736 7.888 21.6806 7.85553C21.7083 7.84019 21.736 7.82485 21.7645 7.80905C21.7748 7.71592 21.7846 7.62269 21.7922 7.52924C21.8095 7.36148 21.8359 7.1963 21.8641 7.03047C21.8739 6.97222 21.8838 6.91398 21.8939 6.85398C21.9428 6.58211 22.001 6.31257 22.0581 6.04271C22.0703 5.98485 22.0825 5.92698 22.095 5.86736C22.1399 5.65435 22.1849 5.44134 22.2299 5.22836C22.2492 5.13716 22.2685 5.04595 22.2877 4.95473C22.3046 4.8747 22.3046 4.8747 22.3219 4.79305C22.3476 4.66759 22.3712 4.54207 22.3935 4.41583C22.4856 3.92993 22.5787 3.4443 22.6897 2.96325C22.806 2.45804 22.9087 1.94767 22.9806 1.43224C23.0508 0.942289 23.1747 0.470236 23.3161 0Z" fill="#CECDCD"/>
<path d="M125.345 22.8227C125.392 22.8489 125.439 22.8751 125.488 22.902C125.954 23.1727 126.421 23.5622 126.687 24.0777C126.687 24.1084 126.687 24.1391 126.687 24.1707C126.715 24.1707 126.742 24.1707 126.771 24.1707C127.179 25.1117 127.287 26.1317 127.023 27.1456C126.97 27.3088 126.915 27.469 126.854 27.6285C126.805 27.75 126.805 27.75 126.813 27.8893C126.771 27.8893 126.73 27.8893 126.687 27.8893C126.682 27.9159 126.677 27.9425 126.673 27.9699C126.643 28.0852 126.6 28.1711 126.543 28.2728C126.525 28.3056 126.507 28.3384 126.488 28.3723C126.462 28.4093 126.462 28.4093 126.435 28.4471C126.408 28.4471 126.38 28.4471 126.352 28.4471C126.352 28.5084 126.352 28.5698 126.352 28.633C126.31 28.633 126.269 28.633 126.226 28.633C126.215 28.6627 126.203 28.6924 126.192 28.7231C126.142 28.8189 126.142 28.8189 126.016 28.8654C126.016 28.9114 126.016 28.9574 126.016 29.0049C125.927 29.0711 125.927 29.0711 125.806 29.1443C125.725 29.2089 125.644 29.2738 125.563 29.339C125.354 29.5019 125.14 29.6417 124.913 29.7689C124.886 29.7842 124.859 29.7996 124.831 29.8153C124.642 29.9176 124.46 29.9773 124.255 30.0275C124.283 30.0428 124.31 30.0582 124.339 30.074C124.339 30.1046 124.339 30.1353 124.339 30.1669C124.368 30.1775 124.398 30.188 124.428 30.1989C124.808 30.3913 125.015 30.7734 125.164 31.1935C125.186 31.2627 125.208 31.3321 125.23 31.4016C125.24 31.4325 125.249 31.4633 125.26 31.4952C125.516 32.377 125.534 33.3432 125.606 34.2593C125.676 35.1399 125.777 36.0023 125.974 36.8604C125.689 36.9188 125.406 36.9136 125.117 36.913C125.035 36.9131 125.035 36.9131 124.953 36.9132C124.839 36.9132 124.725 36.9131 124.611 36.9129C124.465 36.9127 124.319 36.9128 124.173 36.9131C124.033 36.9133 123.893 36.9132 123.754 36.913C123.701 36.9131 123.649 36.9132 123.595 36.9133C123.547 36.9132 123.498 36.913 123.448 36.9129C123.405 36.9128 123.363 36.9128 123.319 36.9128C123.218 36.9075 123.134 36.8922 123.039 36.8604C122.95 36.3364 122.886 35.8094 122.829 35.28C122.825 35.2467 122.822 35.2134 122.818 35.1791C122.777 34.7853 122.74 34.3913 122.709 33.9963C122.707 33.96 122.704 33.9237 122.701 33.8863C122.688 33.7112 122.675 33.5361 122.663 33.361C122.658 33.2977 122.654 33.2345 122.649 33.1712C122.645 33.116 122.642 33.0609 122.638 33.004C122.62 32.8715 122.593 32.7924 122.535 32.677C122.529 32.6079 122.529 32.6079 122.522 32.5375C122.488 32.2117 122.334 31.8969 122.2 31.6079C122.158 31.6079 122.117 31.6079 122.074 31.6079C122.045 31.5724 122.015 31.5369 121.985 31.5004C121.792 31.3005 121.581 31.236 121.319 31.236C121.319 31.2053 121.319 31.1747 121.319 31.1431C120.946 31.1431 120.572 31.1431 120.187 31.1431C120.173 31.3118 120.159 31.4805 120.145 31.6544C120.118 31.7979 120.118 31.7979 120.087 31.9147C120 32.2788 119.949 32.6484 119.894 33.0198C119.873 33.1596 119.852 33.2994 119.831 33.4392C119.826 33.4732 119.82 33.5071 119.815 33.5421C119.773 33.8125 119.722 34.0801 119.669 34.348C119.634 34.5305 119.61 34.7113 119.59 34.8965C119.586 34.9283 119.582 34.96 119.578 34.9927C119.555 35.1646 119.555 35.1646 119.6 35.3265C119.558 35.3265 119.517 35.3265 119.474 35.3265C119.472 35.3571 119.47 35.3877 119.468 35.4192C119.444 35.7443 119.401 36.0608 119.346 36.381C119.338 36.4275 119.33 36.474 119.322 36.5218C119.303 36.6347 119.284 36.7476 119.265 36.8604C118.917 36.8686 118.569 36.8763 118.221 36.8834C118.06 36.8867 117.898 36.8902 117.737 36.894C117.581 36.8978 117.425 36.901 117.269 36.904C117.21 36.9052 117.15 36.9065 117.091 36.9081C117.008 36.9102 116.925 36.9117 116.841 36.9132C116.794 36.9142 116.746 36.9152 116.698 36.9163C116.581 36.9069 116.581 36.9069 116.455 36.8139C116.465 36.757 116.474 36.7002 116.484 36.6415C116.661 35.6004 116.837 34.559 117.008 33.5166C117.015 33.4744 117.022 33.4322 117.029 33.3887C117.093 32.9969 117.157 32.605 117.22 32.2131C117.247 32.0472 117.274 31.8813 117.301 31.7154C117.306 31.6841 117.312 31.6529 117.317 31.6207C117.391 31.1637 117.472 30.7081 117.555 30.253C117.672 29.6154 117.771 28.9738 117.86 28.3309C117.881 28.2147 117.881 28.2147 117.921 28.0598C117.966 27.8846 117.998 27.711 118.027 27.5319C118.033 27.4992 118.038 27.4664 118.044 27.4327C118.081 27.2059 118.116 26.9787 118.149 26.7512C118.183 26.5279 118.219 26.3051 118.255 26.0823C118.263 26.0378 118.27 25.9934 118.277 25.9476C118.319 25.6967 118.364 25.4478 118.415 25.1991C118.461 24.9734 118.48 24.7732 118.468 24.5425C118.495 24.5425 118.523 24.5425 118.552 24.5425C118.556 24.4953 118.561 24.448 118.566 24.3993C118.601 24.094 118.649 23.7912 118.696 23.488C118.705 23.4267 118.714 23.3654 118.723 23.3041C118.732 23.2457 118.741 23.1874 118.751 23.1272C118.759 23.0743 118.767 23.0214 118.775 22.9669C118.826 22.7043 118.826 22.7043 118.887 22.5903C118.996 22.544 118.996 22.544 119.135 22.52C119.186 22.5107 119.238 22.5015 119.29 22.4919C119.346 22.483 119.402 22.4742 119.458 22.4654C119.516 22.4556 119.574 22.4459 119.632 22.4361C120.137 22.3523 120.641 22.2938 121.152 22.2649C121.192 22.2625 121.192 22.2625 121.234 22.2599C122.58 22.1795 124.114 22.1234 125.345 22.8227ZM121.319 24.8214C121.319 24.8521 121.319 24.8828 121.319 24.9144C121.292 24.9144 121.264 24.9144 121.235 24.9144C121.107 25.5866 120.98 26.2583 120.878 26.9362C120.818 27.3296 120.747 27.7201 120.672 28.1103C120.664 28.1563 120.655 28.2023 120.646 28.2497C120.639 28.2901 120.631 28.3305 120.623 28.3722C120.605 28.5071 120.604 28.6362 120.606 28.7724C120.8 28.7748 120.994 28.7764 121.188 28.7776C121.254 28.778 121.319 28.7786 121.385 28.7795C122.106 28.7882 122.749 28.6966 123.374 28.2611C123.374 28.2305 123.374 28.1998 123.374 28.1682C123.399 28.1548 123.424 28.1413 123.45 28.1275C123.55 28.073 123.55 28.073 123.668 27.9822C123.668 27.9516 123.668 27.9209 123.668 27.8893C123.695 27.8893 123.723 27.8893 123.752 27.8893C123.876 27.7204 123.876 27.7204 123.919 27.5174C123.947 27.5174 123.975 27.5174 124.003 27.5174C124.03 27.4284 124.057 27.3393 124.084 27.2501C124.1 27.2005 124.115 27.1509 124.13 27.0998C124.264 26.6399 124.285 26.0973 124.087 25.6581C124.062 25.6006 124.062 25.6006 124.037 25.5419C124.026 25.5189 124.015 25.4959 124.003 25.4722C123.976 25.4722 123.948 25.4722 123.919 25.4722C123.909 25.4434 123.899 25.4147 123.888 25.385C123.827 25.27 123.778 25.2421 123.668 25.1933C123.668 25.1626 123.668 25.1319 123.668 25.1003C123.253 24.8391 122.798 24.7536 122.326 24.7285C122.292 24.7266 122.259 24.7246 122.225 24.7227C121.918 24.7138 121.621 24.7675 121.319 24.8214Z" fill="#CECDCD"/>
<path d="M96.3258 22.3583C97.2945 22.3583 98.2632 22.3583 99.2613 22.3583C99.4079 22.7915 99.4079 22.7915 99.4579 22.9712C99.4737 23.0269 99.4737 23.0269 99.4898 23.0836C99.5143 23.2017 99.517 23.3066 99.5129 23.4274C99.5406 23.4274 99.5683 23.4274 99.5968 23.4274C99.6082 23.4736 99.6082 23.4736 99.6197 23.5207C99.7538 24.0642 99.8901 24.6048 100.055 25.1377C100.155 25.4624 100.233 25.7911 100.31 26.1233C100.344 26.2602 100.379 26.397 100.414 26.5337C100.435 26.6346 100.435 26.6346 100.435 26.7741C100.463 26.7741 100.491 26.7741 100.519 26.7741C100.522 26.8005 100.524 26.8269 100.527 26.8542C100.549 27.0761 100.574 27.297 100.603 27.5178C100.631 27.5178 100.659 27.5178 100.687 27.5178C100.703 27.4598 100.703 27.4598 100.718 27.4007C100.778 27.2164 100.856 27.0526 100.941 26.8816C101.058 26.6487 101.058 26.6487 101.148 26.4022C101.176 26.4022 101.204 26.4022 101.232 26.4022C101.238 26.375 101.243 26.3477 101.249 26.3197C101.29 26.1526 101.368 26.0051 101.442 25.8532C101.459 25.8183 101.476 25.7835 101.493 25.7475C101.702 25.3169 101.93 24.8999 102.168 24.4881C102.327 24.2112 102.48 23.9302 102.632 23.6481C102.787 23.36 102.787 23.36 102.865 23.2213C102.926 23.1089 102.977 22.9961 103.023 22.8756C103.214 22.416 103.214 22.416 103.406 22.3195C103.632 22.2599 103.861 22.2782 104.091 22.2902C104.164 22.2915 104.238 22.2925 104.312 22.2932C104.505 22.2958 104.698 22.3026 104.891 22.3104C105.088 22.3175 105.285 22.3207 105.483 22.3242C105.869 22.3317 106.256 22.3435 106.642 22.3583C106.642 22.4043 106.642 22.4503 106.642 22.4977C106.614 22.4977 106.587 22.4977 106.558 22.4977C106.558 22.5591 106.558 22.6204 106.558 22.6836C106.49 22.7629 106.42 22.84 106.348 22.916C106.262 23.0404 106.182 23.17 106.102 23.2995C105.941 23.557 105.778 23.8095 105.598 24.0518C105.544 24.1224 105.544 24.1224 105.552 24.2176C105.483 24.296 105.413 24.3735 105.342 24.45C105.328 24.4806 105.314 24.5113 105.3 24.5429C105.272 24.5429 105.245 24.5429 105.216 24.5429C105.201 24.5918 105.201 24.5918 105.185 24.6417C105.125 24.7937 105.054 24.9214 104.965 25.0542C104.937 25.0542 104.909 25.0542 104.881 25.0542C104.865 25.1031 104.865 25.1031 104.849 25.153C104.79 25.305 104.718 25.4327 104.629 25.5655C104.601 25.5655 104.574 25.5655 104.545 25.5655C104.53 25.6133 104.53 25.6133 104.515 25.662C104.45 25.8261 104.365 25.9683 104.273 26.1146C104.256 26.1424 104.239 26.1702 104.221 26.1988C104.178 26.2684 104.131 26.3356 104.084 26.4022C104.056 26.4022 104.029 26.4022 104 26.4022C103.986 26.4636 103.972 26.5249 103.958 26.5882C103.93 26.5882 103.903 26.5882 103.874 26.5882C103.866 26.6198 103.857 26.6514 103.848 26.684C103.783 26.8368 103.702 26.937 103.602 27.0617C103.527 27.1613 103.474 27.2696 103.418 27.3834C103.339 27.5298 103.241 27.6594 103.145 27.7925C103.072 27.8939 103.072 27.8939 103.001 28.032C102.985 28.0617 102.969 28.0915 102.952 28.1221C102.924 28.1221 102.896 28.1221 102.868 28.1221C102.852 28.171 102.852 28.171 102.836 28.2209C102.777 28.3729 102.705 28.5005 102.616 28.6334C102.588 28.6334 102.561 28.6334 102.532 28.6334C102.522 28.666 102.512 28.6986 102.501 28.7322C102.441 28.8842 102.37 29.0118 102.281 29.1447C102.253 29.1447 102.225 29.1447 102.197 29.1447C102.169 29.2214 102.141 29.2981 102.113 29.3771C102.085 29.3771 102.058 29.3771 102.029 29.3771C102.116 29.8155 102.223 30.2142 102.391 30.6241C102.454 30.7854 102.498 30.9457 102.54 31.1147C102.576 31.2424 102.62 31.3617 102.668 31.4844C102.809 31.8531 102.925 32.2303 103.044 32.6081C103.156 32.9667 103.273 33.3213 103.409 33.6701C103.474 33.8437 103.525 34.0212 103.577 34.1997C103.658 34.4689 103.751 34.7337 103.842 34.9991C103.894 35.1518 103.946 35.3047 103.997 35.4576C104.008 35.4874 104.018 35.5173 104.028 35.5481C104.115 35.8043 104.2 36.0608 104.286 36.3175C104.298 36.3556 104.311 36.3936 104.324 36.4329C104.336 36.4684 104.348 36.504 104.36 36.5407C104.37 36.5722 104.381 36.6037 104.392 36.6362C104.416 36.7107 104.439 36.7857 104.461 36.8608C104.378 36.9068 104.295 36.9528 104.21 37.0002C104.21 36.9542 104.21 36.9082 104.21 36.8608C104.176 36.8613 104.142 36.8618 104.107 36.8623C103.788 36.867 103.469 36.8705 103.15 36.8728C102.986 36.874 102.822 36.8757 102.658 36.8783C102.5 36.8808 102.341 36.8822 102.183 36.8828C102.123 36.8833 102.062 36.8841 102.002 36.8853C101.917 36.887 101.833 36.8871 101.748 36.8872C101.7 36.8877 101.652 36.8882 101.602 36.8887C101.484 36.8608 101.484 36.8608 101.408 36.7533C101.323 36.5388 101.274 36.3519 101.274 36.1171C101.247 36.1017 101.219 36.0864 101.19 36.0706C101.169 35.994 101.148 35.9171 101.129 35.8395C101.09 35.679 101.041 35.5226 100.993 35.3653C100.971 35.2925 100.948 35.2196 100.926 35.1467C100.892 35.0336 100.858 34.9205 100.823 34.8075C100.59 34.0409 100.59 34.0409 100.502 33.6635C100.476 33.5557 100.445 33.451 100.412 33.3455C100.349 33.1416 100.306 32.9351 100.268 32.7238C100.24 32.7238 100.212 32.7238 100.184 32.7238C100.18 32.6682 100.175 32.6126 100.171 32.5553C100.15 32.3701 100.093 32.2397 100.016 32.0731C99.9904 31.9629 99.9696 31.8528 99.9503 31.741C99.9395 31.6545 99.9395 31.6545 99.8903 31.6083C99.6162 32.0834 99.3606 32.5675 99.1774 33.0957C99.1498 33.0957 99.1221 33.0957 99.0936 33.0957C99.0834 33.127 99.0732 33.1584 99.0628 33.1907C98.998 33.3585 98.9161 33.5119 98.8315 33.668C98.7935 33.7388 98.7555 33.8096 98.7176 33.8804C98.6971 33.9186 98.6767 33.9568 98.6556 33.9962C98.5375 34.2173 98.4212 34.4395 98.3047 34.6616C98.1089 35.0339 97.9125 35.4059 97.7149 35.7772C97.6836 35.8362 97.6836 35.8362 97.6516 35.8965C97.6111 35.9723 97.57 36.0477 97.5279 36.1224C97.4547 36.257 97.4547 36.257 97.3985 36.4104C97.318 36.5968 97.2547 36.7137 97.1226 36.8608C96.8696 36.9457 96.6271 36.9316 96.3651 36.9198C96.2913 36.9187 96.2175 36.9178 96.1437 36.9172C95.9503 36.9149 95.7571 36.909 95.5638 36.9023C95.3662 36.8961 95.1686 36.8933 94.9709 36.8903C94.5838 36.8838 94.1967 36.8735 93.8097 36.8608C93.8365 36.6968 93.8643 36.5863 93.9538 36.4511C93.972 36.423 93.9901 36.3949 94.0087 36.366C94.0261 36.3452 94.0434 36.3244 94.0613 36.303C94.089 36.303 94.1167 36.303 94.1452 36.303C94.1583 36.2573 94.1583 36.2573 94.1717 36.2107C94.2509 36.0171 94.3615 35.8574 94.4754 35.6871C94.5251 35.6119 94.5747 35.5368 94.6243 35.4616C94.6494 35.4236 94.6746 35.3856 94.7004 35.3464C94.8117 35.1767 94.92 35.0049 95.0284 34.833C95.2181 34.5328 95.4139 34.2385 95.6163 33.9487C95.7329 33.7796 95.8239 33.6144 95.9065 33.4211C95.993 33.2874 95.993 33.2874 96.0742 33.1887C96.1019 33.1887 96.1296 33.1887 96.1581 33.1887C96.1685 33.1551 96.1788 33.1216 96.1895 33.087C96.2471 32.9434 96.3142 32.8396 96.4097 32.7238C96.4374 32.7238 96.465 32.7238 96.4936 32.7238C96.4984 32.6972 96.5032 32.6706 96.5081 32.6432C96.5381 32.5279 96.5805 32.442 96.6377 32.3404C96.6558 32.3075 96.6739 32.2747 96.6926 32.2409C96.7186 32.2038 96.7186 32.2038 96.7452 32.166C96.7729 32.166 96.8005 32.166 96.829 32.166C96.829 32.1047 96.829 32.0433 96.829 31.9801C96.8968 31.9004 96.9671 31.8232 97.0387 31.7477C97.1073 31.6469 97.1733 31.5464 97.2379 31.4427C97.2746 31.3848 97.3113 31.3269 97.348 31.2691C97.3663 31.2402 97.3846 31.2114 97.4035 31.1817C97.4859 31.0537 97.5715 30.9287 97.6573 30.8035C97.7928 30.6054 97.9186 30.4038 98.0371 30.1927C98.0536 30.169 98.0701 30.1453 98.0871 30.1208C98.1148 30.1208 98.1425 30.1208 98.171 30.1208C98.1747 30.0946 98.1783 30.0683 98.1821 30.0413C98.2212 29.9062 98.2881 29.8282 98.3702 29.7199C98.4826 29.5503 98.4826 29.5503 98.5022 29.3479C98.4693 29.2272 98.4294 29.1191 98.3807 29.0052C98.2933 28.7895 98.2264 28.5798 98.171 28.3516C98.0541 27.8891 97.9004 27.4412 97.7484 26.9919C97.6517 26.7051 97.5603 26.4196 97.4838 26.1254C97.4523 26.0089 97.4125 25.898 97.369 25.7863C97.3063 25.6192 97.2733 25.4659 97.2484 25.2867C97.2207 25.2713 97.193 25.256 97.1645 25.2402C97.1362 25.1552 97.1362 25.1552 97.1095 25.0426C97.0476 24.799 96.9679 24.567 96.8828 24.3323C96.8408 24.2063 96.8044 24.0826 96.7704 23.9539C96.6866 23.6379 96.585 23.329 96.4846 23.019C96.4701 22.9738 96.4557 22.9285 96.4408 22.8819C96.4278 22.8415 96.4147 22.8012 96.4013 22.7596C96.3678 22.6372 96.3678 22.6372 96.3258 22.3583Z" fill="#CECDCD"/>
<path d="M130 22.3115C132.491 22.3115 134.982 22.3115 137.548 22.3115C137.642 22.5184 137.635 22.5648 137.596 22.7822C137.561 22.964 137.561 22.964 137.548 23.1482C137.521 23.1482 137.493 23.1482 137.465 23.1482C137.458 23.216 137.458 23.216 137.452 23.2851C137.413 23.6909 137.36 24.0918 137.294 24.4933C137.283 24.5606 137.283 24.5606 137.272 24.6292C137.218 24.9487 137.218 24.9487 137.171 25.054C134.784 25.077 134.784 25.077 132.348 25.1005C132.279 25.5146 132.21 25.9288 132.139 26.3555C132.111 26.4935 132.083 26.6316 132.055 26.7738C132.037 26.8801 132.02 26.9867 132.005 27.0934C131.998 27.1441 131.99 27.1948 131.982 27.247C131.963 27.3817 131.963 27.3817 132.013 27.5176C131.971 27.5176 131.93 27.5176 131.887 27.5176C131.866 27.7937 131.866 27.7937 131.845 28.0753C133.34 28.0753 134.834 28.0753 136.374 28.0753C136.238 29.1821 136.238 29.1821 136.121 29.6568C136.063 29.9042 136.032 30.1574 136.002 30.4106C135.99 30.5006 135.973 30.5897 135.955 30.6784C135.823 30.7755 135.795 30.7829 135.645 30.7825C135.589 30.7827 135.589 30.7827 135.531 30.7829C135.49 30.7826 135.449 30.7822 135.407 30.7819C135.363 30.7819 135.32 30.7819 135.275 30.7819C135.132 30.7819 134.988 30.7811 134.844 30.7804C134.745 30.7802 134.645 30.7801 134.546 30.78C134.284 30.7796 134.022 30.7787 133.76 30.7777C133.492 30.7768 133.225 30.7763 132.958 30.7759C132.433 30.7749 131.909 30.7733 131.384 30.7713C131.349 30.9681 131.315 31.1648 131.281 31.3616C131.269 31.4283 131.257 31.4951 131.246 31.5618C130.99 32.5352 130.99 32.5352 131.006 33.4673C130.965 33.4673 130.923 33.4673 130.881 33.4673C130.867 33.6821 130.853 33.8968 130.839 34.1181C132.499 34.1334 134.16 34.1487 135.871 34.1645C135.824 34.7922 135.824 34.7922 135.773 35.1062C135.765 35.156 135.765 35.156 135.757 35.2067C135.74 35.3106 135.723 35.4145 135.706 35.5183C135.695 35.588 135.683 35.6577 135.672 35.7273C135.651 35.8601 135.629 35.9929 135.607 36.1256C135.589 36.2343 135.571 36.3431 135.554 36.4519C135.547 36.4937 135.54 36.5354 135.533 36.5784C135.527 36.6133 135.521 36.6483 135.516 36.6844C135.494 36.7676 135.494 36.7676 135.41 36.8605C135.307 36.8703 135.209 36.8742 135.106 36.8741C135.058 36.8746 135.058 36.8746 135.01 36.8751C134.903 36.8761 134.797 36.8765 134.69 36.8768C134.614 36.8774 134.538 36.878 134.461 36.8787C134.254 36.8804 134.046 36.8814 133.839 36.8824C133.622 36.8835 133.405 36.885 133.188 36.8864C132.824 36.8888 132.46 36.8908 132.096 36.8925C131.674 36.8945 131.253 36.8972 130.831 36.9003C130.47 36.9029 130.109 36.9051 129.747 36.907C129.531 36.9082 129.315 36.9095 129.099 36.9111C128.896 36.9126 128.693 36.9136 128.49 36.9143C128.415 36.9146 128.34 36.9151 128.266 36.9157C128.164 36.9166 128.062 36.9169 127.961 36.917C127.931 36.9174 127.901 36.9178 127.871 36.9182C127.718 36.9178 127.657 36.9109 127.526 36.814C127.531 36.7838 127.536 36.7536 127.541 36.7225C127.563 36.5836 127.585 36.4446 127.607 36.3056C127.615 36.2581 127.622 36.2107 127.63 36.1617C127.674 35.8838 127.71 35.6075 127.735 35.3266C127.763 35.3266 127.791 35.3266 127.819 35.3266C127.821 35.2933 127.823 35.2601 127.826 35.2258C127.882 34.3998 127.882 34.3998 127.983 34.0247C128.056 33.7505 128.094 33.4666 128.139 33.1855C128.149 33.1272 128.158 33.069 128.168 33.0089C128.177 32.9526 128.186 32.8962 128.196 32.8382C128.208 32.7617 128.208 32.7617 128.221 32.6836C128.242 32.5375 128.242 32.5375 128.236 32.3881C128.239 32.2588 128.239 32.2588 128.323 32.1193C128.346 32.0226 128.346 32.0226 128.36 31.9143C128.366 31.8728 128.373 31.8312 128.379 31.7884C128.385 31.7432 128.392 31.6981 128.399 31.6516C128.413 31.5542 128.428 31.4568 128.443 31.3594C128.454 31.2832 128.454 31.2832 128.466 31.2054C128.506 30.9516 128.551 30.6988 128.595 30.4459C128.719 29.7433 128.833 29.0386 128.931 28.331C128.952 28.2148 128.952 28.2148 128.991 28.0674C129.036 27.8888 129.068 27.7107 129.096 27.5283C129.101 27.4948 129.106 27.4612 129.112 27.4267C129.128 27.3205 129.145 27.2142 129.161 27.1079C129.183 26.9682 129.205 26.8284 129.227 26.6887C129.235 26.6384 129.235 26.6384 129.243 26.5872C129.271 26.4061 129.302 26.2259 129.335 26.0459C129.367 25.8762 129.386 25.7093 129.397 25.5362C129.4 25.4887 129.403 25.4411 129.407 25.3921C129.409 25.3572 129.411 25.3223 129.413 25.2864C129.441 25.2864 129.468 25.2864 129.497 25.2864C129.498 25.2603 129.499 25.2341 129.5 25.2072C129.518 24.9061 129.565 24.6168 129.62 24.3219C129.783 23.6781 129.783 23.6781 129.748 23.0552C129.79 23.0552 129.831 23.0552 129.874 23.0552C129.876 23.0249 129.878 22.9946 129.88 22.9634C129.884 22.9227 129.887 22.8821 129.89 22.8403C129.893 22.8004 129.896 22.7604 129.899 22.7193C129.916 22.5904 129.916 22.5904 130 22.3115Z" fill="#CECDCD"/>
<path d="M95.1516 22.3115C95.1378 22.557 95.1239 22.8024 95.1097 23.0552C95.082 23.0552 95.0543 23.0552 95.0258 23.0552C95.0247 23.0814 95.0236 23.1075 95.0225 23.1344C94.9966 23.5604 94.9139 23.9721 94.8357 24.3892C94.8032 24.5667 94.7756 24.7451 94.7488 24.9238C94.7323 25.0075 94.7323 25.0075 94.6903 25.054C94.6277 25.0584 94.5649 25.0597 94.5022 25.0596C94.4616 25.0596 94.4209 25.0597 94.3791 25.0598C94.3341 25.0596 94.2892 25.0594 94.2429 25.0593C94.1723 25.0593 94.1723 25.0593 94.1003 25.0593C93.944 25.0593 93.7876 25.0589 93.6313 25.0585C93.5232 25.0584 93.4152 25.0584 93.3071 25.0583C93.0512 25.0582 92.7953 25.0578 92.5394 25.0573C92.2481 25.0568 91.9569 25.0566 91.6656 25.0563C91.0663 25.0558 90.467 25.055 89.8677 25.054C89.8592 25.1112 89.8592 25.1112 89.8504 25.1695C89.8429 25.2196 89.8354 25.2697 89.8277 25.3214C89.8165 25.3958 89.8165 25.3958 89.8051 25.4718C89.7805 25.634 89.754 25.7956 89.7265 25.9573C89.7189 26.0022 89.7189 26.0022 89.7112 26.0479C89.6953 26.1418 89.6793 26.2356 89.6633 26.3293C89.6531 26.3896 89.6429 26.4498 89.6323 26.5119C89.5438 27.0332 89.4541 27.5543 89.3645 28.0753C90.8591 28.0753 92.3537 28.0753 93.8935 28.0753C93.9074 28.1367 93.9212 28.1981 93.9355 28.2613C93.9078 28.3073 93.8801 28.3533 93.8516 28.4007C93.8252 28.5361 93.8024 28.6698 93.7822 28.8064C93.776 28.8464 93.7698 28.8865 93.7634 28.9278C93.7436 29.0561 93.7242 29.1845 93.7048 29.3129C93.6854 29.4403 93.6659 29.5677 93.6463 29.6951C93.6341 29.7743 93.6221 29.8535 93.6102 29.9327C93.572 30.1833 93.526 30.4308 93.4742 30.6784C93.229 30.7724 93.0128 30.7827 92.7547 30.7776C92.7129 30.7772 92.6711 30.7767 92.6281 30.7763C92.4908 30.7747 92.3536 30.7725 92.2163 30.7702C92.1208 30.769 92.0253 30.7678 91.9299 30.7667C91.6791 30.7636 91.4284 30.7599 91.1776 30.7562C90.9216 30.7524 90.6655 30.7492 90.4094 30.7459C89.9073 30.7394 89.4053 30.7323 88.9032 30.7248C88.8573 31.0035 88.8116 31.2822 88.7682 31.5613C88.755 31.6463 88.755 31.6463 88.7415 31.733C88.7282 31.8193 88.7282 31.8193 88.7145 31.9072C88.7056 31.9645 88.6967 32.0219 88.6875 32.0809C88.6458 32.3491 88.6047 32.6173 88.5653 32.8859C88.5367 33.077 88.5026 33.2647 88.4603 33.4528C88.4091 33.6907 88.3767 33.921 88.3581 34.1645C88.3857 34.1492 88.4134 34.1339 88.4419 34.1181C88.5084 34.1143 88.575 34.1135 88.6415 34.1142C88.7046 34.1147 88.7046 34.1147 88.7691 34.1152C88.8386 34.1161 88.8386 34.1161 88.9096 34.117C88.9582 34.1175 89.0069 34.1179 89.0571 34.1184C89.2186 34.1199 89.3802 34.1218 89.5418 34.1237C89.6535 34.1248 89.7653 34.1259 89.8771 34.127C90.1416 34.1296 90.4061 34.1325 90.6706 34.1354C90.9717 34.1387 91.2728 34.1418 91.5739 34.1449C92.1933 34.1511 92.8128 34.1577 93.4323 34.1645C93.4323 34.3026 93.4323 34.4406 93.4323 34.5829C93.4046 34.5829 93.3769 34.5829 93.3484 34.5829C93.346 34.6336 93.346 34.6336 93.3436 34.6853C93.3409 34.732 93.3381 34.7788 93.3353 34.8269C93.3316 34.8949 93.3316 34.8949 93.3279 34.9642C93.2977 35.2127 93.2355 35.4552 93.1806 35.6985C93.1253 36.0819 93.0699 36.4654 93.0129 36.8605C90.3974 36.8605 87.7819 36.8605 85.0871 36.8605C85.134 36.2886 85.134 36.2886 85.1867 36.0384C85.3275 35.3404 85.4316 34.6347 85.5407 33.9299C85.5491 33.8758 85.5575 33.8217 85.5661 33.7659C85.582 33.6616 85.5974 33.5572 85.6124 33.4527C85.6483 33.2029 85.6946 32.9668 85.7581 32.7236C85.7869 32.5586 85.8104 32.3928 85.8341 32.2268C85.9071 31.7264 85.9865 31.2276 86.0694 30.7291C86.078 30.6766 86.0866 30.6242 86.0955 30.5701C86.1032 30.5237 86.1109 30.4772 86.1189 30.4294C86.1396 30.2966 86.1396 30.2966 86.1355 30.1206C86.1632 30.1206 86.1908 30.1206 86.2194 30.1206C86.2209 30.0868 86.2225 30.053 86.2241 30.0182C86.2384 29.7756 86.2601 29.5474 86.319 29.3129C86.3871 29.0331 86.4248 28.7514 86.4605 28.4646C86.4663 28.4188 86.4722 28.373 86.4782 28.3258C86.4834 28.2828 86.4886 28.2398 86.4939 28.1955C86.4986 28.1567 86.5033 28.1179 86.5081 28.078C86.5202 27.9794 86.5202 27.9794 86.471 27.8894C86.5125 27.8894 86.554 27.8894 86.5968 27.8894C86.5984 27.851 86.5984 27.851 86.6001 27.8119C86.626 27.3907 86.7036 26.9821 86.7769 26.5687C86.8324 26.2554 86.887 25.9419 86.9411 25.6283C86.9607 25.5152 86.9806 25.4022 87.0004 25.2891C87.0651 24.917 87.1223 24.5499 87.1419 24.1708C87.1696 24.1708 87.1973 24.1708 87.2258 24.1708C87.2279 24.1415 87.2299 24.1121 87.232 24.0818C87.2677 23.6089 87.3098 23.1383 87.4355 22.6834C87.4503 22.5751 87.4643 22.4666 87.4774 22.358C88.4594 22.3519 89.4414 22.3459 90.4235 22.3398C90.8794 22.337 91.3354 22.3342 91.7913 22.3314C92.1886 22.3289 92.5859 22.3265 92.9832 22.324C93.1937 22.3227 93.4041 22.3214 93.6146 22.3201C93.8125 22.3189 94.0105 22.3177 94.2084 22.3165C94.2812 22.316 94.354 22.3156 94.4268 22.3151C94.5259 22.3145 94.625 22.3139 94.7241 22.3133C94.7676 22.313 94.7676 22.313 94.812 22.3127C94.9252 22.312 95.0384 22.3115 95.1516 22.3115Z" fill="#CECDCD"/>
<path d="M112.154 22.2562C112.226 22.2622 112.226 22.2622 112.301 22.2683C112.64 22.2986 112.97 22.3489 113.303 22.4236C113.441 22.4565 113.441 22.4565 113.603 22.4508C113.603 22.4815 113.603 22.5122 113.603 22.5438C113.655 22.5503 113.655 22.5503 113.707 22.5569C113.885 22.5972 114.036 22.6698 114.201 22.753C114.246 22.7754 114.246 22.7754 114.292 22.7982C114.399 22.8511 114.505 22.9042 114.61 22.9621C114.61 22.9928 114.61 23.0235 114.61 23.0551C114.64 23.0503 114.67 23.0455 114.701 23.0406C114.868 23.0611 114.914 23.1547 115.029 23.2875C115.09 23.3488 115.152 23.4101 115.214 23.4708C115.545 23.7981 115.804 24.1408 115.994 24.589C115.994 24.6197 115.994 24.6504 115.994 24.682C116.021 24.6973 116.049 24.7127 116.077 24.7285C116.11 24.8308 116.138 24.9348 116.164 25.0393C116.178 25.0961 116.193 25.1528 116.207 25.2113C116.487 26.4515 116.276 27.8625 115.706 28.9644C115.49 29.3629 115.246 29.7034 114.945 30.0275C114.907 30.069 114.868 30.1105 114.828 30.1533C114.189 30.8177 114.189 30.8177 113.939 30.8177C113.925 30.8484 113.911 30.879 113.897 30.9106C113.23 31.3293 112.47 31.5379 111.716 31.6544C111.672 31.6615 111.672 31.6615 111.628 31.6689C110.929 31.7808 110.005 31.9054 109.326 31.6544C109.327 31.6994 109.328 31.7445 109.328 31.7909C109.326 31.9333 109.326 31.9333 109.284 31.9797C109.267 32.0767 109.252 32.1742 109.238 32.2719C109.229 32.3364 109.219 32.401 109.21 32.4655C109.205 32.5003 109.2 32.5351 109.195 32.5709C109.087 33.3203 108.965 34.0666 108.838 34.8123C108.827 34.8816 108.827 34.8816 108.814 34.9524C108.762 35.2631 108.708 35.5737 108.655 35.8843C108.599 36.2064 108.544 36.5285 108.487 36.8604C107.588 36.8604 106.688 36.8604 105.761 36.8604C105.761 36.6917 105.761 36.5229 105.761 36.3491C105.789 36.3491 105.817 36.3491 105.845 36.3491C105.849 36.3034 105.853 36.2576 105.858 36.2105C105.905 35.7077 105.984 35.2155 106.073 34.7198C106.171 34.1641 106.26 33.6067 106.348 33.0488C106.555 31.7393 106.555 31.7393 106.663 31.1895C106.829 30.3393 106.959 29.4788 107.083 28.62C107.116 28.3924 107.153 28.1704 107.206 27.9473C107.261 27.6951 107.298 27.4385 107.339 27.1833C107.349 27.1249 107.358 27.0664 107.368 27.0062C107.377 26.9499 107.386 26.8936 107.396 26.8356C107.404 26.7847 107.412 26.7337 107.421 26.6812C107.442 26.5445 107.442 26.5445 107.436 26.4183C107.439 26.2929 107.471 26.2335 107.523 26.123C107.542 26.0229 107.559 25.9221 107.574 25.821C107.583 25.7614 107.591 25.7018 107.6 25.6404C107.609 25.5776 107.618 25.5147 107.627 25.4519C107.636 25.3906 107.645 25.3294 107.654 25.2682C107.689 25.0323 107.723 24.7964 107.755 24.56C107.789 24.2983 107.834 24.053 107.9 23.7988C107.94 23.5575 107.972 23.3147 108.005 23.0721C108.012 23.0235 108.019 22.975 108.026 22.9249C108.032 22.8807 108.038 22.8366 108.044 22.791C108.068 22.6833 108.068 22.6833 108.152 22.5903C108.793 22.3834 109.49 22.3311 110.154 22.2736C110.187 22.2707 110.22 22.2678 110.255 22.2647C110.89 22.2097 111.517 22.2019 112.154 22.2562ZM110.458 24.9144C110.42 25.0356 110.42 25.0356 110.398 25.1811C110.388 25.2369 110.378 25.2926 110.368 25.35C110.358 25.4111 110.348 25.4721 110.338 25.5332C110.327 25.5959 110.316 25.6586 110.305 25.7213C110.22 26.21 110.143 26.7001 110.07 27.191C110.029 27.4605 109.984 27.7274 109.931 27.9942C109.882 28.2436 109.844 28.4896 109.821 28.7434C109.818 28.7781 109.814 28.8129 109.811 28.8487C109.803 28.9317 109.795 29.0148 109.787 29.0978C110.645 29.3471 111.625 29.2262 112.392 28.7347C112.969 28.3347 113.306 27.7994 113.47 27.0671C113.572 26.5167 113.508 25.9523 113.226 25.4722C113.084 25.2899 112.913 25.125 112.723 25.0074C112.681 25.0074 112.64 25.0074 112.597 25.0074C112.597 24.9767 112.597 24.946 112.597 24.9144C112.542 24.9077 112.488 24.901 112.432 24.8941C112.267 24.8737 112.267 24.8737 112.219 24.8214C111.956 24.7639 111.693 24.7681 111.425 24.7691C111.381 24.769 111.337 24.7688 111.292 24.7686C110.855 24.7523 110.855 24.7523 110.458 24.9144Z" fill="#CECDCD"/>
<path d="M145.013 22.0792C145.067 22.0888 145.122 22.0984 145.178 22.1083C145.662 22.205 146.243 22.3559 146.648 22.6835C146.714 22.8162 146.687 22.884 146.65 23.031C146.629 23.0955 146.607 23.1598 146.585 23.2238C146.568 23.2759 146.568 23.2759 146.551 23.329C146.456 23.6147 146.356 23.8985 146.255 24.1816C146.191 24.3608 146.131 24.5405 146.075 24.7231C146.064 24.7596 146.053 24.7961 146.041 24.8337C146.02 24.9037 145.999 24.9738 145.979 25.044C145.954 25.1263 145.924 25.2067 145.894 25.2865C145.741 25.3427 145.712 25.3192 145.568 25.2509C145.528 25.2326 145.489 25.2142 145.448 25.1953C145.406 25.1756 145.363 25.1558 145.32 25.1354C144.414 24.7294 143.376 24.5669 142.427 24.9126C142.04 25.1032 141.77 25.3919 141.606 25.8229C141.511 26.1628 141.573 26.4584 141.7 26.7739C141.719 26.8401 141.719 26.8401 141.739 26.9076C141.775 27.0122 141.775 27.0122 141.86 27.0483C141.966 27.1074 142.036 27.1799 142.122 27.2707C142.45 27.5991 142.834 27.8271 143.217 28.0673C144.277 28.7336 144.277 28.7336 144.468 28.9121C144.468 28.9428 144.468 28.9735 144.468 29.0051C144.492 29.0178 144.516 29.0305 144.541 29.0436C144.797 29.1915 145 29.3737 145.139 29.6558C145.139 29.6865 145.139 29.7172 145.139 29.7488C145.166 29.7488 145.194 29.7488 145.223 29.7488C145.319 29.8787 145.395 30.0243 145.474 30.1672C145.496 30.2063 145.518 30.2455 145.541 30.2859C145.795 30.7672 145.918 31.2848 145.935 31.8405C145.937 31.8804 145.939 31.9202 145.941 31.9613C145.966 33.1059 145.634 34.1497 145.013 35.0478C144.99 35.0846 144.967 35.1214 144.943 35.1593C144.924 35.1839 144.906 35.2084 144.887 35.2337C144.859 35.2337 144.832 35.2337 144.803 35.2337C144.803 35.2644 144.803 35.2951 144.803 35.3267C144.776 35.3267 144.748 35.3267 144.719 35.3267C144.719 35.3574 144.719 35.3881 144.719 35.4197C144.086 36.0704 144.086 36.0704 143.797 36.0704C143.783 36.1164 143.769 36.1625 143.755 36.2099C143.641 36.2582 143.641 36.2582 143.503 36.3028C143.425 36.3389 143.347 36.3757 143.27 36.4132C141.624 37.1711 139.45 37.1474 137.8 36.3958C137.698 36.3453 137.599 36.2913 137.499 36.236C137.45 36.2092 137.401 36.1824 137.35 36.1548C137.222 36.0758 137.114 35.9901 137.003 35.8845C137.151 35.3843 137.307 34.8887 137.493 34.4041C137.579 34.1778 137.659 33.9491 137.74 33.7205C137.796 33.5702 137.858 33.426 137.926 33.2815C138.149 33.375 138.357 33.4976 138.569 33.6183C138.843 33.7683 139.131 33.868 139.425 33.9584C139.47 33.9729 139.47 33.9729 139.517 33.9877C140.389 34.2572 141.426 34.3481 142.244 33.8574C142.563 33.6301 142.791 33.3365 142.896 32.9287C142.967 32.5276 142.924 32.1555 142.748 31.794C142.675 31.6968 142.6 31.6135 142.513 31.5309C142.484 31.5001 142.484 31.5001 142.455 31.4687C142.455 31.438 142.455 31.4073 142.455 31.3757C142.431 31.3629 142.407 31.3502 142.382 31.337C142.287 31.2826 142.198 31.2225 142.108 31.1582C142.057 31.1221 142.057 31.1221 142.006 31.0854C141.935 31.0353 141.865 30.9852 141.795 30.935C141.633 30.8204 141.473 30.7124 141.3 30.62C141.155 30.539 141.155 30.539 141.113 30.446C141.057 30.4301 141.001 30.4147 140.945 30.3996C140.801 30.3148 140.664 30.2171 140.526 30.1207C140.471 30.0825 140.471 30.0825 140.415 30.0435C140.217 29.9024 140.217 29.9024 140.148 29.8418C140.148 29.8111 140.148 29.7804 140.148 29.7488C140.125 29.7373 140.102 29.7258 140.078 29.7139C139.963 29.6452 139.868 29.5659 139.771 29.4699C139.771 29.4392 139.771 29.4086 139.771 29.377C139.723 29.3597 139.723 29.3597 139.674 29.3421C139.55 29.2783 139.504 29.2266 139.435 29.0981C139.435 29.0674 139.435 29.0367 139.435 29.0051C139.411 28.9942 139.386 28.9833 139.361 28.972C138.955 28.7107 138.762 27.9846 138.639 27.5177C138.49 26.8077 138.549 25.9713 138.765 25.2865C138.781 25.2328 138.797 25.1791 138.814 25.1238C139.013 24.5066 139.337 23.967 139.771 23.5202C139.804 23.4855 139.837 23.4508 139.871 23.415C139.908 23.3769 139.945 23.3387 139.983 23.2994C140.018 23.2632 140.053 23.227 140.09 23.1897C140.185 23.1066 140.24 23.0735 140.358 23.0553C140.358 23.0247 140.358 22.994 140.358 22.9624C140.763 22.6864 141.165 22.4775 141.616 22.3116C141.686 22.2851 141.686 22.2851 141.758 22.2581C142.795 21.8978 143.947 21.8889 145.013 22.0792Z" fill="#CECDCD"/>
<path d="M156 22.6836C155.854 23.2669 155.685 23.8495 155.465 24.4038C155.423 24.5154 155.385 24.6263 155.348 24.7401C155.337 24.7743 155.326 24.8085 155.315 24.8437C155.293 24.9112 155.272 24.9788 155.251 25.0466C155.225 25.1281 155.193 25.2076 155.161 25.2866C155.013 25.3413 154.99 25.3242 154.851 25.258C154.816 25.2412 154.78 25.2245 154.743 25.2073C154.668 25.1715 154.593 25.1357 154.518 25.0998C154.295 24.9961 154.103 24.9341 153.861 24.9148C153.861 24.8841 153.861 24.8534 153.861 24.8218C153.694 24.8041 153.526 24.7894 153.358 24.7753C153.327 24.7726 153.295 24.7699 153.263 24.7671C152.788 24.7275 152.317 24.7021 151.848 24.8218C151.835 24.8525 151.821 24.8832 151.806 24.9148C151.772 24.9263 151.737 24.9378 151.702 24.9497C151.387 25.0742 151.124 25.2794 150.968 25.612C150.851 25.9076 150.805 26.1686 150.868 26.4894C150.937 26.6625 151.027 26.8083 151.125 26.9622C151.177 27.053 151.177 27.053 151.177 27.1459C151.2 27.1574 151.222 27.169 151.246 27.1808C151.37 27.2532 151.483 27.3335 151.597 27.4248C151.597 27.4555 151.597 27.4862 151.597 27.5178C151.68 27.5485 151.763 27.5792 151.848 27.6108C151.848 27.6414 151.848 27.6721 151.848 27.7037C151.872 27.7091 151.897 27.7144 151.921 27.7199C152.025 27.7531 152.098 27.7996 152.189 27.8635C152.36 27.9808 152.534 28.0897 152.711 28.196C153.043 28.3961 153.354 28.6061 153.652 28.8658C153.705 28.9108 153.705 28.9108 153.759 28.9568C154.154 29.2962 154.465 29.6603 154.742 30.1208C154.764 30.1516 154.785 30.1823 154.808 30.214C155.282 30.9485 155.28 32.0764 155.164 32.9304C155.117 33.2429 155.055 33.5434 154.952 33.8394C154.924 33.8394 154.896 33.8394 154.868 33.8394C154.865 33.8845 154.863 33.9295 154.86 33.976C154.832 34.2058 154.724 34.3884 154.616 34.5831C154.588 34.5831 154.561 34.5831 154.532 34.5831C154.528 34.6097 154.524 34.6362 154.519 34.6636C154.409 35.0635 153.993 35.4612 153.694 35.6987C153.666 35.6987 153.638 35.6987 153.61 35.6987C153.61 35.7294 153.61 35.7601 153.61 35.7917C153.539 35.8516 153.539 35.8516 153.447 35.9137C153.417 35.9344 153.387 35.9552 153.356 35.9765C153.274 36.0241 153.274 36.0241 153.19 36.0241C153.176 36.0548 153.163 36.0854 153.148 36.1171C153.074 36.1626 153.074 36.1626 152.981 36.21C152.934 36.2356 152.934 36.2356 152.887 36.2618C151.967 36.7478 150.96 36.9274 149.948 36.9247C149.916 36.9247 149.883 36.9247 149.849 36.9247C149.246 36.9232 148.665 36.8584 148.074 36.7213C148.04 36.7136 148.006 36.7059 147.971 36.698C147.361 36.5556 146.844 36.2822 146.313 35.9311C146.338 35.7148 146.392 35.5337 146.468 35.3327C146.491 35.2706 146.514 35.2085 146.536 35.1464C146.554 35.0988 146.554 35.0988 146.572 35.0503C146.626 34.8996 146.677 34.7472 146.727 34.5948C146.87 34.1666 147.031 33.7476 147.194 33.3281C147.277 33.3434 147.36 33.3588 147.445 33.3746C147.445 33.4053 147.445 33.4359 147.445 33.4676C147.474 33.4728 147.503 33.478 147.533 33.4833C147.67 33.518 147.791 33.5719 147.92 33.6331C147.964 33.6543 148.009 33.6754 148.055 33.6972C148.106 33.7216 148.106 33.7216 148.158 33.7464C148.158 33.7771 148.158 33.8078 148.158 33.8394C148.269 33.8394 148.379 33.8394 148.494 33.8394C148.494 33.8701 148.494 33.9008 148.494 33.9324C148.538 33.94 148.538 33.94 148.583 33.9478C148.965 34.0158 148.965 34.0158 149.121 34.0626C149.801 34.2631 150.649 34.2878 151.303 33.9789C151.338 33.9627 151.372 33.9466 151.408 33.93C151.52 33.8725 151.618 33.8162 151.705 33.7176C151.764 33.6535 151.764 33.6535 151.848 33.6535C151.876 33.5921 151.904 33.5308 151.932 33.4676C151.96 33.4676 151.988 33.4676 152.016 33.4676C152.028 33.4263 152.04 33.3851 152.053 33.3426C152.1 33.1887 152.1 33.1887 152.142 33.0826C152.191 32.9352 152.211 32.795 152.231 32.6396C152.242 32.5586 152.242 32.5586 152.252 32.476C152.257 32.4351 152.262 32.3941 152.268 32.352C152.24 32.352 152.212 32.352 152.184 32.352C152.184 32.2293 152.184 32.1065 152.184 31.9801C152.156 31.9801 152.128 31.9801 152.1 31.9801C152.1 31.9494 152.1 31.9188 152.1 31.8872C152.072 31.8718 152.045 31.8565 152.016 31.8407C151.994 31.8004 151.971 31.7601 151.948 31.7187C151.633 31.1918 151.008 30.8523 150.506 30.5856C150.506 30.555 150.506 30.5243 150.506 30.4927C150.476 30.4873 150.445 30.482 150.413 30.4765C149.899 30.3426 149.368 29.7939 148.984 29.4032C148.949 29.3678 148.949 29.3678 148.913 29.3317C148.81 29.2241 148.749 29.1565 148.703 29.0052C148.676 29.0052 148.648 29.0052 148.619 29.0052C147.962 28.114 147.794 27.109 147.888 25.9897C147.892 25.9457 147.897 25.9017 147.901 25.8564C147.914 25.7498 147.914 25.7498 147.864 25.6585C147.906 25.6585 147.948 25.6585 147.99 25.6585C147.988 25.6156 147.988 25.6156 147.986 25.5719C147.985 25.5343 147.984 25.4968 147.982 25.4581C147.98 25.4022 147.98 25.4022 147.978 25.3453C147.993 25.2154 148.03 25.1866 148.116 25.1007C148.143 25.0169 148.17 24.9331 148.197 24.8491C148.256 24.6909 148.33 24.5433 148.407 24.3948C148.421 24.3672 148.435 24.3395 148.45 24.3111C148.637 23.9521 148.874 23.6849 149.164 23.4274C149.212 23.3727 149.212 23.3727 149.261 23.317C149.51 23.0481 149.775 22.8692 150.088 22.7038C150.162 22.6642 150.236 22.6228 150.307 22.5778C151.979 21.5406 154.328 21.8537 156 22.6836Z" fill="#CECDCD"/>
<path d="M39.4613 36.3027C39.5236 36.3488 39.5236 36.3488 39.5871 36.3957C39.5456 36.3957 39.5041 36.3957 39.4613 36.3957C39.4613 36.365 39.4613 36.3343 39.4613 36.3027Z" fill="#CECDCD"/>
<path d="M100.394 26.4019C100.421 26.4019 100.449 26.4019 100.477 26.4019C100.464 26.4325 100.45 26.4632 100.435 26.4948C100.422 26.4641 100.408 26.4335 100.394 26.4019Z" fill="#CECDCD"/>
<path d="M137.087 34.9546C137.171 35.0011 137.171 35.0011 137.171 35.0011L137.087 34.9546Z" fill="#CECDCD"/>
<path d="M137.465 34.2109C137.548 34.2574 137.548 34.2574 137.548 34.2574L137.465 34.2109Z" fill="#CECDCD"/>
<path d="M139.771 33.8857C139.855 33.9322 139.855 33.9322 139.855 33.9322L139.771 33.8857Z" fill="#CECDCD"/>
<path d="M151.597 33.6533C151.681 33.6998 151.681 33.6998 151.681 33.6998L151.597 33.6533Z" fill="#CECDCD"/>
<path d="M114.777 30.4458C114.861 30.4923 114.861 30.4923 114.861 30.4923L114.777 30.4458Z" fill="#CECDCD"/>
<path d="M125.848 29.3306C125.932 29.377 125.932 29.377 125.932 29.377L125.848 29.3306Z" fill="#CECDCD"/>
<path d="M110.164 29.0513C110.248 29.0978 110.248 29.0978 110.248 29.0978L110.164 29.0513Z" fill="#CECDCD"/>
<path d="M142.455 21.9863C142.539 22.0328 142.539 22.0328 142.539 22.0328L142.455 21.9863Z" fill="#CECDCD"/>
<path d="M54.6 21.5679C54.6838 21.6144 54.6838 21.6144 54.6838 21.6144L54.6 21.5679Z" fill="#CECDCD"/>
<path d="M51.2871 19.7085C51.371 19.755 51.371 19.755 51.371 19.755L51.2871 19.7085Z" fill="#CECDCD"/>
<path d="M37.8258 12.2251C37.9097 12.2716 37.9097 12.2716 37.9097 12.2716L37.8258 12.2251Z" fill="#CECDCD"/>
<path d="M58.9613 8.55273C59.0452 8.59922 59.0452 8.59922 59.0452 8.59922L58.9613 8.55273Z" fill="#CECDCD"/>
<path d="M97.5419 4.60156C97.6258 4.64804 97.6258 4.64804 97.6258 4.64804L97.5419 4.60156Z" fill="#CECDCD"/>
</g>
<defs>
<clipPath id="clip0_36_1229">
<rect width="156" height="37" fill="white"/>
</clipPath>
</defs>
</svg>
