<svg width="32" height="32" viewBox="0 0 32 32" fill="none" xmlns="http://www.w3.org/2000/svg">
<path d="M4.22681 9.91992L16.0001 16.7332L27.6934 9.95988" stroke="#84B156" stroke-width="1.5" stroke-linecap="round" stroke-linejoin="round"/>
<path d="M16.0001 28.8133V16.72" stroke="#84B156" stroke-width="1.5" stroke-linecap="round" stroke-linejoin="round"/>
<path d="M13.24 3.30675L6.12002 7.26679C4.50668 8.16012 3.18671 10.4001 3.18671 12.2401V19.7735C3.18671 21.6135 4.50668 23.8534 6.12002 24.7468L13.24 28.7068C14.76 29.5468 17.2533 29.5468 18.7733 28.7068L25.8934 24.7468C27.5067 23.8534 28.8267 21.6135 28.8267 19.7735V12.2401C28.8267 10.4001 27.5067 8.16012 25.8934 7.26679L18.7733 3.30675C17.24 2.45341 14.76 2.45341 13.24 3.30675Z" stroke="#84B156" stroke-width="1.5" stroke-linecap="round" stroke-linejoin="round"/>
<path d="M22.6667 17.6532V12.7733L10.0134 5.46655" stroke="#84B156" stroke-width="1.5" stroke-linecap="round" stroke-linejoin="round"/>
</svg>
