<svg width="32" height="32" viewBox="0 0 32 32" fill="none" xmlns="http://www.w3.org/2000/svg">
<path d="M29.3333 14.5334V5.46675C29.3333 3.46675 28.48 2.66675 26.36 2.66675H20.9733C18.8533 2.66675 18 3.46675 18 5.46675V14.5334C18 16.5334 18.8533 17.3334 20.9733 17.3334H26.36C28.48 17.3334 29.3333 16.5334 29.3333 14.5334Z" stroke="#E7B070" stroke-width="1.5" stroke-linecap="round" stroke-linejoin="round"/>
<path d="M29.3333 26.5333V24.1333C29.3333 22.1333 28.48 21.3333 26.36 21.3333H20.9733C18.8533 21.3333 18 22.1333 18 24.1333V26.5333C18 28.5333 18.8533 29.3333 20.9733 29.3333H26.36C28.48 29.3333 29.3333 28.5333 29.3333 26.5333Z" stroke="#E7B070" stroke-width="1.5" stroke-linecap="round" stroke-linejoin="round"/>
<path d="M14 17.4667V26.5334C14 28.5334 13.1467 29.3334 11.0267 29.3334H5.63999C3.51999 29.3334 2.66666 28.5334 2.66666 26.5334V17.4667C2.66666 15.4667 3.51999 14.6667 5.63999 14.6667H11.0267C13.1467 14.6667 14 15.4667 14 17.4667Z" stroke="#E7B070" stroke-width="1.5" stroke-linecap="round" stroke-linejoin="round"/>
<path d="M14 5.46675V7.86675C14 9.86675 13.1467 10.6667 11.0267 10.6667H5.63999C3.51999 10.6667 2.66666 9.86675 2.66666 7.86675V5.46675C2.66666 3.46675 3.51999 2.66675 5.63999 2.66675H11.0267C13.1467 2.66675 14 3.46675 14 5.46675Z" stroke="#E7B070" stroke-width="1.5" stroke-linecap="round" stroke-linejoin="round"/>
</svg>
