<svg width="16" height="25" viewBox="0 0 16 25" fill="none" xmlns="http://www.w3.org/2000/svg">
<path d="M7.58452 16.1C7.47862 16.1 7.37271 16.0592 7.29124 15.9776L4.1222 12.802C4.04888 12.7285 4 12.6224 4 12.5081C4 12.402 4.04073 12.2714 4.1222 12.1979L7.29124 9.02235C7.45418 8.85909 7.71487 8.85909 7.8778 9.02235C8.04073 9.18562 8.04073 9.44685 7.8778 9.61012L4.98574 12.5L7.8778 15.398C8.04073 15.5612 8.04073 15.8225 7.8778 15.9857C7.79633 16.0592 7.69043 16.1 7.58452 16.1Z" fill="#84B156"/>
<path d="M11.5845 16.1C11.4786 16.1 11.3727 16.0592 11.2912 15.9776L8.1222 12.802C8.04888 12.7285 8 12.6224 8 12.5081C8 12.402 8.04073 12.2714 8.1222 12.1979L11.2912 9.02235C11.4542 8.85909 11.7149 8.85909 11.8778 9.02235C12.0407 9.18562 12.0407 9.44685 11.8778 9.61012L8.98574 12.5L11.8778 15.398C12.0407 15.5612 12.0407 15.8225 11.8778 15.9857C11.7963 16.0592 11.6904 16.1 11.5845 16.1Z" fill="#84B156"/>
</svg>
