<svg width="35" height="26" viewBox="0 0 35 26" fill="none" xmlns="http://www.w3.org/2000/svg">
<path d="M32.0287 13.2527C32.0287 12.3174 31.9277 11.6349 31.709 10.9271H17.4876V15.1485H25.8352C25.667 16.1975 24.7582 17.7774 22.7385 18.839L22.7102 18.9803L27.2068 21.5963L27.5183 21.6196C30.3793 19.6353 32.0287 16.7157 32.0287 13.2527Z" fill="#3089DC"/>
<path d="M17.4867 24.375C21.5763 24.375 25.0096 23.3638 27.5173 21.6197L22.7376 18.839C21.4585 19.5089 19.7418 19.9766 17.4867 19.9766C13.4811 19.9766 10.0815 17.9923 8.86965 15.2496L8.69201 15.261L4.01647 17.9784L3.95532 18.106C6.44613 21.8218 11.5625 24.375 17.4867 24.375Z" fill="#34A853"/>
<path d="M8.87056 15.2497C8.55079 14.542 8.36573 13.7836 8.36573 13C8.36573 12.2163 8.55079 11.458 8.85373 10.7503L8.84526 10.5995L4.11111 7.8385L3.95622 7.89383C2.92963 9.43579 2.34058 11.1674 2.34058 13C2.34058 14.8326 2.92963 16.5641 3.95622 18.1061L8.87056 15.2497Z" fill="#FBBC05"/>
<path d="M17.4867 6.0233C20.331 6.0233 22.2496 6.94594 23.3436 7.71696L27.6184 4.5825C24.993 2.74987 21.5764 1.625 17.4867 1.625C11.5625 1.625 6.44615 4.17804 3.95532 7.89384L8.85285 10.7503C10.0816 8.00763 13.4812 6.0233 17.4867 6.0233Z" fill="#EB4335"/>
</svg>
