<svg width="47" height="47" viewBox="0 0 47 47" fill="none" xmlns="http://www.w3.org/2000/svg">
<path d="M10.9392 9.98299C10.4679 9.93983 10.0437 10.2686 9.9685 10.7359L8.18859 21.8036C8.11349 22.2709 8.41327 22.7161 8.87431 22.8229C9.30661 22.9228 9.74221 22.6932 9.90843 22.2909L9.9375 22.2085L9.93877 22.2067C9.93906 22.2058 9.93893 22.2044 9.93939 22.2029C9.94035 22.1997 9.94181 22.1953 9.94349 22.1897C9.94699 22.178 9.95218 22.1605 9.95862 22.1387C9.97147 22.0952 9.99034 22.0318 10.0137 21.9498C10.0606 21.7852 10.1269 21.5452 10.2068 21.241C10.3668 20.6327 10.5808 19.7643 10.7987 18.717C11.2336 16.6268 11.6888 13.8016 11.7562 10.8997C11.7672 10.4267 11.4103 10.0264 10.9392 9.98299Z" stroke="white" stroke-width="1.8" stroke-miterlimit="10" stroke-linecap="round" stroke-linejoin="round"/>
<path d="M33.5022 9.39572C33.1453 9.08738 32.6109 9.1066 32.2774 9.4401L15.3635 26.3608C15.0425 26.6821 15.0115 27.1927 15.2908 27.5508C15.5702 27.9089 16.0727 28.0021 16.4625 27.7689C24.2346 23.1184 30.0833 15.3846 33.6356 10.614C33.9174 10.2356 33.8591 9.70415 33.5022 9.39572Z" stroke="white" stroke-width="1.8" stroke-miterlimit="10" stroke-linecap="round" stroke-linejoin="round"/>
<path d="M36.7315 32.121C36.5905 31.6697 36.1239 31.4048 35.6639 31.5141L16.2436 36.1277C15.8418 36.2232 15.5564 36.5797 15.5516 36.9927C15.5468 37.4057 15.8234 37.7694 16.2229 37.8741C17.5676 38.2265 19.5265 38.0439 21.5588 37.667C23.6383 37.2814 25.9606 36.6575 28.1203 36.0022C30.2832 35.3458 32.3011 34.6529 33.7772 34.1246C34.5158 33.8603 35.12 33.636 35.5399 33.4783C35.7498 33.3995 35.9137 33.3371 36.0255 33.2943C36.0814 33.2729 36.1249 33.257 36.154 33.2457C36.1684 33.2401 36.1793 33.2351 36.1868 33.2322C36.1903 33.2309 36.1932 33.2303 36.1951 33.2296L36.1983 33.2281C36.6391 33.0565 36.8723 32.5725 36.7315 32.121Z" stroke="white" stroke-width="1.8" stroke-miterlimit="10" stroke-linecap="round" stroke-linejoin="round"/>
</svg>
