<svg width="21" height="21" viewBox="0 0 21 21" fill="none" xmlns="http://www.w3.org/2000/svg">
<path d="M18.8 9.19999L17.9833 12.6833C17.2833 15.6917 15.9 16.9083 13.3 16.6583C12.8833 16.625 12.4333 16.55 11.95 16.4333L10.55 16.1C7.07499 15.275 5.99999 13.5583 6.81665 10.075L7.63332 6.58332C7.79999 5.87499 7.99999 5.25832 8.24999 4.74999C9.22499 2.73332 10.8833 2.19165 13.6667 2.84999L15.0583 3.17499C18.55 3.99165 19.6167 5.71665 18.8 9.19999Z" stroke="white" stroke-width="1.5" stroke-linecap="round" stroke-linejoin="round"/>
<path d="M13.3 16.6583C12.7834 17.0083 12.1334 17.3 11.3417 17.5583L10.025 17.9917C6.71671 19.0583 4.97504 18.1667 3.90004 14.8583L2.83337 11.5667C1.76671 8.25833 2.65004 6.50833 5.95837 5.44167L7.27504 5.00833C7.61671 4.9 7.94171 4.80833 8.25004 4.75C8.00004 5.25833 7.80004 5.875 7.63337 6.58333L6.81671 10.075C6.00004 13.5583 7.07504 15.275 10.55 16.1L11.95 16.4333C12.4334 16.55 12.8834 16.625 13.3 16.6583Z" stroke="white" stroke-width="1.5" stroke-linecap="round" stroke-linejoin="round"/>
<path d="M11.2833 7.60834L15.325 8.63334" stroke="white" stroke-width="1.5" stroke-linecap="round" stroke-linejoin="round"/>
<path d="M10.4667 10.8333L12.8833 11.45" stroke="white" stroke-width="1.5" stroke-linecap="round" stroke-linejoin="round"/>
</svg>
