<svg width="21" height="21" viewBox="0 0 21 21" fill="none" xmlns="http://www.w3.org/2000/svg">
<path d="M14.2 2.96667L6.67498 5.46667C1.61664 7.15834 1.61664 9.91667 6.67498 11.6L8.90831 12.3417L9.64998 14.575C11.3333 19.6333 14.1 19.6333 15.7833 14.575L18.2916 7.05834C19.4083 3.68334 17.575 1.84167 14.2 2.96667ZM14.4666 7.45001L11.3 10.6333C11.175 10.7583 11.0166 10.8167 10.8583 10.8167C10.7 10.8167 10.5416 10.7583 10.4166 10.6333C10.175 10.3917 10.175 9.99167 10.4166 9.75001L13.5833 6.56667C13.825 6.32501 14.225 6.32501 14.4666 6.56667C14.7083 6.80834 14.7083 7.20834 14.4666 7.45001Z" class='fill-[#012839]'/>
</svg>
